<svg width="242" height="313" viewBox="0 0 242 313" fill="none" xmlns="http://www.w3.org/2000/svg">
<g filter="url(#filter0_d_39_21)">
<mask id="path-1-inside-1_39_21" fill="white">
<path fill-rule="evenodd" clip-rule="evenodd" d="M107.689 9.5C107.689 12.737 108.278 14.589 109.788 16.099C111.282 17.593 111.725 18.962 111.325 20.849C111.015 22.307 110.496 25.075 110.171 27C108.992 33.988 108.627 35 107.292 35C106.545 35 105.367 34.317 104.674 33.482C103.981 32.646 102.013 31.36 100.301 30.622C95.8017 28.684 91.6347 27 91.3357 27C91.1927 27 90.9937 31.683 90.8937 37.406C90.7927 43.13 90.2557 49.009 89.6997 50.471C87.7257 55.662 88.2887 56.069 93.9387 53.536C104.686 48.718 108.689 49.542 108.689 56.571C108.689 59.714 108.939 60 111.689 60C116.044 60 115.513 62.165 109.663 68.262C106.898 71.143 103.116 75.762 101.257 78.527C99.3987 81.292 94.2357 87.034 89.7837 91.287C85.3317 95.541 81.6887 99.24 81.6887 99.508C81.6887 99.776 83.1727 102.134 84.9857 104.748C86.7987 107.361 88.9367 110.85 89.7357 112.5C91.7327 116.623 95.4627 122.141 97.5967 124.129C99.0017 125.438 99.5127 128.148 100.049 137.141C100.422 143.388 100.996 149.737 101.325 151.25C102.301 155.742 103.689 154.382 103.689 148.934C103.689 142.432 105.081 139.604 107.613 140.96C110.273 142.383 110.728 144.371 109.11 147.49C108.328 148.996 107.689 150.827 107.689 151.558C107.689 152.289 106.755 153.541 105.612 154.341C104.025 155.453 103.456 157.105 103.196 161.357C103.01 164.416 102.568 167.387 102.214 167.96C101.066 169.817 99.6077 169.065 98.5667 166.08C98.0067 164.474 96.9057 162.913 96.1187 162.612C95.2377 162.273 94.6757 160.612 94.6537 158.281C94.6347 156.202 93.9747 151.575 93.1887 148C92.4027 144.425 91.7427 138.912 91.7237 135.75C91.6877 129.781 90.4317 128.449 87.5097 131.281C86.7837 131.986 84.3887 133.607 82.1887 134.884C79.9887 136.162 77.8287 137.835 77.3887 138.603C76.1827 140.71 73.9127 140.28 73.1237 137.797C72.4247 135.592 70.3357 133 69.2597 133C68.9457 133 68.6887 134.125 68.6887 135.5C68.6887 136.875 68.2507 138 67.7147 138C66.6267 138 63.7057 132.817 63.6577 130.8C63.6397 130.085 62.2217 126.8 60.5047 123.5C58.7887 120.2 56.1347 115.045 54.6077 112.045C51.9247 106.771 51.7987 106.672 50.8167 109.045C50.2577 110.395 48.8337 114.875 47.6527 119C46.4717 123.125 44.8237 128.44 43.9917 130.811C43.1587 133.182 42.6367 135.236 42.8327 135.376C43.0287 135.515 44.6117 136.5 46.3507 137.565C48.0897 138.629 53.3217 143.851 57.9787 149.169C65.2867 157.515 66.7347 159.794 68.5667 165.824C70.8477 173.333 71.1977 176.567 69.8227 177.417C68.4487 178.266 66.1997 174.992 63.6947 168.5C59.7217 158.2 47.1957 143.311 39.4387 139.668C34.9457 137.557 34.8137 136.296 38.0607 126.5C39.3357 122.65 40.9787 117.161 41.7097 114.301L43.0407 109.103L38.2337 104.148C33.9317 99.713 29.3987 93.717 18.8817 78.549C17.0627 75.926 15.3597 73.995 15.0967 74.258C14.8347 74.521 15.1237 76.708 15.7397 79.118C16.3557 81.528 17.1007 94.633 17.3957 108.239L17.9317 132.978L22.8597 138.239C28.2367 143.979 34.6887 153.842 34.6887 156.322C34.6887 157.18 35.1387 158.16 35.6887 158.5C36.2387 158.84 36.6887 160.072 36.6887 161.238C36.6887 166.096 42.4237 181.068 45.5987 184.5C49.1537 188.342 52.6887 194.266 52.6887 196.382C52.6887 197.287 52.2387 198.809 51.6887 199.764C51.1397 200.719 50.2437 202.625 49.6997 204C49.1547 205.375 47.9867 207.494 47.1037 208.709C45.5607 210.834 45.6907 211.123 50.4747 216.209C53.3797 219.298 55.7467 222.878 56.1627 224.811C56.8247 227.889 56.4797 228.499 51.2817 233.454C48.2057 236.386 45.6887 239.27 45.6887 239.862C45.6887 240.875 47.8597 245.098 50.8007 249.808C51.9447 251.64 51.7947 252.173 49.5397 254.262C48.1317 255.567 46.6777 258.243 46.3097 260.209C45.9407 262.174 44.0747 267.766 42.1637 272.634C40.2527 277.503 38.6887 281.774 38.6887 282.126C38.6887 285.021 71.3067 287.122 125.189 287.698C171.917 288.198 174.767 288.124 186.654 286.096C193.51 284.926 199.552 283.537 200.08 283.009C200.694 282.395 200.108 280.146 198.455 276.774C195.299 270.337 193.266 261.821 194.096 258.514C194.601 256.501 194.173 255.785 191.7 254.506C188.031 252.608 187.934 250.718 191.189 244.596C192.564 242.01 193.689 239.469 193.689 238.95C193.689 238.431 192.177 236.317 190.33 234.253C184.706 227.97 184.811 217.709 190.551 212.595C193.179 210.253 193.223 209.289 190.796 207.16C187.888 204.609 187.472 198.876 189.869 194.402C191.709 190.97 191.748 190.516 190.292 189.452C188.09 187.841 188.218 187.404 192.002 183.62C194.126 181.496 196.142 177.828 197.618 173.403C201.943 160.434 208.489 149.103 216.38 140.928L223.689 133.356L223.697 115.428C223.702 105.222 224.354 92.589 225.211 86.098C226.04 79.826 226.425 74.426 226.066 74.098C225.708 73.769 225.209 74.079 224.956 74.787C224.704 75.495 223.491 77.295 222.261 78.787C221.031 80.279 218.189 84.2 215.947 87.5C213.704 90.8 209.129 96.186 205.779 99.469C202.43 102.751 199.689 106.138 199.689 106.994C199.689 107.85 201.06 114.163 202.735 121.024C204.41 127.884 205.553 134.404 205.275 135.513C204.602 138.193 195.111 145.376 193.206 144.645C191.268 143.901 192.234 141.528 195.29 139.526C197.119 138.327 197.505 137.506 196.844 136.216C196.36 135.272 195.692 132.025 195.358 129C194.642 122.505 190.533 107 189.528 107C189.144 107 187.814 109.032 186.574 111.516C184.028 116.613 170.249 135.254 166.349 138.877C163.35 141.662 160.689 141.112 160.689 137.706C160.689 136.409 159.657 134.379 158.395 133.193C156.113 131.05 156.092 131.049 154.405 133.019C152.05 135.769 150.759 135.499 149.539 132C148.964 130.35 148.173 129 147.781 129C147.389 129 145.67 130.368 143.96 132.039C139.075 136.815 138.633 143.591 142.347 156.744C144.789 165.393 141.563 169.751 138.271 162.25C137.366 160.188 135.541 156.455 134.215 153.956C132.89 151.457 131.052 147.195 130.132 144.485C128.472 139.595 128.477 139.548 130.75 138.029C132.01 137.188 135.662 133.985 138.865 130.91C143.3 126.654 144.689 124.639 144.689 122.464C144.689 120.893 145.741 118.008 147.028 116.054C148.314 114.099 151.323 109.414 153.715 105.643L158.063 98.786L153.626 94.544C146.904 88.117 128.422 68.119 126.446 65.134C124.025 61.477 124.221 60.955 127.907 61.246C131.011 61.491 131.162 61.324 132.204 56.5C133.206 51.867 133.521 51.477 136.505 51.185C138.509 50.989 141.808 51.89 145.24 53.569C148.273 55.053 150.912 56.095 151.103 55.884C151.294 55.673 151.015 52.35 150.482 48.5C149.949 44.65 149.687 38.674 149.9 35.22C150.189 30.543 149.974 29.06 149.059 29.411C148.384 29.671 146.112 30.196 144.01 30.58C141.908 30.963 138.892 32.188 137.307 33.3C132.917 36.383 131.139 34.676 131.384 27.613C131.491 24.526 131.184 22 130.701 22C129.002 22 128.489 17.879 129.977 16.178C130.784 15.255 131.752 12.363 132.128 9.75L132.812 5H107.689V9.5ZM125.679 30.488C127.066 32.159 126.674 32.395 120.796 33.417C117.243 34.035 114.689 32.764 114.689 30.378C114.689 28.403 124.027 28.497 125.679 30.488ZM124.24 45.056C125.728 46.7 125.871 47.478 124.958 48.941C124.33 49.947 124.049 51.659 124.333 52.747C125.166 55.931 121.731 56.55 119.257 53.662C118.12 52.333 116.402 50.98 115.439 50.655C112.81 49.766 113.336 46.715 116.441 44.841C120.186 42.581 122.046 42.632 124.24 45.056ZM119.689 77.348C119.689 79.492 94.1507 105.404 92.8377 104.592C92.2057 104.202 91.6887 102.818 91.6887 101.517C91.6887 99.361 100.352 90.555 114.189 78.645C117.502 75.794 119.689 75.278 119.689 77.348ZM129.263 82.632C131.669 85.18 133.881 87.992 134.178 88.882C134.886 91.007 142.446 96.361 145.649 97.008C149.051 97.694 149.49 100.678 146.396 102.087C144.348 103.021 143.308 102.785 139.845 100.598C137.581 99.169 135.382 98 134.959 98C132.281 97.998 120.926 81.044 122.21 78.966C123.317 77.174 124.869 77.981 129.263 82.632ZM182.709 155.275C178.896 161.208 174.732 169.722 174.712 171.628C174.699 172.798 173.965 174.356 173.081 175.09C171.718 176.221 171.272 176.15 170.158 174.626C167.343 170.777 170.646 162.429 178.12 154.504C180.934 151.521 182.015 150.926 182.943 151.854C183.871 152.782 183.818 153.549 182.709 155.275ZM126.553 160.572C127.461 161.377 122.339 168 120.807 168C119.862 168 118.624 168.465 118.056 169.033C116.99 170.099 113.689 169.355 113.689 168.048C113.689 167.642 114.589 166.495 115.689 165.5C116.789 164.505 117.689 163.07 117.689 162.313C117.689 159.852 124.283 158.557 126.553 160.572ZM138.689 173.002C148.288 173.583 158.186 174.856 164.689 176.344L175.189 178.748L179.277 176.374C185.654 172.67 188.024 173.885 183.603 178.591C181.85 180.457 181.706 181.163 182.696 183.013C184.414 186.224 182.743 187.129 178.07 185.519C170.069 182.763 149.097 179.79 134.031 179.278C113.099 178.565 90.0647 181.197 59.9387 187.744C58.0757 188.149 57.6887 187.804 57.6887 185.739C57.6887 184.367 57.0137 182.685 56.1887 182C52.4727 178.916 56.0297 175.683 60.1617 178.39C63.0097 180.256 67.3597 180.461 71.3737 178.918C75.3597 177.385 83.5197 176.03 95.6887 174.879C104.567 174.039 118.617 172.609 122.189 172.182C122.739 172.116 130.164 172.485 138.689 173.002ZM147.253 189.46C171.117 192.647 182.693 196.119 183.512 200.335C183.952 202.598 180.065 202.523 171.169 200.096C143.466 192.537 100.829 192.519 70.3017 200.053C61.1697 202.307 56.6747 202.538 56.7197 200.75C56.8217 196.723 73.8797 191.643 93.1887 189.888C99.7887 189.288 105.377 188.618 105.606 188.398C106.677 187.374 137.518 188.16 147.253 189.46ZM146.332 207.488C160.634 209.023 176.057 212.231 178.371 214.151C179.096 214.752 179.689 216.142 179.689 217.239C179.689 218.895 179.223 219.13 176.939 218.625C154.937 213.762 144.54 212.639 121.689 212.655C100.014 212.671 90.4117 213.642 72.6887 217.612C62.2947 219.94 61.2477 219.912 60.8747 217.29C60.6317 215.586 61.3397 214.755 63.9717 213.655C78.7697 207.472 118.486 204.498 146.332 207.488ZM143.638 221.519C157.543 222.427 177.621 226.609 180.574 229.211C185.882 233.888 185.234 236.09 179.283 233.604C175.241 231.915 163.058 229.993 140.189 227.438C127.254 225.992 123.33 225.93 111.689 226.984C97.9957 228.225 77.6607 231.311 72.1887 232.979C67.4507 234.423 62.4257 234.611 61.9917 233.36C60.9717 230.424 72.2697 225.992 87.1887 223.475C104.9 220.487 119.887 219.968 143.638 221.519ZM65.1237 240.105C64.8197 240.597 64.9347 240.99 65.3797 240.978C65.8247 240.966 75.1887 240.304 86.1887 239.506C118.384 237.172 152.336 237.833 167.189 241.082C175.078 242.808 185.689 247.171 185.689 248.689C185.689 251.035 182.752 251.346 176.643 249.647C155.025 243.637 106.464 242.408 70.1887 246.953C65.7887 247.504 60.9517 248.226 59.4387 248.557C57.1347 249.061 56.6887 248.825 56.6887 247.103C56.6887 245.971 57.7667 244.34 59.0847 243.476C60.4017 242.613 61.7097 241.026 61.9917 239.949C62.3297 238.655 63.0417 238.198 64.0907 238.601C64.9627 238.936 65.4287 239.612 65.1237 240.105ZM81.0407 249.761C81.8917 251.138 79.2597 253.622 74.9387 255.519C65.7617 259.548 69.7777 260.103 103.673 259.496C131.148 259.004 137.553 259.536 134.995 262.094C134.495 262.594 123.534 263.476 110.637 264.053C84.2637 265.232 69.5297 266.984 61.1237 269.938C57.9817 271.043 55.0237 271.707 54.5497 271.414C53.1957 270.577 53.5407 268.368 55.2467 266.952C56.9947 265.501 59.6887 259.582 59.6887 257.192C59.6887 256.332 60.6667 254.587 61.8627 253.314C63.5767 251.49 65.1127 250.997 69.1127 250.985C71.9047 250.976 74.8637 250.533 75.6887 250C77.4907 248.836 80.3887 248.706 81.0407 249.761Z"/>
</mask>
<path fill-rule="evenodd" clip-rule="evenodd" d="M107.689 9.5C107.689 12.737 108.278 14.589 109.788 16.099C111.282 17.593 111.725 18.962 111.325 20.849C111.015 22.307 110.496 25.075 110.171 27C108.992 33.988 108.627 35 107.292 35C106.545 35 105.367 34.317 104.674 33.482C103.981 32.646 102.013 31.36 100.301 30.622C95.8017 28.684 91.6347 27 91.3357 27C91.1927 27 90.9937 31.683 90.8937 37.406C90.7927 43.13 90.2557 49.009 89.6997 50.471C87.7257 55.662 88.2887 56.069 93.9387 53.536C104.686 48.718 108.689 49.542 108.689 56.571C108.689 59.714 108.939 60 111.689 60C116.044 60 115.513 62.165 109.663 68.262C106.898 71.143 103.116 75.762 101.257 78.527C99.3987 81.292 94.2357 87.034 89.7837 91.287C85.3317 95.541 81.6887 99.24 81.6887 99.508C81.6887 99.776 83.1727 102.134 84.9857 104.748C86.7987 107.361 88.9367 110.85 89.7357 112.5C91.7327 116.623 95.4627 122.141 97.5967 124.129C99.0017 125.438 99.5127 128.148 100.049 137.141C100.422 143.388 100.996 149.737 101.325 151.25C102.301 155.742 103.689 154.382 103.689 148.934C103.689 142.432 105.081 139.604 107.613 140.96C110.273 142.383 110.728 144.371 109.11 147.49C108.328 148.996 107.689 150.827 107.689 151.558C107.689 152.289 106.755 153.541 105.612 154.341C104.025 155.453 103.456 157.105 103.196 161.357C103.01 164.416 102.568 167.387 102.214 167.96C101.066 169.817 99.6077 169.065 98.5667 166.08C98.0067 164.474 96.9057 162.913 96.1187 162.612C95.2377 162.273 94.6757 160.612 94.6537 158.281C94.6347 156.202 93.9747 151.575 93.1887 148C92.4027 144.425 91.7427 138.912 91.7237 135.75C91.6877 129.781 90.4317 128.449 87.5097 131.281C86.7837 131.986 84.3887 133.607 82.1887 134.884C79.9887 136.162 77.8287 137.835 77.3887 138.603C76.1827 140.71 73.9127 140.28 73.1237 137.797C72.4247 135.592 70.3357 133 69.2597 133C68.9457 133 68.6887 134.125 68.6887 135.5C68.6887 136.875 68.2507 138 67.7147 138C66.6267 138 63.7057 132.817 63.6577 130.8C63.6397 130.085 62.2217 126.8 60.5047 123.5C58.7887 120.2 56.1347 115.045 54.6077 112.045C51.9247 106.771 51.7987 106.672 50.8167 109.045C50.2577 110.395 48.8337 114.875 47.6527 119C46.4717 123.125 44.8237 128.44 43.9917 130.811C43.1587 133.182 42.6367 135.236 42.8327 135.376C43.0287 135.515 44.6117 136.5 46.3507 137.565C48.0897 138.629 53.3217 143.851 57.9787 149.169C65.2867 157.515 66.7347 159.794 68.5667 165.824C70.8477 173.333 71.1977 176.567 69.8227 177.417C68.4487 178.266 66.1997 174.992 63.6947 168.5C59.7217 158.2 47.1957 143.311 39.4387 139.668C34.9457 137.557 34.8137 136.296 38.0607 126.5C39.3357 122.65 40.9787 117.161 41.7097 114.301L43.0407 109.103L38.2337 104.148C33.9317 99.713 29.3987 93.717 18.8817 78.549C17.0627 75.926 15.3597 73.995 15.0967 74.258C14.8347 74.521 15.1237 76.708 15.7397 79.118C16.3557 81.528 17.1007 94.633 17.3957 108.239L17.9317 132.978L22.8597 138.239C28.2367 143.979 34.6887 153.842 34.6887 156.322C34.6887 157.18 35.1387 158.16 35.6887 158.5C36.2387 158.84 36.6887 160.072 36.6887 161.238C36.6887 166.096 42.4237 181.068 45.5987 184.5C49.1537 188.342 52.6887 194.266 52.6887 196.382C52.6887 197.287 52.2387 198.809 51.6887 199.764C51.1397 200.719 50.2437 202.625 49.6997 204C49.1547 205.375 47.9867 207.494 47.1037 208.709C45.5607 210.834 45.6907 211.123 50.4747 216.209C53.3797 219.298 55.7467 222.878 56.1627 224.811C56.8247 227.889 56.4797 228.499 51.2817 233.454C48.2057 236.386 45.6887 239.27 45.6887 239.862C45.6887 240.875 47.8597 245.098 50.8007 249.808C51.9447 251.64 51.7947 252.173 49.5397 254.262C48.1317 255.567 46.6777 258.243 46.3097 260.209C45.9407 262.174 44.0747 267.766 42.1637 272.634C40.2527 277.503 38.6887 281.774 38.6887 282.126C38.6887 285.021 71.3067 287.122 125.189 287.698C171.917 288.198 174.767 288.124 186.654 286.096C193.51 284.926 199.552 283.537 200.08 283.009C200.694 282.395 200.108 280.146 198.455 276.774C195.299 270.337 193.266 261.821 194.096 258.514C194.601 256.501 194.173 255.785 191.7 254.506C188.031 252.608 187.934 250.718 191.189 244.596C192.564 242.01 193.689 239.469 193.689 238.95C193.689 238.431 192.177 236.317 190.33 234.253C184.706 227.97 184.811 217.709 190.551 212.595C193.179 210.253 193.223 209.289 190.796 207.16C187.888 204.609 187.472 198.876 189.869 194.402C191.709 190.97 191.748 190.516 190.292 189.452C188.09 187.841 188.218 187.404 192.002 183.62C194.126 181.496 196.142 177.828 197.618 173.403C201.943 160.434 208.489 149.103 216.38 140.928L223.689 133.356L223.697 115.428C223.702 105.222 224.354 92.589 225.211 86.098C226.04 79.826 226.425 74.426 226.066 74.098C225.708 73.769 225.209 74.079 224.956 74.787C224.704 75.495 223.491 77.295 222.261 78.787C221.031 80.279 218.189 84.2 215.947 87.5C213.704 90.8 209.129 96.186 205.779 99.469C202.43 102.751 199.689 106.138 199.689 106.994C199.689 107.85 201.06 114.163 202.735 121.024C204.41 127.884 205.553 134.404 205.275 135.513C204.602 138.193 195.111 145.376 193.206 144.645C191.268 143.901 192.234 141.528 195.29 139.526C197.119 138.327 197.505 137.506 196.844 136.216C196.36 135.272 195.692 132.025 195.358 129C194.642 122.505 190.533 107 189.528 107C189.144 107 187.814 109.032 186.574 111.516C184.028 116.613 170.249 135.254 166.349 138.877C163.35 141.662 160.689 141.112 160.689 137.706C160.689 136.409 159.657 134.379 158.395 133.193C156.113 131.05 156.092 131.049 154.405 133.019C152.05 135.769 150.759 135.499 149.539 132C148.964 130.35 148.173 129 147.781 129C147.389 129 145.67 130.368 143.96 132.039C139.075 136.815 138.633 143.591 142.347 156.744C144.789 165.393 141.563 169.751 138.271 162.25C137.366 160.188 135.541 156.455 134.215 153.956C132.89 151.457 131.052 147.195 130.132 144.485C128.472 139.595 128.477 139.548 130.75 138.029C132.01 137.188 135.662 133.985 138.865 130.91C143.3 126.654 144.689 124.639 144.689 122.464C144.689 120.893 145.741 118.008 147.028 116.054C148.314 114.099 151.323 109.414 153.715 105.643L158.063 98.786L153.626 94.544C146.904 88.117 128.422 68.119 126.446 65.134C124.025 61.477 124.221 60.955 127.907 61.246C131.011 61.491 131.162 61.324 132.204 56.5C133.206 51.867 133.521 51.477 136.505 51.185C138.509 50.989 141.808 51.89 145.24 53.569C148.273 55.053 150.912 56.095 151.103 55.884C151.294 55.673 151.015 52.35 150.482 48.5C149.949 44.65 149.687 38.674 149.9 35.22C150.189 30.543 149.974 29.06 149.059 29.411C148.384 29.671 146.112 30.196 144.01 30.58C141.908 30.963 138.892 32.188 137.307 33.3C132.917 36.383 131.139 34.676 131.384 27.613C131.491 24.526 131.184 22 130.701 22C129.002 22 128.489 17.879 129.977 16.178C130.784 15.255 131.752 12.363 132.128 9.75L132.812 5H107.689V9.5ZM125.679 30.488C127.066 32.159 126.674 32.395 120.796 33.417C117.243 34.035 114.689 32.764 114.689 30.378C114.689 28.403 124.027 28.497 125.679 30.488ZM124.24 45.056C125.728 46.7 125.871 47.478 124.958 48.941C124.33 49.947 124.049 51.659 124.333 52.747C125.166 55.931 121.731 56.55 119.257 53.662C118.12 52.333 116.402 50.98 115.439 50.655C112.81 49.766 113.336 46.715 116.441 44.841C120.186 42.581 122.046 42.632 124.24 45.056ZM119.689 77.348C119.689 79.492 94.1507 105.404 92.8377 104.592C92.2057 104.202 91.6887 102.818 91.6887 101.517C91.6887 99.361 100.352 90.555 114.189 78.645C117.502 75.794 119.689 75.278 119.689 77.348ZM129.263 82.632C131.669 85.18 133.881 87.992 134.178 88.882C134.886 91.007 142.446 96.361 145.649 97.008C149.051 97.694 149.49 100.678 146.396 102.087C144.348 103.021 143.308 102.785 139.845 100.598C137.581 99.169 135.382 98 134.959 98C132.281 97.998 120.926 81.044 122.21 78.966C123.317 77.174 124.869 77.981 129.263 82.632ZM182.709 155.275C178.896 161.208 174.732 169.722 174.712 171.628C174.699 172.798 173.965 174.356 173.081 175.09C171.718 176.221 171.272 176.15 170.158 174.626C167.343 170.777 170.646 162.429 178.12 154.504C180.934 151.521 182.015 150.926 182.943 151.854C183.871 152.782 183.818 153.549 182.709 155.275ZM126.553 160.572C127.461 161.377 122.339 168 120.807 168C119.862 168 118.624 168.465 118.056 169.033C116.99 170.099 113.689 169.355 113.689 168.048C113.689 167.642 114.589 166.495 115.689 165.5C116.789 164.505 117.689 163.07 117.689 162.313C117.689 159.852 124.283 158.557 126.553 160.572ZM138.689 173.002C148.288 173.583 158.186 174.856 164.689 176.344L175.189 178.748L179.277 176.374C185.654 172.67 188.024 173.885 183.603 178.591C181.85 180.457 181.706 181.163 182.696 183.013C184.414 186.224 182.743 187.129 178.07 185.519C170.069 182.763 149.097 179.79 134.031 179.278C113.099 178.565 90.0647 181.197 59.9387 187.744C58.0757 188.149 57.6887 187.804 57.6887 185.739C57.6887 184.367 57.0137 182.685 56.1887 182C52.4727 178.916 56.0297 175.683 60.1617 178.39C63.0097 180.256 67.3597 180.461 71.3737 178.918C75.3597 177.385 83.5197 176.03 95.6887 174.879C104.567 174.039 118.617 172.609 122.189 172.182C122.739 172.116 130.164 172.485 138.689 173.002ZM147.253 189.46C171.117 192.647 182.693 196.119 183.512 200.335C183.952 202.598 180.065 202.523 171.169 200.096C143.466 192.537 100.829 192.519 70.3017 200.053C61.1697 202.307 56.6747 202.538 56.7197 200.75C56.8217 196.723 73.8797 191.643 93.1887 189.888C99.7887 189.288 105.377 188.618 105.606 188.398C106.677 187.374 137.518 188.16 147.253 189.46ZM146.332 207.488C160.634 209.023 176.057 212.231 178.371 214.151C179.096 214.752 179.689 216.142 179.689 217.239C179.689 218.895 179.223 219.13 176.939 218.625C154.937 213.762 144.54 212.639 121.689 212.655C100.014 212.671 90.4117 213.642 72.6887 217.612C62.2947 219.94 61.2477 219.912 60.8747 217.29C60.6317 215.586 61.3397 214.755 63.9717 213.655C78.7697 207.472 118.486 204.498 146.332 207.488ZM143.638 221.519C157.543 222.427 177.621 226.609 180.574 229.211C185.882 233.888 185.234 236.09 179.283 233.604C175.241 231.915 163.058 229.993 140.189 227.438C127.254 225.992 123.33 225.93 111.689 226.984C97.9957 228.225 77.6607 231.311 72.1887 232.979C67.4507 234.423 62.4257 234.611 61.9917 233.36C60.9717 230.424 72.2697 225.992 87.1887 223.475C104.9 220.487 119.887 219.968 143.638 221.519ZM65.1237 240.105C64.8197 240.597 64.9347 240.99 65.3797 240.978C65.8247 240.966 75.1887 240.304 86.1887 239.506C118.384 237.172 152.336 237.833 167.189 241.082C175.078 242.808 185.689 247.171 185.689 248.689C185.689 251.035 182.752 251.346 176.643 249.647C155.025 243.637 106.464 242.408 70.1887 246.953C65.7887 247.504 60.9517 248.226 59.4387 248.557C57.1347 249.061 56.6887 248.825 56.6887 247.103C56.6887 245.971 57.7667 244.34 59.0847 243.476C60.4017 242.613 61.7097 241.026 61.9917 239.949C62.3297 238.655 63.0417 238.198 64.0907 238.601C64.9627 238.936 65.4287 239.612 65.1237 240.105ZM81.0407 249.761C81.8917 251.138 79.2597 253.622 74.9387 255.519C65.7617 259.548 69.7777 260.103 103.673 259.496C131.148 259.004 137.553 259.536 134.995 262.094C134.495 262.594 123.534 263.476 110.637 264.053C84.2637 265.232 69.5297 266.984 61.1237 269.938C57.9817 271.043 55.0237 271.707 54.5497 271.414C53.1957 270.577 53.5407 268.368 55.2467 266.952C56.9947 265.501 59.6887 259.582 59.6887 257.192C59.6887 256.332 60.6667 254.587 61.8627 253.314C63.5767 251.49 65.1127 250.997 69.1127 250.985C71.9047 250.976 74.8637 250.533 75.6887 250C77.4907 248.836 80.3887 248.706 81.0407 249.761Z" fill="black"/>
<path fill-rule="evenodd" clip-rule="evenodd" d="M107.689 9.5C107.689 12.737 108.278 14.589 109.788 16.099C111.282 17.593 111.725 18.962 111.325 20.849C111.015 22.307 110.496 25.075 110.171 27C108.992 33.988 108.627 35 107.292 35C106.545 35 105.367 34.317 104.674 33.482C103.981 32.646 102.013 31.36 100.301 30.622C95.8017 28.684 91.6347 27 91.3357 27C91.1927 27 90.9937 31.683 90.8937 37.406C90.7927 43.13 90.2557 49.009 89.6997 50.471C87.7257 55.662 88.2887 56.069 93.9387 53.536C104.686 48.718 108.689 49.542 108.689 56.571C108.689 59.714 108.939 60 111.689 60C116.044 60 115.513 62.165 109.663 68.262C106.898 71.143 103.116 75.762 101.257 78.527C99.3987 81.292 94.2357 87.034 89.7837 91.287C85.3317 95.541 81.6887 99.24 81.6887 99.508C81.6887 99.776 83.1727 102.134 84.9857 104.748C86.7987 107.361 88.9367 110.85 89.7357 112.5C91.7327 116.623 95.4627 122.141 97.5967 124.129C99.0017 125.438 99.5127 128.148 100.049 137.141C100.422 143.388 100.996 149.737 101.325 151.25C102.301 155.742 103.689 154.382 103.689 148.934C103.689 142.432 105.081 139.604 107.613 140.96C110.273 142.383 110.728 144.371 109.11 147.49C108.328 148.996 107.689 150.827 107.689 151.558C107.689 152.289 106.755 153.541 105.612 154.341C104.025 155.453 103.456 157.105 103.196 161.357C103.01 164.416 102.568 167.387 102.214 167.96C101.066 169.817 99.6077 169.065 98.5667 166.08C98.0067 164.474 96.9057 162.913 96.1187 162.612C95.2377 162.273 94.6757 160.612 94.6537 158.281C94.6347 156.202 93.9747 151.575 93.1887 148C92.4027 144.425 91.7427 138.912 91.7237 135.75C91.6877 129.781 90.4317 128.449 87.5097 131.281C86.7837 131.986 84.3887 133.607 82.1887 134.884C79.9887 136.162 77.8287 137.835 77.3887 138.603C76.1827 140.71 73.9127 140.28 73.1237 137.797C72.4247 135.592 70.3357 133 69.2597 133C68.9457 133 68.6887 134.125 68.6887 135.5C68.6887 136.875 68.2507 138 67.7147 138C66.6267 138 63.7057 132.817 63.6577 130.8C63.6397 130.085 62.2217 126.8 60.5047 123.5C58.7887 120.2 56.1347 115.045 54.6077 112.045C51.9247 106.771 51.7987 106.672 50.8167 109.045C50.2577 110.395 48.8337 114.875 47.6527 119C46.4717 123.125 44.8237 128.44 43.9917 130.811C43.1587 133.182 42.6367 135.236 42.8327 135.376C43.0287 135.515 44.6117 136.5 46.3507 137.565C48.0897 138.629 53.3217 143.851 57.9787 149.169C65.2867 157.515 66.7347 159.794 68.5667 165.824C70.8477 173.333 71.1977 176.567 69.8227 177.417C68.4487 178.266 66.1997 174.992 63.6947 168.5C59.7217 158.2 47.1957 143.311 39.4387 139.668C34.9457 137.557 34.8137 136.296 38.0607 126.5C39.3357 122.65 40.9787 117.161 41.7097 114.301L43.0407 109.103L38.2337 104.148C33.9317 99.713 29.3987 93.717 18.8817 78.549C17.0627 75.926 15.3597 73.995 15.0967 74.258C14.8347 74.521 15.1237 76.708 15.7397 79.118C16.3557 81.528 17.1007 94.633 17.3957 108.239L17.9317 132.978L22.8597 138.239C28.2367 143.979 34.6887 153.842 34.6887 156.322C34.6887 157.18 35.1387 158.16 35.6887 158.5C36.2387 158.84 36.6887 160.072 36.6887 161.238C36.6887 166.096 42.4237 181.068 45.5987 184.5C49.1537 188.342 52.6887 194.266 52.6887 196.382C52.6887 197.287 52.2387 198.809 51.6887 199.764C51.1397 200.719 50.2437 202.625 49.6997 204C49.1547 205.375 47.9867 207.494 47.1037 208.709C45.5607 210.834 45.6907 211.123 50.4747 216.209C53.3797 219.298 55.7467 222.878 56.1627 224.811C56.8247 227.889 56.4797 228.499 51.2817 233.454C48.2057 236.386 45.6887 239.27 45.6887 239.862C45.6887 240.875 47.8597 245.098 50.8007 249.808C51.9447 251.64 51.7947 252.173 49.5397 254.262C48.1317 255.567 46.6777 258.243 46.3097 260.209C45.9407 262.174 44.0747 267.766 42.1637 272.634C40.2527 277.503 38.6887 281.774 38.6887 282.126C38.6887 285.021 71.3067 287.122 125.189 287.698C171.917 288.198 174.767 288.124 186.654 286.096C193.51 284.926 199.552 283.537 200.08 283.009C200.694 282.395 200.108 280.146 198.455 276.774C195.299 270.337 193.266 261.821 194.096 258.514C194.601 256.501 194.173 255.785 191.7 254.506C188.031 252.608 187.934 250.718 191.189 244.596C192.564 242.01 193.689 239.469 193.689 238.95C193.689 238.431 192.177 236.317 190.33 234.253C184.706 227.97 184.811 217.709 190.551 212.595C193.179 210.253 193.223 209.289 190.796 207.16C187.888 204.609 187.472 198.876 189.869 194.402C191.709 190.97 191.748 190.516 190.292 189.452C188.09 187.841 188.218 187.404 192.002 183.62C194.126 181.496 196.142 177.828 197.618 173.403C201.943 160.434 208.489 149.103 216.38 140.928L223.689 133.356L223.697 115.428C223.702 105.222 224.354 92.589 225.211 86.098C226.04 79.826 226.425 74.426 226.066 74.098C225.708 73.769 225.209 74.079 224.956 74.787C224.704 75.495 223.491 77.295 222.261 78.787C221.031 80.279 218.189 84.2 215.947 87.5C213.704 90.8 209.129 96.186 205.779 99.469C202.43 102.751 199.689 106.138 199.689 106.994C199.689 107.85 201.06 114.163 202.735 121.024C204.41 127.884 205.553 134.404 205.275 135.513C204.602 138.193 195.111 145.376 193.206 144.645C191.268 143.901 192.234 141.528 195.29 139.526C197.119 138.327 197.505 137.506 196.844 136.216C196.36 135.272 195.692 132.025 195.358 129C194.642 122.505 190.533 107 189.528 107C189.144 107 187.814 109.032 186.574 111.516C184.028 116.613 170.249 135.254 166.349 138.877C163.35 141.662 160.689 141.112 160.689 137.706C160.689 136.409 159.657 134.379 158.395 133.193C156.113 131.05 156.092 131.049 154.405 133.019C152.05 135.769 150.759 135.499 149.539 132C148.964 130.35 148.173 129 147.781 129C147.389 129 145.67 130.368 143.96 132.039C139.075 136.815 138.633 143.591 142.347 156.744C144.789 165.393 141.563 169.751 138.271 162.25C137.366 160.188 135.541 156.455 134.215 153.956C132.89 151.457 131.052 147.195 130.132 144.485C128.472 139.595 128.477 139.548 130.75 138.029C132.01 137.188 135.662 133.985 138.865 130.91C143.3 126.654 144.689 124.639 144.689 122.464C144.689 120.893 145.741 118.008 147.028 116.054C148.314 114.099 151.323 109.414 153.715 105.643L158.063 98.786L153.626 94.544C146.904 88.117 128.422 68.119 126.446 65.134C124.025 61.477 124.221 60.955 127.907 61.246C131.011 61.491 131.162 61.324 132.204 56.5C133.206 51.867 133.521 51.477 136.505 51.185C138.509 50.989 141.808 51.89 145.24 53.569C148.273 55.053 150.912 56.095 151.103 55.884C151.294 55.673 151.015 52.35 150.482 48.5C149.949 44.65 149.687 38.674 149.9 35.22C150.189 30.543 149.974 29.06 149.059 29.411C148.384 29.671 146.112 30.196 144.01 30.58C141.908 30.963 138.892 32.188 137.307 33.3C132.917 36.383 131.139 34.676 131.384 27.613C131.491 24.526 131.184 22 130.701 22C129.002 22 128.489 17.879 129.977 16.178C130.784 15.255 131.752 12.363 132.128 9.75L132.812 5H107.689V9.5ZM125.679 30.488C127.066 32.159 126.674 32.395 120.796 33.417C117.243 34.035 114.689 32.764 114.689 30.378C114.689 28.403 124.027 28.497 125.679 30.488ZM124.24 45.056C125.728 46.7 125.871 47.478 124.958 48.941C124.33 49.947 124.049 51.659 124.333 52.747C125.166 55.931 121.731 56.55 119.257 53.662C118.12 52.333 116.402 50.98 115.439 50.655C112.81 49.766 113.336 46.715 116.441 44.841C120.186 42.581 122.046 42.632 124.24 45.056ZM119.689 77.348C119.689 79.492 94.1507 105.404 92.8377 104.592C92.2057 104.202 91.6887 102.818 91.6887 101.517C91.6887 99.361 100.352 90.555 114.189 78.645C117.502 75.794 119.689 75.278 119.689 77.348ZM129.263 82.632C131.669 85.18 133.881 87.992 134.178 88.882C134.886 91.007 142.446 96.361 145.649 97.008C149.051 97.694 149.49 100.678 146.396 102.087C144.348 103.021 143.308 102.785 139.845 100.598C137.581 99.169 135.382 98 134.959 98C132.281 97.998 120.926 81.044 122.21 78.966C123.317 77.174 124.869 77.981 129.263 82.632ZM182.709 155.275C178.896 161.208 174.732 169.722 174.712 171.628C174.699 172.798 173.965 174.356 173.081 175.09C171.718 176.221 171.272 176.15 170.158 174.626C167.343 170.777 170.646 162.429 178.12 154.504C180.934 151.521 182.015 150.926 182.943 151.854C183.871 152.782 183.818 153.549 182.709 155.275ZM126.553 160.572C127.461 161.377 122.339 168 120.807 168C119.862 168 118.624 168.465 118.056 169.033C116.99 170.099 113.689 169.355 113.689 168.048C113.689 167.642 114.589 166.495 115.689 165.5C116.789 164.505 117.689 163.07 117.689 162.313C117.689 159.852 124.283 158.557 126.553 160.572ZM138.689 173.002C148.288 173.583 158.186 174.856 164.689 176.344L175.189 178.748L179.277 176.374C185.654 172.67 188.024 173.885 183.603 178.591C181.85 180.457 181.706 181.163 182.696 183.013C184.414 186.224 182.743 187.129 178.07 185.519C170.069 182.763 149.097 179.79 134.031 179.278C113.099 178.565 90.0647 181.197 59.9387 187.744C58.0757 188.149 57.6887 187.804 57.6887 185.739C57.6887 184.367 57.0137 182.685 56.1887 182C52.4727 178.916 56.0297 175.683 60.1617 178.39C63.0097 180.256 67.3597 180.461 71.3737 178.918C75.3597 177.385 83.5197 176.03 95.6887 174.879C104.567 174.039 118.617 172.609 122.189 172.182C122.739 172.116 130.164 172.485 138.689 173.002ZM147.253 189.46C171.117 192.647 182.693 196.119 183.512 200.335C183.952 202.598 180.065 202.523 171.169 200.096C143.466 192.537 100.829 192.519 70.3017 200.053C61.1697 202.307 56.6747 202.538 56.7197 200.75C56.8217 196.723 73.8797 191.643 93.1887 189.888C99.7887 189.288 105.377 188.618 105.606 188.398C106.677 187.374 137.518 188.16 147.253 189.46ZM146.332 207.488C160.634 209.023 176.057 212.231 178.371 214.151C179.096 214.752 179.689 216.142 179.689 217.239C179.689 218.895 179.223 219.13 176.939 218.625C154.937 213.762 144.54 212.639 121.689 212.655C100.014 212.671 90.4117 213.642 72.6887 217.612C62.2947 219.94 61.2477 219.912 60.8747 217.29C60.6317 215.586 61.3397 214.755 63.9717 213.655C78.7697 207.472 118.486 204.498 146.332 207.488ZM143.638 221.519C157.543 222.427 177.621 226.609 180.574 229.211C185.882 233.888 185.234 236.09 179.283 233.604C175.241 231.915 163.058 229.993 140.189 227.438C127.254 225.992 123.33 225.93 111.689 226.984C97.9957 228.225 77.6607 231.311 72.1887 232.979C67.4507 234.423 62.4257 234.611 61.9917 233.36C60.9717 230.424 72.2697 225.992 87.1887 223.475C104.9 220.487 119.887 219.968 143.638 221.519ZM65.1237 240.105C64.8197 240.597 64.9347 240.99 65.3797 240.978C65.8247 240.966 75.1887 240.304 86.1887 239.506C118.384 237.172 152.336 237.833 167.189 241.082C175.078 242.808 185.689 247.171 185.689 248.689C185.689 251.035 182.752 251.346 176.643 249.647C155.025 243.637 106.464 242.408 70.1887 246.953C65.7887 247.504 60.9517 248.226 59.4387 248.557C57.1347 249.061 56.6887 248.825 56.6887 247.103C56.6887 245.971 57.7667 244.34 59.0847 243.476C60.4017 242.613 61.7097 241.026 61.9917 239.949C62.3297 238.655 63.0417 238.198 64.0907 238.601C64.9627 238.936 65.4287 239.612 65.1237 240.105ZM81.0407 249.761C81.8917 251.138 79.2597 253.622 74.9387 255.519C65.7617 259.548 69.7777 260.103 103.673 259.496C131.148 259.004 137.553 259.536 134.995 262.094C134.495 262.594 123.534 263.476 110.637 264.053C84.2637 265.232 69.5297 266.984 61.1237 269.938C57.9817 271.043 55.0237 271.707 54.5497 271.414C53.1957 270.577 53.5407 268.368 55.2467 266.952C56.9947 265.501 59.6887 259.582 59.6887 257.192C59.6887 256.332 60.6667 254.587 61.8627 253.314C63.5767 251.49 65.1127 250.997 69.1127 250.985C71.9047 250.976 74.8637 250.533 75.6887 250C77.4907 248.836 80.3887 248.706 81.0407 249.761Z" stroke="black" stroke-width="2" mask="url(#path-1-inside-1_39_21)"/>
</g>
<defs>
<filter id="filter0_d_39_21" x="0" y="0" width="241.2" height="312.957" filterUnits="userSpaceOnUse" color-interpolation-filters="sRGB">
<feFlood flood-opacity="0" result="BackgroundImageFix"/>
<feColorMatrix in="SourceAlpha" type="matrix" values="0 0 0 0 0 0 0 0 0 0 0 0 0 0 0 0 0 0 127 0" result="hardAlpha"/>
<feOffset dy="10"/>
<feGaussianBlur stdDeviation="7.5"/>
<feComposite in2="hardAlpha" operator="out"/>
<feColorMatrix type="matrix" values="0 0 0 0 0.0885503 0 0 0 0 0.561538 0 0 0 0 0.474824 0 0 0 0.25 0"/>
<feBlend mode="normal" in2="BackgroundImageFix" result="effect1_dropShadow_39_21"/>
<feBlend mode="normal" in="SourceGraphic" in2="effect1_dropShadow_39_21" result="shape"/>
</filter>
</defs>
</svg>
