<svg width="148" height="197" viewBox="0 0 148 197" fill="none" xmlns="http://www.w3.org/2000/svg">
<g filter="url(#filter0_d_40_11)">
<mask id="path-1-inside-1_40_11" fill="white">
<path fill-rule="evenodd" clip-rule="evenodd" d="M66.0972 13.8089C61.5592 18.5809 57.8472 23.0219 57.8472 23.6779C57.8472 25.8959 56.2912 24.8879 50.4292 18.8699C47.2152 15.5699 44.1932 12.8699 43.7152 12.8699C43.2362 12.8699 40.7482 15.5699 38.1852 18.8699C35.6232 22.1699 33.3792 24.8699 33.2002 24.8699C33.0212 24.8699 32.1092 23.1829 31.1742 21.1199C29.4792 17.3819 29.4732 17.3789 29.0942 20.1199C28.6242 23.5209 27.4732 23.5739 23.6652 20.3699C20.1862 17.4429 18.5142 17.1619 19.2012 19.6199C20.7712 25.2359 23.9022 40.5619 24.9732 47.8699C25.6582 52.5449 26.5222 56.5949 26.8932 56.8699C27.2642 57.1449 28.3172 58.8319 29.2332 60.6199C30.1492 62.4079 31.2762 63.8699 31.7372 63.8699C32.1982 63.8699 33.3492 65.8949 34.2942 68.3699C35.5052 71.5409 36.5792 72.8699 37.9302 72.8699C40.3032 72.8699 40.3592 74.6709 38.3452 86.2209C37.5192 90.9579 35.7452 102.066 34.4022 110.905C32.4542 123.736 31.3202 128.293 28.7832 133.501C27.0352 137.09 24.9612 140.273 24.1742 140.575C23.1902 140.953 22.9322 141.98 23.3472 143.872C23.7642 145.77 22.8142 149.519 20.2722 155.995C18.2492 161.151 16.1172 165.967 15.5352 166.696C14.7782 167.643 14.8212 168.236 15.6832 168.768C16.3462 169.179 26.3182 170.114 37.8422 170.846C67.6872 172.743 129.837 171.213 132.535 168.515C132.85 168.2 132.176 165.563 131.037 162.656C126.968 152.27 125.275 145.561 126.61 145.116C128.38 144.526 128.136 142.442 126.079 140.58C125.107 139.701 122.439 135.243 120.149 130.675C116.089 122.574 115.923 121.841 113.407 100.87C111.988 89.0449 110.609 78.0899 110.343 76.5249C109.963 74.2919 110.288 73.5669 111.853 73.1579C112.95 72.8709 113.847 71.8049 113.847 70.7889C113.847 69.7719 114.747 68.4589 115.847 67.8699C116.947 67.2809 117.847 66.1089 117.847 65.2649C117.847 64.4209 119.228 61.7239 120.915 59.2709C123.292 55.8169 124.09 53.4089 124.458 48.5909C124.72 45.1549 126.705 37.1379 128.89 30.6839C131.066 24.2559 132.847 18.7429 132.847 18.4339C132.847 17.0409 130.056 18.1999 126.885 20.9109C122.548 24.6179 121.847 24.6119 121.847 20.8699C121.847 19.2199 121.397 17.8699 120.847 17.8699C120.297 17.8699 119.847 19.4449 119.847 21.3699C119.847 25.2439 118.649 25.8539 116.65 22.9989C115.929 21.9699 113.349 18.9679 110.917 16.3299L106.494 11.5319L100.696 17.7009C97.5062 21.0939 94.7202 23.8699 94.5042 23.8699C94.2882 23.8699 89.9192 19.5949 84.7952 14.3699C79.6712 9.14491 75.2242 4.92891 74.9132 5.00091C74.6022 5.07291 70.6352 9.03691 66.0972 13.8089ZM77.0142 16.6369C77.1972 17.0589 79.4962 19.1479 82.1222 21.2779C84.7492 23.4089 86.7142 25.3369 86.4892 25.5619C86.2642 25.7869 83.4922 24.1579 80.3302 21.9429C77.1682 19.7279 74.1962 18.1539 73.7262 18.4449C73.2552 18.7359 73.1382 18.2759 73.4652 17.4219C74.0832 15.8119 76.4302 15.2929 77.0142 16.6369ZM39.1212 27.1199C40.1092 33.6369 42.0922 42.4129 42.9592 44.1059C44.2492 46.6279 44.2022 46.6699 40.0972 46.6719C35.6892 46.6739 34.1002 45.9499 35.9732 44.7919C37.0192 44.1449 36.7472 43.3539 34.7262 41.1669C31.8572 38.0629 30.4002 34.8699 31.8532 34.8699C32.3712 34.8699 33.4942 36.2199 34.3472 37.8699C35.9062 40.8849 38.8472 41.9959 38.8472 39.5699C38.8472 38.8549 37.6152 36.3699 36.1092 34.0479C34.1912 31.0899 32.7762 29.9069 31.3842 30.0969C30.1472 30.2669 29.2652 29.7079 29.0482 28.6169C28.7482 27.1099 29.0702 27.0039 31.3382 27.8669C35.1082 29.2999 35.5572 29.1629 36.2582 26.3699C37.1322 22.8839 38.5342 23.2519 39.1212 27.1199ZM116.546 26.8479C118.468 28.3589 119.507 28.5869 120.954 27.8129C122.837 26.8049 123.793 28.1669 121.986 29.2839C121.513 29.5759 120.369 32.5129 119.444 35.8099C118.519 39.1069 117.255 42.1179 116.635 42.5009C115.859 42.9809 115.752 42.6009 116.293 41.2839C116.725 40.2309 117.497 37.5999 118.009 35.4359C118.763 32.2469 118.646 31.3369 117.388 30.6329C116.534 30.1549 114.601 28.6769 113.091 27.3489C110.783 25.3169 110.64 24.9279 112.189 24.9019C113.203 24.8839 115.163 25.7599 116.546 26.8479ZM116.388 50.4439C118.384 50.8179 119.615 51.5019 119.142 51.9749C117.924 53.1929 30.4572 53.2009 30.0512 51.9829C29.8742 51.4499 30.9932 50.8519 32.5382 50.6539C37.9372 49.9599 112.812 49.7729 116.388 50.4439ZM102.63 60.5269C107.218 60.8839 110.77 61.6009 110.592 62.1349C110.396 62.7229 97.2242 63.1619 76.8092 63.2619C58.4052 63.3529 42.6722 63.6389 41.8472 63.8979C41.0172 64.1589 40.3472 63.7619 40.3472 63.0069C40.3472 61.9689 42.9672 61.5279 51.3472 61.1559C57.3972 60.8879 62.5352 60.4889 62.7642 60.2689C63.4342 59.6269 93.5782 59.8219 102.63 60.5269ZM101.847 65.7369C105.422 66.0849 108.234 66.7709 108.097 67.2599C107.786 68.3659 42.8562 68.2719 42.8222 67.1659C42.8092 66.7279 44.9462 66.1029 47.5722 65.7769C54.0192 64.9769 93.7392 64.9469 101.847 65.7369ZM47.4592 88.9939C46.1632 101.95 45.3582 117.766 45.7472 122.62C45.8872 124.37 47.8472 124.191 47.8472 122.429C47.8472 120.683 49.4872 119.53 50.8092 120.347C51.4112 120.718 51.3402 121.888 50.6212 123.467C49.7362 125.409 48.9502 125.862 47.2202 125.427C45.9822 125.117 44.6902 125.314 44.3492 125.866C42.8452 128.3 42.3382 126.339 42.6042 119.12C42.7612 114.857 43.3122 107.77 43.8282 103.37C44.3442 98.9699 45.0682 90.4199 45.4362 84.3699C46.1452 72.7099 46.4982 71.1209 48.0342 72.6569C48.6492 73.2719 48.4422 79.1549 47.4592 88.9939ZM103.847 77.1269C103.847 78.9179 104.295 81.9459 104.843 83.8559C105.391 85.7659 106.044 91.6129 106.294 96.8489C106.669 104.684 106.595 105.396 105.878 100.87C105.399 97.8449 104.34 92.2199 103.525 88.3699C100.709 75.0579 100.609 73.8699 102.302 73.8699C103.379 73.8699 103.847 74.8559 103.847 77.1269ZM54.0832 84.6199C54.3422 87.5079 54.1692 89.8699 53.7002 89.8699C53.2312 89.8699 52.8402 89.0829 52.8322 88.1199C52.8192 86.6239 52.6752 86.5879 51.8472 87.8699C51.1512 88.9469 50.8732 87.9369 50.8622 84.2869C50.8362 75.6369 53.3012 75.8929 54.0832 84.6199ZM100.553 98.1199C100.314 99.3569 100.119 98.3449 100.119 95.8699C100.119 93.3949 100.314 92.3829 100.553 93.6199C100.791 94.8569 100.791 96.8829 100.553 98.1199ZM53.7292 100.12C53.6642 101.357 53.2672 103.72 52.8472 105.37C52.1942 107.934 52.0662 107.608 51.9652 103.12C51.9002 100.208 52.2922 97.8699 52.8472 97.8699C53.3972 97.8699 53.7942 98.8829 53.7292 100.12ZM108.509 118.12C108.232 118.808 108.005 118.245 108.005 116.87C108.005 115.495 108.232 114.933 108.509 115.62C108.787 116.308 108.787 117.433 108.509 118.12ZM100.847 119.37C100.847 120.195 100.411 120.87 99.8782 120.87C99.3462 120.87 99.1692 120.195 99.4852 119.37C99.8022 118.545 100.238 117.87 100.454 117.87C100.67 117.87 100.847 118.545 100.847 119.37ZM109.509 124.12C109.232 124.808 109.005 124.245 109.005 122.87C109.005 121.495 109.232 120.933 109.509 121.62C109.787 122.308 109.787 123.433 109.509 124.12ZM114.097 133.37C114.26 134.021 100.634 134.461 75.0972 134.632C53.5102 134.775 35.8472 134.513 35.8472 134.048C35.8472 133.584 36.1522 132.898 36.5252 132.525C37.6442 131.406 113.814 132.236 114.097 133.37ZM112.761 138.503C114.501 138.851 115.757 139.638 115.551 140.253C115.284 141.05 103.393 141.388 74.0122 141.432C33.7632 141.493 30.7712 141.279 33.5142 138.537C34.3632 137.687 108.526 137.656 112.761 138.503ZM39.8352 146.62C39.8282 147.032 38.2532 148.387 36.3352 149.629C32.2522 152.274 31.8582 153.87 35.2882 153.87C36.6312 153.87 38.0072 154.32 38.3472 154.87C38.6962 155.435 37.8792 155.87 36.4712 155.87C35.0992 155.87 32.8232 156.309 31.4122 156.845C28.4042 157.989 28.3472 157.693 30.4212 151.608C31.5362 148.335 32.6282 146.866 34.1712 146.566C37.9602 145.828 39.8472 145.846 39.8352 146.62ZM120.736 154.12C121.444 157.558 122.456 160.892 122.984 161.531C123.615 162.294 123.515 162.957 122.69 163.467C121.128 164.432 24.8182 164.631 24.2232 163.67C22.6552 161.133 29.5802 160.827 73.4232 161.497L119 162.193L118.294 155.032C117.415 146.111 118.965 145.532 120.736 154.12Z"/>
</mask>
<path fill-rule="evenodd" clip-rule="evenodd" d="M66.0972 13.8089C61.5592 18.5809 57.8472 23.0219 57.8472 23.6779C57.8472 25.8959 56.2912 24.8879 50.4292 18.8699C47.2152 15.5699 44.1932 12.8699 43.7152 12.8699C43.2362 12.8699 40.7482 15.5699 38.1852 18.8699C35.6232 22.1699 33.3792 24.8699 33.2002 24.8699C33.0212 24.8699 32.1092 23.1829 31.1742 21.1199C29.4792 17.3819 29.4732 17.3789 29.0942 20.1199C28.6242 23.5209 27.4732 23.5739 23.6652 20.3699C20.1862 17.4429 18.5142 17.1619 19.2012 19.6199C20.7712 25.2359 23.9022 40.5619 24.9732 47.8699C25.6582 52.5449 26.5222 56.5949 26.8932 56.8699C27.2642 57.1449 28.3172 58.8319 29.2332 60.6199C30.1492 62.4079 31.2762 63.8699 31.7372 63.8699C32.1982 63.8699 33.3492 65.8949 34.2942 68.3699C35.5052 71.5409 36.5792 72.8699 37.9302 72.8699C40.3032 72.8699 40.3592 74.6709 38.3452 86.2209C37.5192 90.9579 35.7452 102.066 34.4022 110.905C32.4542 123.736 31.3202 128.293 28.7832 133.501C27.0352 137.09 24.9612 140.273 24.1742 140.575C23.1902 140.953 22.9322 141.98 23.3472 143.872C23.7642 145.77 22.8142 149.519 20.2722 155.995C18.2492 161.151 16.1172 165.967 15.5352 166.696C14.7782 167.643 14.8212 168.236 15.6832 168.768C16.3462 169.179 26.3182 170.114 37.8422 170.846C67.6872 172.743 129.837 171.213 132.535 168.515C132.85 168.2 132.176 165.563 131.037 162.656C126.968 152.27 125.275 145.561 126.61 145.116C128.38 144.526 128.136 142.442 126.079 140.58C125.107 139.701 122.439 135.243 120.149 130.675C116.089 122.574 115.923 121.841 113.407 100.87C111.988 89.0449 110.609 78.0899 110.343 76.5249C109.963 74.2919 110.288 73.5669 111.853 73.1579C112.95 72.8709 113.847 71.8049 113.847 70.7889C113.847 69.7719 114.747 68.4589 115.847 67.8699C116.947 67.2809 117.847 66.1089 117.847 65.2649C117.847 64.4209 119.228 61.7239 120.915 59.2709C123.292 55.8169 124.09 53.4089 124.458 48.5909C124.72 45.1549 126.705 37.1379 128.89 30.6839C131.066 24.2559 132.847 18.7429 132.847 18.4339C132.847 17.0409 130.056 18.1999 126.885 20.9109C122.548 24.6179 121.847 24.6119 121.847 20.8699C121.847 19.2199 121.397 17.8699 120.847 17.8699C120.297 17.8699 119.847 19.4449 119.847 21.3699C119.847 25.2439 118.649 25.8539 116.65 22.9989C115.929 21.9699 113.349 18.9679 110.917 16.3299L106.494 11.5319L100.696 17.7009C97.5062 21.0939 94.7202 23.8699 94.5042 23.8699C94.2882 23.8699 89.9192 19.5949 84.7952 14.3699C79.6712 9.14491 75.2242 4.92891 74.9132 5.00091C74.6022 5.07291 70.6352 9.03691 66.0972 13.8089ZM77.0142 16.6369C77.1972 17.0589 79.4962 19.1479 82.1222 21.2779C84.7492 23.4089 86.7142 25.3369 86.4892 25.5619C86.2642 25.7869 83.4922 24.1579 80.3302 21.9429C77.1682 19.7279 74.1962 18.1539 73.7262 18.4449C73.2552 18.7359 73.1382 18.2759 73.4652 17.4219C74.0832 15.8119 76.4302 15.2929 77.0142 16.6369ZM39.1212 27.1199C40.1092 33.6369 42.0922 42.4129 42.9592 44.1059C44.2492 46.6279 44.2022 46.6699 40.0972 46.6719C35.6892 46.6739 34.1002 45.9499 35.9732 44.7919C37.0192 44.1449 36.7472 43.3539 34.7262 41.1669C31.8572 38.0629 30.4002 34.8699 31.8532 34.8699C32.3712 34.8699 33.4942 36.2199 34.3472 37.8699C35.9062 40.8849 38.8472 41.9959 38.8472 39.5699C38.8472 38.8549 37.6152 36.3699 36.1092 34.0479C34.1912 31.0899 32.7762 29.9069 31.3842 30.0969C30.1472 30.2669 29.2652 29.7079 29.0482 28.6169C28.7482 27.1099 29.0702 27.0039 31.3382 27.8669C35.1082 29.2999 35.5572 29.1629 36.2582 26.3699C37.1322 22.8839 38.5342 23.2519 39.1212 27.1199ZM116.546 26.8479C118.468 28.3589 119.507 28.5869 120.954 27.8129C122.837 26.8049 123.793 28.1669 121.986 29.2839C121.513 29.5759 120.369 32.5129 119.444 35.8099C118.519 39.1069 117.255 42.1179 116.635 42.5009C115.859 42.9809 115.752 42.6009 116.293 41.2839C116.725 40.2309 117.497 37.5999 118.009 35.4359C118.763 32.2469 118.646 31.3369 117.388 30.6329C116.534 30.1549 114.601 28.6769 113.091 27.3489C110.783 25.3169 110.64 24.9279 112.189 24.9019C113.203 24.8839 115.163 25.7599 116.546 26.8479ZM116.388 50.4439C118.384 50.8179 119.615 51.5019 119.142 51.9749C117.924 53.1929 30.4572 53.2009 30.0512 51.9829C29.8742 51.4499 30.9932 50.8519 32.5382 50.6539C37.9372 49.9599 112.812 49.7729 116.388 50.4439ZM102.63 60.5269C107.218 60.8839 110.77 61.6009 110.592 62.1349C110.396 62.7229 97.2242 63.1619 76.8092 63.2619C58.4052 63.3529 42.6722 63.6389 41.8472 63.8979C41.0172 64.1589 40.3472 63.7619 40.3472 63.0069C40.3472 61.9689 42.9672 61.5279 51.3472 61.1559C57.3972 60.8879 62.5352 60.4889 62.7642 60.2689C63.4342 59.6269 93.5782 59.8219 102.63 60.5269ZM101.847 65.7369C105.422 66.0849 108.234 66.7709 108.097 67.2599C107.786 68.3659 42.8562 68.2719 42.8222 67.1659C42.8092 66.7279 44.9462 66.1029 47.5722 65.7769C54.0192 64.9769 93.7392 64.9469 101.847 65.7369ZM47.4592 88.9939C46.1632 101.95 45.3582 117.766 45.7472 122.62C45.8872 124.37 47.8472 124.191 47.8472 122.429C47.8472 120.683 49.4872 119.53 50.8092 120.347C51.4112 120.718 51.3402 121.888 50.6212 123.467C49.7362 125.409 48.9502 125.862 47.2202 125.427C45.9822 125.117 44.6902 125.314 44.3492 125.866C42.8452 128.3 42.3382 126.339 42.6042 119.12C42.7612 114.857 43.3122 107.77 43.8282 103.37C44.3442 98.9699 45.0682 90.4199 45.4362 84.3699C46.1452 72.7099 46.4982 71.1209 48.0342 72.6569C48.6492 73.2719 48.4422 79.1549 47.4592 88.9939ZM103.847 77.1269C103.847 78.9179 104.295 81.9459 104.843 83.8559C105.391 85.7659 106.044 91.6129 106.294 96.8489C106.669 104.684 106.595 105.396 105.878 100.87C105.399 97.8449 104.34 92.2199 103.525 88.3699C100.709 75.0579 100.609 73.8699 102.302 73.8699C103.379 73.8699 103.847 74.8559 103.847 77.1269ZM54.0832 84.6199C54.3422 87.5079 54.1692 89.8699 53.7002 89.8699C53.2312 89.8699 52.8402 89.0829 52.8322 88.1199C52.8192 86.6239 52.6752 86.5879 51.8472 87.8699C51.1512 88.9469 50.8732 87.9369 50.8622 84.2869C50.8362 75.6369 53.3012 75.8929 54.0832 84.6199ZM100.553 98.1199C100.314 99.3569 100.119 98.3449 100.119 95.8699C100.119 93.3949 100.314 92.3829 100.553 93.6199C100.791 94.8569 100.791 96.8829 100.553 98.1199ZM53.7292 100.12C53.6642 101.357 53.2672 103.72 52.8472 105.37C52.1942 107.934 52.0662 107.608 51.9652 103.12C51.9002 100.208 52.2922 97.8699 52.8472 97.8699C53.3972 97.8699 53.7942 98.8829 53.7292 100.12ZM108.509 118.12C108.232 118.808 108.005 118.245 108.005 116.87C108.005 115.495 108.232 114.933 108.509 115.62C108.787 116.308 108.787 117.433 108.509 118.12ZM100.847 119.37C100.847 120.195 100.411 120.87 99.8782 120.87C99.3462 120.87 99.1692 120.195 99.4852 119.37C99.8022 118.545 100.238 117.87 100.454 117.87C100.67 117.87 100.847 118.545 100.847 119.37ZM109.509 124.12C109.232 124.808 109.005 124.245 109.005 122.87C109.005 121.495 109.232 120.933 109.509 121.62C109.787 122.308 109.787 123.433 109.509 124.12ZM114.097 133.37C114.26 134.021 100.634 134.461 75.0972 134.632C53.5102 134.775 35.8472 134.513 35.8472 134.048C35.8472 133.584 36.1522 132.898 36.5252 132.525C37.6442 131.406 113.814 132.236 114.097 133.37ZM112.761 138.503C114.501 138.851 115.757 139.638 115.551 140.253C115.284 141.05 103.393 141.388 74.0122 141.432C33.7632 141.493 30.7712 141.279 33.5142 138.537C34.3632 137.687 108.526 137.656 112.761 138.503ZM39.8352 146.62C39.8282 147.032 38.2532 148.387 36.3352 149.629C32.2522 152.274 31.8582 153.87 35.2882 153.87C36.6312 153.87 38.0072 154.32 38.3472 154.87C38.6962 155.435 37.8792 155.87 36.4712 155.87C35.0992 155.87 32.8232 156.309 31.4122 156.845C28.4042 157.989 28.3472 157.693 30.4212 151.608C31.5362 148.335 32.6282 146.866 34.1712 146.566C37.9602 145.828 39.8472 145.846 39.8352 146.62ZM120.736 154.12C121.444 157.558 122.456 160.892 122.984 161.531C123.615 162.294 123.515 162.957 122.69 163.467C121.128 164.432 24.8182 164.631 24.2232 163.67C22.6552 161.133 29.5802 160.827 73.4232 161.497L119 162.193L118.294 155.032C117.415 146.111 118.965 145.532 120.736 154.12Z" fill="black"/>
<path fill-rule="evenodd" clip-rule="evenodd" d="M66.0972 13.8089C61.5592 18.5809 57.8472 23.0219 57.8472 23.6779C57.8472 25.8959 56.2912 24.8879 50.4292 18.8699C47.2152 15.5699 44.1932 12.8699 43.7152 12.8699C43.2362 12.8699 40.7482 15.5699 38.1852 18.8699C35.6232 22.1699 33.3792 24.8699 33.2002 24.8699C33.0212 24.8699 32.1092 23.1829 31.1742 21.1199C29.4792 17.3819 29.4732 17.3789 29.0942 20.1199C28.6242 23.5209 27.4732 23.5739 23.6652 20.3699C20.1862 17.4429 18.5142 17.1619 19.2012 19.6199C20.7712 25.2359 23.9022 40.5619 24.9732 47.8699C25.6582 52.5449 26.5222 56.5949 26.8932 56.8699C27.2642 57.1449 28.3172 58.8319 29.2332 60.6199C30.1492 62.4079 31.2762 63.8699 31.7372 63.8699C32.1982 63.8699 33.3492 65.8949 34.2942 68.3699C35.5052 71.5409 36.5792 72.8699 37.9302 72.8699C40.3032 72.8699 40.3592 74.6709 38.3452 86.2209C37.5192 90.9579 35.7452 102.066 34.4022 110.905C32.4542 123.736 31.3202 128.293 28.7832 133.501C27.0352 137.09 24.9612 140.273 24.1742 140.575C23.1902 140.953 22.9322 141.98 23.3472 143.872C23.7642 145.77 22.8142 149.519 20.2722 155.995C18.2492 161.151 16.1172 165.967 15.5352 166.696C14.7782 167.643 14.8212 168.236 15.6832 168.768C16.3462 169.179 26.3182 170.114 37.8422 170.846C67.6872 172.743 129.837 171.213 132.535 168.515C132.85 168.2 132.176 165.563 131.037 162.656C126.968 152.27 125.275 145.561 126.61 145.116C128.38 144.526 128.136 142.442 126.079 140.58C125.107 139.701 122.439 135.243 120.149 130.675C116.089 122.574 115.923 121.841 113.407 100.87C111.988 89.0449 110.609 78.0899 110.343 76.5249C109.963 74.2919 110.288 73.5669 111.853 73.1579C112.95 72.8709 113.847 71.8049 113.847 70.7889C113.847 69.7719 114.747 68.4589 115.847 67.8699C116.947 67.2809 117.847 66.1089 117.847 65.2649C117.847 64.4209 119.228 61.7239 120.915 59.2709C123.292 55.8169 124.09 53.4089 124.458 48.5909C124.72 45.1549 126.705 37.1379 128.89 30.6839C131.066 24.2559 132.847 18.7429 132.847 18.4339C132.847 17.0409 130.056 18.1999 126.885 20.9109C122.548 24.6179 121.847 24.6119 121.847 20.8699C121.847 19.2199 121.397 17.8699 120.847 17.8699C120.297 17.8699 119.847 19.4449 119.847 21.3699C119.847 25.2439 118.649 25.8539 116.65 22.9989C115.929 21.9699 113.349 18.9679 110.917 16.3299L106.494 11.5319L100.696 17.7009C97.5062 21.0939 94.7202 23.8699 94.5042 23.8699C94.2882 23.8699 89.9192 19.5949 84.7952 14.3699C79.6712 9.14491 75.2242 4.92891 74.9132 5.00091C74.6022 5.07291 70.6352 9.03691 66.0972 13.8089ZM77.0142 16.6369C77.1972 17.0589 79.4962 19.1479 82.1222 21.2779C84.7492 23.4089 86.7142 25.3369 86.4892 25.5619C86.2642 25.7869 83.4922 24.1579 80.3302 21.9429C77.1682 19.7279 74.1962 18.1539 73.7262 18.4449C73.2552 18.7359 73.1382 18.2759 73.4652 17.4219C74.0832 15.8119 76.4302 15.2929 77.0142 16.6369ZM39.1212 27.1199C40.1092 33.6369 42.0922 42.4129 42.9592 44.1059C44.2492 46.6279 44.2022 46.6699 40.0972 46.6719C35.6892 46.6739 34.1002 45.9499 35.9732 44.7919C37.0192 44.1449 36.7472 43.3539 34.7262 41.1669C31.8572 38.0629 30.4002 34.8699 31.8532 34.8699C32.3712 34.8699 33.4942 36.2199 34.3472 37.8699C35.9062 40.8849 38.8472 41.9959 38.8472 39.5699C38.8472 38.8549 37.6152 36.3699 36.1092 34.0479C34.1912 31.0899 32.7762 29.9069 31.3842 30.0969C30.1472 30.2669 29.2652 29.7079 29.0482 28.6169C28.7482 27.1099 29.0702 27.0039 31.3382 27.8669C35.1082 29.2999 35.5572 29.1629 36.2582 26.3699C37.1322 22.8839 38.5342 23.2519 39.1212 27.1199ZM116.546 26.8479C118.468 28.3589 119.507 28.5869 120.954 27.8129C122.837 26.8049 123.793 28.1669 121.986 29.2839C121.513 29.5759 120.369 32.5129 119.444 35.8099C118.519 39.1069 117.255 42.1179 116.635 42.5009C115.859 42.9809 115.752 42.6009 116.293 41.2839C116.725 40.2309 117.497 37.5999 118.009 35.4359C118.763 32.2469 118.646 31.3369 117.388 30.6329C116.534 30.1549 114.601 28.6769 113.091 27.3489C110.783 25.3169 110.64 24.9279 112.189 24.9019C113.203 24.8839 115.163 25.7599 116.546 26.8479ZM116.388 50.4439C118.384 50.8179 119.615 51.5019 119.142 51.9749C117.924 53.1929 30.4572 53.2009 30.0512 51.9829C29.8742 51.4499 30.9932 50.8519 32.5382 50.6539C37.9372 49.9599 112.812 49.7729 116.388 50.4439ZM102.63 60.5269C107.218 60.8839 110.77 61.6009 110.592 62.1349C110.396 62.7229 97.2242 63.1619 76.8092 63.2619C58.4052 63.3529 42.6722 63.6389 41.8472 63.8979C41.0172 64.1589 40.3472 63.7619 40.3472 63.0069C40.3472 61.9689 42.9672 61.5279 51.3472 61.1559C57.3972 60.8879 62.5352 60.4889 62.7642 60.2689C63.4342 59.6269 93.5782 59.8219 102.63 60.5269ZM101.847 65.7369C105.422 66.0849 108.234 66.7709 108.097 67.2599C107.786 68.3659 42.8562 68.2719 42.8222 67.1659C42.8092 66.7279 44.9462 66.1029 47.5722 65.7769C54.0192 64.9769 93.7392 64.9469 101.847 65.7369ZM47.4592 88.9939C46.1632 101.95 45.3582 117.766 45.7472 122.62C45.8872 124.37 47.8472 124.191 47.8472 122.429C47.8472 120.683 49.4872 119.53 50.8092 120.347C51.4112 120.718 51.3402 121.888 50.6212 123.467C49.7362 125.409 48.9502 125.862 47.2202 125.427C45.9822 125.117 44.6902 125.314 44.3492 125.866C42.8452 128.3 42.3382 126.339 42.6042 119.12C42.7612 114.857 43.3122 107.77 43.8282 103.37C44.3442 98.9699 45.0682 90.4199 45.4362 84.3699C46.1452 72.7099 46.4982 71.1209 48.0342 72.6569C48.6492 73.2719 48.4422 79.1549 47.4592 88.9939ZM103.847 77.1269C103.847 78.9179 104.295 81.9459 104.843 83.8559C105.391 85.7659 106.044 91.6129 106.294 96.8489C106.669 104.684 106.595 105.396 105.878 100.87C105.399 97.8449 104.34 92.2199 103.525 88.3699C100.709 75.0579 100.609 73.8699 102.302 73.8699C103.379 73.8699 103.847 74.8559 103.847 77.1269ZM54.0832 84.6199C54.3422 87.5079 54.1692 89.8699 53.7002 89.8699C53.2312 89.8699 52.8402 89.0829 52.8322 88.1199C52.8192 86.6239 52.6752 86.5879 51.8472 87.8699C51.1512 88.9469 50.8732 87.9369 50.8622 84.2869C50.8362 75.6369 53.3012 75.8929 54.0832 84.6199ZM100.553 98.1199C100.314 99.3569 100.119 98.3449 100.119 95.8699C100.119 93.3949 100.314 92.3829 100.553 93.6199C100.791 94.8569 100.791 96.8829 100.553 98.1199ZM53.7292 100.12C53.6642 101.357 53.2672 103.72 52.8472 105.37C52.1942 107.934 52.0662 107.608 51.9652 103.12C51.9002 100.208 52.2922 97.8699 52.8472 97.8699C53.3972 97.8699 53.7942 98.8829 53.7292 100.12ZM108.509 118.12C108.232 118.808 108.005 118.245 108.005 116.87C108.005 115.495 108.232 114.933 108.509 115.62C108.787 116.308 108.787 117.433 108.509 118.12ZM100.847 119.37C100.847 120.195 100.411 120.87 99.8782 120.87C99.3462 120.87 99.1692 120.195 99.4852 119.37C99.8022 118.545 100.238 117.87 100.454 117.87C100.67 117.87 100.847 118.545 100.847 119.37ZM109.509 124.12C109.232 124.808 109.005 124.245 109.005 122.87C109.005 121.495 109.232 120.933 109.509 121.62C109.787 122.308 109.787 123.433 109.509 124.12ZM114.097 133.37C114.26 134.021 100.634 134.461 75.0972 134.632C53.5102 134.775 35.8472 134.513 35.8472 134.048C35.8472 133.584 36.1522 132.898 36.5252 132.525C37.6442 131.406 113.814 132.236 114.097 133.37ZM112.761 138.503C114.501 138.851 115.757 139.638 115.551 140.253C115.284 141.05 103.393 141.388 74.0122 141.432C33.7632 141.493 30.7712 141.279 33.5142 138.537C34.3632 137.687 108.526 137.656 112.761 138.503ZM39.8352 146.62C39.8282 147.032 38.2532 148.387 36.3352 149.629C32.2522 152.274 31.8582 153.87 35.2882 153.87C36.6312 153.87 38.0072 154.32 38.3472 154.87C38.6962 155.435 37.8792 155.87 36.4712 155.87C35.0992 155.87 32.8232 156.309 31.4122 156.845C28.4042 157.989 28.3472 157.693 30.4212 151.608C31.5362 148.335 32.6282 146.866 34.1712 146.566C37.9602 145.828 39.8472 145.846 39.8352 146.62ZM120.736 154.12C121.444 157.558 122.456 160.892 122.984 161.531C123.615 162.294 123.515 162.957 122.69 163.467C121.128 164.432 24.8182 164.631 24.2232 163.67C22.6552 161.133 29.5802 160.827 73.4232 161.497L119 162.193L118.294 155.032C117.415 146.111 118.965 145.532 120.736 154.12Z" stroke="black" stroke-width="2" mask="url(#path-1-inside-1_40_11)"/>
</g>
<defs>
<filter id="filter0_d_40_11" x="0" y="0" width="147.847" height="196.689" filterUnits="userSpaceOnUse" color-interpolation-filters="sRGB">
<feFlood flood-opacity="0" result="BackgroundImageFix"/>
<feColorMatrix in="SourceAlpha" type="matrix" values="0 0 0 0 0 0 0 0 0 0 0 0 0 0 0 0 0 0 127 0" result="hardAlpha"/>
<feOffset dy="10"/>
<feGaussianBlur stdDeviation="7.5"/>
<feComposite in2="hardAlpha" operator="out"/>
<feColorMatrix type="matrix" values="0 0 0 0 0.0901961 0 0 0 0 0.560784 0 0 0 0 0.47451 0 0 0 0.25 0"/>
<feBlend mode="normal" in2="BackgroundImageFix" result="effect1_dropShadow_40_11"/>
<feBlend mode="normal" in="SourceGraphic" in2="effect1_dropShadow_40_11" result="shape"/>
</filter>
</defs>
</svg>
