<svg width="161" height="199" viewBox="0 0 161 199" fill="none" xmlns="http://www.w3.org/2000/svg">
<g filter="url(#filter0_d_39_29)">
<mask id="path-1-inside-1_39_29" fill="white">
<path fill-rule="evenodd" clip-rule="evenodd" d="M54.8397 17.198C55.2487 25.896 55.8367 29.864 56.8887 31.027C58.8857 33.233 58.9417 36.723 56.9537 35.074C55.9887 34.273 55.3377 34.235 54.8947 34.951C53.5897 37.064 52.7767 35.911 53.1737 32.51C53.4747 29.931 53.1507 28.855 51.9297 28.387C49.6727 27.52 49.5117 27.799 47.9447 35.289C47.1157 39.25 45.4857 43.285 43.8477 45.433C42.3517 47.395 41.6577 49 42.3047 49C42.9527 49 43.1997 49.457 42.8547 50.016C42.5087 50.575 41.7877 50.762 41.2517 50.43C39.5437 49.374 37.3647 52.137 37.3547 55.372C37.3497 57.093 36.2927 60.75 35.0067 63.5C31.8637 70.221 22.1917 84.901 18.8647 88C17.3887 89.375 15.7737 91.255 15.2757 92.178C14.2147 94.147 16.3937 106.741 18.7887 112.471C20.2517 115.974 20.5977 116.203 23.5287 115.617C25.6827 115.186 27.2237 115.467 28.3637 116.499C29.8777 117.87 30.1457 117.775 31.1797 115.507C32.5467 112.506 35.3647 112.165 35.3647 115C35.3647 117.736 36.9837 117.511 38.9567 114.5C39.8577 113.125 41.1397 112 41.8067 112C42.5637 112 42.8647 110.954 42.6097 109.215C42.2997 107.105 43.0257 105.53 45.6037 102.715C47.4757 100.672 49.4817 99 50.0637 99C50.6447 99 51.6377 98.376 52.2707 97.613C52.9037 96.85 56.4427 95.905 60.1427 95.511C63.8397 95.116 67.6907 94.354 68.7007 93.816C71.8797 92.122 71.6437 93.683 68.1187 97.661C66.2487 99.772 61.8537 105.325 58.3537 110C54.8527 114.675 50.0607 120.784 47.7037 123.577C43.3657 128.715 41.3357 133.672 33.6037 158C30.3227 168.322 30.1707 174.74 33.2367 173.419C34.1327 173.034 37.1147 172.73 39.8647 172.743C42.6147 172.757 60.3897 172.296 79.3647 171.719C104.494 170.954 115.893 170.972 121.331 171.785C125.438 172.399 128.911 172.787 129.05 172.649C129.188 172.51 128.419 169.495 127.341 165.948C124.991 158.22 124.986 159.035 127.405 156.131L129.379 153.761L135.404 156.015C138.719 157.254 141.669 158.03 141.96 157.738C142.252 157.446 139.987 153.719 136.928 149.455C132.007 142.597 131.365 141.141 131.365 136.851C131.365 132.245 132.663 130.632 134.717 132.685C135.697 133.666 142.554 135.967 144.547 135.985C145.889 135.997 145.528 134.957 142.761 130.845C140.853 128.009 137.508 123.56 135.328 120.956C131.248 116.083 130.227 113.349 132.865 114.362C134.768 115.092 134.781 113.932 132.897 111.441C130.845 108.728 131.016 107.743 133.324 108.978C134.402 109.555 135.64 109.928 136.074 109.808C136.509 109.687 138.305 110.356 140.065 111.294C146.276 114.604 145.922 113.193 137.811 102.314C133.374 96.364 131.419 92.901 131.759 91.6C132.036 90.542 131.82 88.849 131.278 87.838C129.969 85.391 131.596 85.493 133.865 88C135.997 90.356 137.543 90.629 136.728 88.505C136.22 87.179 136.478 87.178 139.01 88.499C140.58 89.318 142.482 89.99 143.237 89.994C145.007 90.002 144.208 88.866 134.475 77.531C127.686 69.625 127.23 68.819 128.866 67.623C130.017 66.782 132.421 66.491 135.66 66.802L140.673 67.284L138.788 64.785C137.751 63.411 135.113 60.984 132.925 59.393C126.577 54.775 119.365 47.846 119.365 46.363C119.365 45.359 120.997 45 125.561 45H131.757L126.915 41.75C117.695 35.561 114.853 34.077 109.993 32.911C106.683 32.117 104.952 31.137 104.621 29.87C104.352 28.841 103.564 28 102.871 28C102.177 28 101.115 27.404 100.511 26.676C99.0637 24.933 100.933 23 104.065 23C105.33 23 106.365 22.55 106.365 22C106.365 21.001 104.829 20.786 96.3647 20.599C92.7277 20.519 91.9187 20.176 92.1447 18.811C92.3847 17.36 91.9637 17.255 89.1507 18.061C87.3507 18.578 85.5097 19 85.0607 19C84.6117 19 84.5537 15.85 84.9337 12C85.4207 7.059 85.2907 5 84.4937 5C83.8727 5 83.3647 5.494 83.3647 6.097C83.3647 7.553 70.3437 21.004 68.9507 20.987C68.3537 20.98 66.9647 19.685 65.8647 18.11C61.8847 12.41 55.8467 5.113 55.0657 5.057C54.6257 5.026 54.5247 10.489 54.8397 17.198ZM64.3297 25.095C64.3487 25.972 63.3887 27.547 62.1947 28.595C60.1457 30.395 60.0627 30.399 60.6947 28.668C61.0637 27.661 61.3807 24.961 61.3997 22.668C61.4347 18.551 61.4527 18.53 62.8647 21C63.6507 22.375 64.3097 24.218 64.3297 25.095ZM73.7027 27.319C70.9707 35.286 69.9827 36.471 69.0487 32.899C68.7457 31.743 68.0197 31.095 67.4317 31.458C66.8447 31.821 66.3647 31.872 66.3647 31.57C66.3647 30.656 75.5627 18.864 75.9637 19.265C76.1687 19.471 75.1517 23.095 73.7027 27.319ZM90.8407 26.25C91.5747 26.938 95.6127 29.968 99.8147 32.985C104.017 36.002 107.013 38.617 106.473 38.797C105.932 38.978 106.249 39.929 107.178 40.912C116.39 50.664 116.498 50.823 114.381 51.495C111.746 52.331 108.365 51.224 108.365 49.526C108.365 48.655 109.151 48.363 110.615 48.692C112.462 49.106 112.328 48.851 109.865 47.265C108.215 46.203 105.391 43.571 103.589 41.417C98.1627 34.929 97.0757 33.927 91.7247 30.478C88.8977 28.657 86.2837 26.679 85.9157 26.083C84.9737 24.559 89.1897 24.702 90.8407 26.25ZM64.6887 33.75C64.9307 34.163 64.7017 35.625 64.1787 37C63.2717 39.382 63.1617 39.412 61.8567 37.642C60.7927 36.2 60.7527 35.482 61.6757 34.43C63.0287 32.889 64.0457 32.659 64.6887 33.75ZM56.3647 40C56.3647 40.55 55.8877 41 55.3057 41C54.7237 41 54.5247 40.55 54.8647 40C55.2047 39.45 55.6807 39 55.9237 39C56.1667 39 56.3647 39.45 56.3647 40ZM70.3647 42.98C70.3647 43.518 68.5827 44.868 66.4057 45.979C61.5877 48.437 57.3647 52.816 57.3647 55.355C57.3647 57.118 57.5117 57.134 59.8297 55.615C62.8507 53.636 63.3647 53.607 63.3647 55.416C63.3647 56.984 56.2567 63 54.4037 63C53.7577 63 53.4587 62.212 53.7387 61.25C54.2387 59.531 54.6787 54.342 54.4707 52.628C54.2977 51.205 51.2297 54.224 50.2627 56.769C49.1217 59.77 47.0017 58.583 47.8027 55.391C48.5167 52.546 46.7177 52.167 44.7567 54.75C43.5777 56.303 43.4247 56.317 43.3967 54.872C43.3787 53.977 44.0127 52.707 44.8047 52.05C45.5967 51.393 46.3837 49.91 46.5547 48.756C46.9447 46.117 49.3597 45.186 49.3797 47.667C49.4037 50.503 50.9497 52.375 52.4857 51.425C53.2247 50.969 54.5847 50.539 55.5077 50.471C56.4307 50.403 58.2387 49.579 59.5247 48.641C67.4297 42.874 68.7437 42 69.5127 42C69.9817 42 70.3647 42.441 70.3647 42.98ZM88.3647 53C88.3647 53.55 87.9147 54 87.3647 54C86.8147 54 86.3647 53.55 86.3647 53C86.3647 52.45 86.8147 52 87.3647 52C87.9147 52 88.3647 52.45 88.3647 53ZM117.412 56.097C117.765 56.869 118.623 58.584 119.317 59.909C121.251 63.597 124.255 75.171 124.158 78.562C124.111 80.225 124.52 82.466 125.066 83.542C126.822 87 124.872 111.19 121.764 124.5C118.284 139.403 117.754 155.893 120.615 160.259C122.536 163.191 122.854 164.42 121.47 163.565C120.977 163.26 120.339 163.626 120.05 164.378C119.652 165.416 117.884 165.63 112.695 165.269C106.569 164.842 64.9237 168.138 57.3817 169.647C55.7227 169.978 54.3647 169.849 54.3647 169.358C54.3647 167.47 90.5897 162.821 103.865 163.005C108.815 163.073 113.765 162.91 114.865 162.641C115.965 162.373 117.16 162.119 117.521 162.077C118.572 161.954 117.281 158.176 115.757 156.91C114.173 155.596 113.841 153.558 115.365 154.5C116.669 155.306 116.645 153.391 115.319 150.914C114.603 149.576 114.58 145.739 115.248 138.73C116.144 129.325 116.067 128.282 114.294 125.79C111.817 122.312 111.841 120.793 114.326 123.771C116.808 126.748 117.887 124.91 115.906 121.079C114.06 117.51 113.92 116.155 115.565 117.8C117.245 119.48 118.133 119.303 119.342 117.044C120.148 115.537 119.938 114.346 118.429 111.864C115.756 107.47 116.979 106.089 119.962 110.132L122.365 113.389L122.35 108.944C122.34 106.006 122.037 104.969 121.457 105.885C120.747 107.007 120.408 106.912 119.674 105.385C118.508 102.959 118.91 95.666 120.505 90.294C121.576 86.688 121.53 85.832 120.182 84.294C118.07 81.886 117.259 76 119.038 76C120.961 76 120.687 74.753 117.845 70.566C115.401 66.964 115.39 66.873 117.47 67.533C119.911 68.308 119.494 67.083 115.992 63.197C114.426 61.459 114.225 60.705 115.171 60.12C116.124 59.531 115.938 58.727 114.395 56.765C113.278 55.346 112.365 53.933 112.365 53.624C112.365 52.546 116.775 54.707 117.412 56.097ZM44.3647 58.656C44.3647 59.566 43.3427 61.704 42.0947 63.406C40.8457 65.108 39.1667 67.85 38.3627 69.5C36.0407 74.269 32.1797 80.278 29.6157 83.114L27.2517 85.727L30.3087 88.299C33.8187 91.253 34.0647 92.365 31.6107 94.193C29.5477 95.73 24.6987 102.991 23.3277 106.598C21.9397 110.249 20.6987 108.804 20.0407 102.768C19.7247 99.871 19.1717 96.292 18.8117 94.815C18.2427 92.484 18.6937 91.757 22.2227 89.315C24.4587 87.767 26.3057 86.131 26.3267 85.679C26.3477 85.228 28.2767 82.078 30.6147 78.679C36.6187 69.95 37.0757 69.174 40.0047 62.75C42.5877 57.084 44.3647 55.415 44.3647 58.656ZM84.9137 62.661C83.9657 66.437 83.0427 64.729 83.9197 60.822C84.3297 58.995 84.8667 58.082 85.1127 58.793C85.3587 59.504 85.2687 61.245 84.9137 62.661ZM92.5147 61C93.0897 62.65 94.1467 64 94.8637 64C97.2697 64 96.2657 71.185 93.3277 75C91.8447 76.925 90.3477 79.4 90.0007 80.5C89.6537 81.6 88.1217 83.85 86.5967 85.5C82.3557 90.087 79.3647 94.154 79.3647 95.333C79.3647 96.723 91.8137 84.12 91.9077 82.635C92.0407 80.52 93.5127 78.157 95.0677 77.56C96.4287 77.038 96.4187 77.268 94.9907 79.448C94.0967 80.813 93.3647 82.611 93.3647 83.444C93.3647 84.277 91.3397 86.825 88.8647 89.107C86.3897 91.388 84.3647 93.842 84.3647 94.559C84.3647 95.277 82.9727 96.855 81.2727 98.066C79.1937 99.546 78.5687 100.508 79.3667 101.001C80.5217 101.715 78.3877 103.49 69.3797 109.309C67.4627 110.547 65.3777 112.596 64.7467 113.862C64.1157 115.127 62.1147 117.695 60.2997 119.567C55.5577 124.459 57.4477 124.964 63.8907 120.526C66.9307 118.433 69.6517 116.953 69.9367 117.239C70.3797 117.682 67.1267 120.46 57.9317 127.489C56.8687 128.302 56.3107 129.279 56.6917 129.661C57.0737 130.042 58.0417 129.487 58.8437 128.427C59.6447 127.367 60.3157 127.026 60.3327 127.669C60.3507 128.312 58.8477 130.268 56.9937 132.017C52.2167 136.523 50.1747 143.893 50.2947 156.196C50.3197 158.779 49.9467 161.929 49.4647 163.196C48.6517 165.339 48.5517 165.256 48.0317 162C46.5507 152.724 46.5377 151.101 47.9377 149.939C49.7577 148.429 49.7707 147 47.9647 147C46.2187 147 44.1387 155.214 44.3767 161.17C44.6277 167.449 44.5137 168 42.9587 168C42.0657 168 41.7347 167.301 42.0527 166.086C42.3867 164.807 41.8227 163.78 40.3527 162.993C38.6107 162.061 38.2707 161.219 38.7237 158.954C39.7167 153.989 49.4257 130.194 50.9867 128.899C51.8087 128.217 53.1437 126.071 53.9557 124.129C55.1807 121.197 60.5067 114.49 69.3137 104.792C74.4437 99.142 93.3477 70.207 93.3507 68C93.3517 67.175 92.6797 65.211 91.8587 63.636C90.3537 60.751 89.8947 58 90.9167 58C91.2207 58 91.9397 59.35 92.5147 61ZM50.3647 64.618C50.3647 64.958 48.9477 66.85 47.2157 68.822C45.4837 70.795 42.9297 74.892 41.5407 77.928C40.1507 80.963 38.8237 82.877 38.5917 82.182C38.2027 81.015 41.6537 73.184 44.6107 68.523C46.6667 65.282 50.3647 62.772 50.3647 64.618ZM92.3647 67.492C92.3647 67.763 91.4827 69.001 90.4047 70.242C89.3267 71.484 87.7507 73.4 86.9027 74.5L85.3597 76.5L86.0447 74.5C87.3897 70.572 92.3647 65.056 92.3647 67.492ZM78.4167 83.75C75.8957 88.082 74.0367 89.36 67.6887 91.12C63.9597 92.154 59.7737 92.994 58.3867 92.986C56.2037 92.974 56.4027 92.718 59.8647 91.083C62.0647 90.043 66.7897 87.969 70.3647 86.473C73.9397 84.976 77.2917 83.358 77.8147 82.876C79.2997 81.507 79.5287 81.84 78.4167 83.75ZM22.1887 91.75C20.5997 93.621 20.7967 103 22.4257 103C22.8977 103 23.8287 101.184 24.4937 98.964C25.2117 96.569 25.9957 95.403 26.4247 96.096C26.8987 96.863 27.3787 96.531 27.8237 95.129C28.2497 93.787 27.9457 92.438 27.0047 91.497C25.0607 89.553 24.0067 89.609 22.1887 91.75ZM29.0787 109.714C28.1627 110.631 27.1547 111.124 26.8407 110.81C26.5267 110.495 27.0197 109.488 27.9357 108.571C28.8527 107.655 29.8597 107.162 30.1747 107.476C30.4887 107.79 29.9957 108.798 29.0787 109.714ZM67.8647 114C67.5247 114.55 66.7107 114.993 66.0557 114.985C65.3397 114.975 65.4637 114.582 66.3647 114C68.2857 112.758 68.6317 112.758 67.8647 114ZM112.418 130.639C113.476 133.422 112.932 135.01 111.461 133.433C110.982 132.92 110.284 131.488 109.91 130.25C108.939 127.038 111.181 127.385 112.418 130.639ZM130.365 134.309C130.365 135.835 127.437 139.988 127.41 138.5C127.4 137.95 127.664 136.488 127.995 135.25C128.643 132.833 130.365 132.149 130.365 134.309ZM105.365 141.441C105.365 142.942 103.57 144.538 102.775 143.743C102.077 143.046 103.458 140 104.472 140C104.963 140 105.365 140.648 105.365 141.441ZM115.865 160C116.205 160.55 116.006 161 115.424 161C114.842 161 114.365 160.55 114.365 160C114.365 159.45 114.563 159 114.806 159C115.049 159 115.525 159.45 115.865 160Z"/>
</mask>
<path fill-rule="evenodd" clip-rule="evenodd" d="M54.8397 17.198C55.2487 25.896 55.8367 29.864 56.8887 31.027C58.8857 33.233 58.9417 36.723 56.9537 35.074C55.9887 34.273 55.3377 34.235 54.8947 34.951C53.5897 37.064 52.7767 35.911 53.1737 32.51C53.4747 29.931 53.1507 28.855 51.9297 28.387C49.6727 27.52 49.5117 27.799 47.9447 35.289C47.1157 39.25 45.4857 43.285 43.8477 45.433C42.3517 47.395 41.6577 49 42.3047 49C42.9527 49 43.1997 49.457 42.8547 50.016C42.5087 50.575 41.7877 50.762 41.2517 50.43C39.5437 49.374 37.3647 52.137 37.3547 55.372C37.3497 57.093 36.2927 60.75 35.0067 63.5C31.8637 70.221 22.1917 84.901 18.8647 88C17.3887 89.375 15.7737 91.255 15.2757 92.178C14.2147 94.147 16.3937 106.741 18.7887 112.471C20.2517 115.974 20.5977 116.203 23.5287 115.617C25.6827 115.186 27.2237 115.467 28.3637 116.499C29.8777 117.87 30.1457 117.775 31.1797 115.507C32.5467 112.506 35.3647 112.165 35.3647 115C35.3647 117.736 36.9837 117.511 38.9567 114.5C39.8577 113.125 41.1397 112 41.8067 112C42.5637 112 42.8647 110.954 42.6097 109.215C42.2997 107.105 43.0257 105.53 45.6037 102.715C47.4757 100.672 49.4817 99 50.0637 99C50.6447 99 51.6377 98.376 52.2707 97.613C52.9037 96.85 56.4427 95.905 60.1427 95.511C63.8397 95.116 67.6907 94.354 68.7007 93.816C71.8797 92.122 71.6437 93.683 68.1187 97.661C66.2487 99.772 61.8537 105.325 58.3537 110C54.8527 114.675 50.0607 120.784 47.7037 123.577C43.3657 128.715 41.3357 133.672 33.6037 158C30.3227 168.322 30.1707 174.74 33.2367 173.419C34.1327 173.034 37.1147 172.73 39.8647 172.743C42.6147 172.757 60.3897 172.296 79.3647 171.719C104.494 170.954 115.893 170.972 121.331 171.785C125.438 172.399 128.911 172.787 129.05 172.649C129.188 172.51 128.419 169.495 127.341 165.948C124.991 158.22 124.986 159.035 127.405 156.131L129.379 153.761L135.404 156.015C138.719 157.254 141.669 158.03 141.96 157.738C142.252 157.446 139.987 153.719 136.928 149.455C132.007 142.597 131.365 141.141 131.365 136.851C131.365 132.245 132.663 130.632 134.717 132.685C135.697 133.666 142.554 135.967 144.547 135.985C145.889 135.997 145.528 134.957 142.761 130.845C140.853 128.009 137.508 123.56 135.328 120.956C131.248 116.083 130.227 113.349 132.865 114.362C134.768 115.092 134.781 113.932 132.897 111.441C130.845 108.728 131.016 107.743 133.324 108.978C134.402 109.555 135.64 109.928 136.074 109.808C136.509 109.687 138.305 110.356 140.065 111.294C146.276 114.604 145.922 113.193 137.811 102.314C133.374 96.364 131.419 92.901 131.759 91.6C132.036 90.542 131.82 88.849 131.278 87.838C129.969 85.391 131.596 85.493 133.865 88C135.997 90.356 137.543 90.629 136.728 88.505C136.22 87.179 136.478 87.178 139.01 88.499C140.58 89.318 142.482 89.99 143.237 89.994C145.007 90.002 144.208 88.866 134.475 77.531C127.686 69.625 127.23 68.819 128.866 67.623C130.017 66.782 132.421 66.491 135.66 66.802L140.673 67.284L138.788 64.785C137.751 63.411 135.113 60.984 132.925 59.393C126.577 54.775 119.365 47.846 119.365 46.363C119.365 45.359 120.997 45 125.561 45H131.757L126.915 41.75C117.695 35.561 114.853 34.077 109.993 32.911C106.683 32.117 104.952 31.137 104.621 29.87C104.352 28.841 103.564 28 102.871 28C102.177 28 101.115 27.404 100.511 26.676C99.0637 24.933 100.933 23 104.065 23C105.33 23 106.365 22.55 106.365 22C106.365 21.001 104.829 20.786 96.3647 20.599C92.7277 20.519 91.9187 20.176 92.1447 18.811C92.3847 17.36 91.9637 17.255 89.1507 18.061C87.3507 18.578 85.5097 19 85.0607 19C84.6117 19 84.5537 15.85 84.9337 12C85.4207 7.059 85.2907 5 84.4937 5C83.8727 5 83.3647 5.494 83.3647 6.097C83.3647 7.553 70.3437 21.004 68.9507 20.987C68.3537 20.98 66.9647 19.685 65.8647 18.11C61.8847 12.41 55.8467 5.113 55.0657 5.057C54.6257 5.026 54.5247 10.489 54.8397 17.198ZM64.3297 25.095C64.3487 25.972 63.3887 27.547 62.1947 28.595C60.1457 30.395 60.0627 30.399 60.6947 28.668C61.0637 27.661 61.3807 24.961 61.3997 22.668C61.4347 18.551 61.4527 18.53 62.8647 21C63.6507 22.375 64.3097 24.218 64.3297 25.095ZM73.7027 27.319C70.9707 35.286 69.9827 36.471 69.0487 32.899C68.7457 31.743 68.0197 31.095 67.4317 31.458C66.8447 31.821 66.3647 31.872 66.3647 31.57C66.3647 30.656 75.5627 18.864 75.9637 19.265C76.1687 19.471 75.1517 23.095 73.7027 27.319ZM90.8407 26.25C91.5747 26.938 95.6127 29.968 99.8147 32.985C104.017 36.002 107.013 38.617 106.473 38.797C105.932 38.978 106.249 39.929 107.178 40.912C116.39 50.664 116.498 50.823 114.381 51.495C111.746 52.331 108.365 51.224 108.365 49.526C108.365 48.655 109.151 48.363 110.615 48.692C112.462 49.106 112.328 48.851 109.865 47.265C108.215 46.203 105.391 43.571 103.589 41.417C98.1627 34.929 97.0757 33.927 91.7247 30.478C88.8977 28.657 86.2837 26.679 85.9157 26.083C84.9737 24.559 89.1897 24.702 90.8407 26.25ZM64.6887 33.75C64.9307 34.163 64.7017 35.625 64.1787 37C63.2717 39.382 63.1617 39.412 61.8567 37.642C60.7927 36.2 60.7527 35.482 61.6757 34.43C63.0287 32.889 64.0457 32.659 64.6887 33.75ZM56.3647 40C56.3647 40.55 55.8877 41 55.3057 41C54.7237 41 54.5247 40.55 54.8647 40C55.2047 39.45 55.6807 39 55.9237 39C56.1667 39 56.3647 39.45 56.3647 40ZM70.3647 42.98C70.3647 43.518 68.5827 44.868 66.4057 45.979C61.5877 48.437 57.3647 52.816 57.3647 55.355C57.3647 57.118 57.5117 57.134 59.8297 55.615C62.8507 53.636 63.3647 53.607 63.3647 55.416C63.3647 56.984 56.2567 63 54.4037 63C53.7577 63 53.4587 62.212 53.7387 61.25C54.2387 59.531 54.6787 54.342 54.4707 52.628C54.2977 51.205 51.2297 54.224 50.2627 56.769C49.1217 59.77 47.0017 58.583 47.8027 55.391C48.5167 52.546 46.7177 52.167 44.7567 54.75C43.5777 56.303 43.4247 56.317 43.3967 54.872C43.3787 53.977 44.0127 52.707 44.8047 52.05C45.5967 51.393 46.3837 49.91 46.5547 48.756C46.9447 46.117 49.3597 45.186 49.3797 47.667C49.4037 50.503 50.9497 52.375 52.4857 51.425C53.2247 50.969 54.5847 50.539 55.5077 50.471C56.4307 50.403 58.2387 49.579 59.5247 48.641C67.4297 42.874 68.7437 42 69.5127 42C69.9817 42 70.3647 42.441 70.3647 42.98ZM88.3647 53C88.3647 53.55 87.9147 54 87.3647 54C86.8147 54 86.3647 53.55 86.3647 53C86.3647 52.45 86.8147 52 87.3647 52C87.9147 52 88.3647 52.45 88.3647 53ZM117.412 56.097C117.765 56.869 118.623 58.584 119.317 59.909C121.251 63.597 124.255 75.171 124.158 78.562C124.111 80.225 124.52 82.466 125.066 83.542C126.822 87 124.872 111.19 121.764 124.5C118.284 139.403 117.754 155.893 120.615 160.259C122.536 163.191 122.854 164.42 121.47 163.565C120.977 163.26 120.339 163.626 120.05 164.378C119.652 165.416 117.884 165.63 112.695 165.269C106.569 164.842 64.9237 168.138 57.3817 169.647C55.7227 169.978 54.3647 169.849 54.3647 169.358C54.3647 167.47 90.5897 162.821 103.865 163.005C108.815 163.073 113.765 162.91 114.865 162.641C115.965 162.373 117.16 162.119 117.521 162.077C118.572 161.954 117.281 158.176 115.757 156.91C114.173 155.596 113.841 153.558 115.365 154.5C116.669 155.306 116.645 153.391 115.319 150.914C114.603 149.576 114.58 145.739 115.248 138.73C116.144 129.325 116.067 128.282 114.294 125.79C111.817 122.312 111.841 120.793 114.326 123.771C116.808 126.748 117.887 124.91 115.906 121.079C114.06 117.51 113.92 116.155 115.565 117.8C117.245 119.48 118.133 119.303 119.342 117.044C120.148 115.537 119.938 114.346 118.429 111.864C115.756 107.47 116.979 106.089 119.962 110.132L122.365 113.389L122.35 108.944C122.34 106.006 122.037 104.969 121.457 105.885C120.747 107.007 120.408 106.912 119.674 105.385C118.508 102.959 118.91 95.666 120.505 90.294C121.576 86.688 121.53 85.832 120.182 84.294C118.07 81.886 117.259 76 119.038 76C120.961 76 120.687 74.753 117.845 70.566C115.401 66.964 115.39 66.873 117.47 67.533C119.911 68.308 119.494 67.083 115.992 63.197C114.426 61.459 114.225 60.705 115.171 60.12C116.124 59.531 115.938 58.727 114.395 56.765C113.278 55.346 112.365 53.933 112.365 53.624C112.365 52.546 116.775 54.707 117.412 56.097ZM44.3647 58.656C44.3647 59.566 43.3427 61.704 42.0947 63.406C40.8457 65.108 39.1667 67.85 38.3627 69.5C36.0407 74.269 32.1797 80.278 29.6157 83.114L27.2517 85.727L30.3087 88.299C33.8187 91.253 34.0647 92.365 31.6107 94.193C29.5477 95.73 24.6987 102.991 23.3277 106.598C21.9397 110.249 20.6987 108.804 20.0407 102.768C19.7247 99.871 19.1717 96.292 18.8117 94.815C18.2427 92.484 18.6937 91.757 22.2227 89.315C24.4587 87.767 26.3057 86.131 26.3267 85.679C26.3477 85.228 28.2767 82.078 30.6147 78.679C36.6187 69.95 37.0757 69.174 40.0047 62.75C42.5877 57.084 44.3647 55.415 44.3647 58.656ZM84.9137 62.661C83.9657 66.437 83.0427 64.729 83.9197 60.822C84.3297 58.995 84.8667 58.082 85.1127 58.793C85.3587 59.504 85.2687 61.245 84.9137 62.661ZM92.5147 61C93.0897 62.65 94.1467 64 94.8637 64C97.2697 64 96.2657 71.185 93.3277 75C91.8447 76.925 90.3477 79.4 90.0007 80.5C89.6537 81.6 88.1217 83.85 86.5967 85.5C82.3557 90.087 79.3647 94.154 79.3647 95.333C79.3647 96.723 91.8137 84.12 91.9077 82.635C92.0407 80.52 93.5127 78.157 95.0677 77.56C96.4287 77.038 96.4187 77.268 94.9907 79.448C94.0967 80.813 93.3647 82.611 93.3647 83.444C93.3647 84.277 91.3397 86.825 88.8647 89.107C86.3897 91.388 84.3647 93.842 84.3647 94.559C84.3647 95.277 82.9727 96.855 81.2727 98.066C79.1937 99.546 78.5687 100.508 79.3667 101.001C80.5217 101.715 78.3877 103.49 69.3797 109.309C67.4627 110.547 65.3777 112.596 64.7467 113.862C64.1157 115.127 62.1147 117.695 60.2997 119.567C55.5577 124.459 57.4477 124.964 63.8907 120.526C66.9307 118.433 69.6517 116.953 69.9367 117.239C70.3797 117.682 67.1267 120.46 57.9317 127.489C56.8687 128.302 56.3107 129.279 56.6917 129.661C57.0737 130.042 58.0417 129.487 58.8437 128.427C59.6447 127.367 60.3157 127.026 60.3327 127.669C60.3507 128.312 58.8477 130.268 56.9937 132.017C52.2167 136.523 50.1747 143.893 50.2947 156.196C50.3197 158.779 49.9467 161.929 49.4647 163.196C48.6517 165.339 48.5517 165.256 48.0317 162C46.5507 152.724 46.5377 151.101 47.9377 149.939C49.7577 148.429 49.7707 147 47.9647 147C46.2187 147 44.1387 155.214 44.3767 161.17C44.6277 167.449 44.5137 168 42.9587 168C42.0657 168 41.7347 167.301 42.0527 166.086C42.3867 164.807 41.8227 163.78 40.3527 162.993C38.6107 162.061 38.2707 161.219 38.7237 158.954C39.7167 153.989 49.4257 130.194 50.9867 128.899C51.8087 128.217 53.1437 126.071 53.9557 124.129C55.1807 121.197 60.5067 114.49 69.3137 104.792C74.4437 99.142 93.3477 70.207 93.3507 68C93.3517 67.175 92.6797 65.211 91.8587 63.636C90.3537 60.751 89.8947 58 90.9167 58C91.2207 58 91.9397 59.35 92.5147 61ZM50.3647 64.618C50.3647 64.958 48.9477 66.85 47.2157 68.822C45.4837 70.795 42.9297 74.892 41.5407 77.928C40.1507 80.963 38.8237 82.877 38.5917 82.182C38.2027 81.015 41.6537 73.184 44.6107 68.523C46.6667 65.282 50.3647 62.772 50.3647 64.618ZM92.3647 67.492C92.3647 67.763 91.4827 69.001 90.4047 70.242C89.3267 71.484 87.7507 73.4 86.9027 74.5L85.3597 76.5L86.0447 74.5C87.3897 70.572 92.3647 65.056 92.3647 67.492ZM78.4167 83.75C75.8957 88.082 74.0367 89.36 67.6887 91.12C63.9597 92.154 59.7737 92.994 58.3867 92.986C56.2037 92.974 56.4027 92.718 59.8647 91.083C62.0647 90.043 66.7897 87.969 70.3647 86.473C73.9397 84.976 77.2917 83.358 77.8147 82.876C79.2997 81.507 79.5287 81.84 78.4167 83.75ZM22.1887 91.75C20.5997 93.621 20.7967 103 22.4257 103C22.8977 103 23.8287 101.184 24.4937 98.964C25.2117 96.569 25.9957 95.403 26.4247 96.096C26.8987 96.863 27.3787 96.531 27.8237 95.129C28.2497 93.787 27.9457 92.438 27.0047 91.497C25.0607 89.553 24.0067 89.609 22.1887 91.75ZM29.0787 109.714C28.1627 110.631 27.1547 111.124 26.8407 110.81C26.5267 110.495 27.0197 109.488 27.9357 108.571C28.8527 107.655 29.8597 107.162 30.1747 107.476C30.4887 107.79 29.9957 108.798 29.0787 109.714ZM67.8647 114C67.5247 114.55 66.7107 114.993 66.0557 114.985C65.3397 114.975 65.4637 114.582 66.3647 114C68.2857 112.758 68.6317 112.758 67.8647 114ZM112.418 130.639C113.476 133.422 112.932 135.01 111.461 133.433C110.982 132.92 110.284 131.488 109.91 130.25C108.939 127.038 111.181 127.385 112.418 130.639ZM130.365 134.309C130.365 135.835 127.437 139.988 127.41 138.5C127.4 137.95 127.664 136.488 127.995 135.25C128.643 132.833 130.365 132.149 130.365 134.309ZM105.365 141.441C105.365 142.942 103.57 144.538 102.775 143.743C102.077 143.046 103.458 140 104.472 140C104.963 140 105.365 140.648 105.365 141.441ZM115.865 160C116.205 160.55 116.006 161 115.424 161C114.842 161 114.365 160.55 114.365 160C114.365 159.45 114.563 159 114.806 159C115.049 159 115.525 159.45 115.865 160Z" fill="black"/>
<path fill-rule="evenodd" clip-rule="evenodd" d="M54.8397 17.198C55.2487 25.896 55.8367 29.864 56.8887 31.027C58.8857 33.233 58.9417 36.723 56.9537 35.074C55.9887 34.273 55.3377 34.235 54.8947 34.951C53.5897 37.064 52.7767 35.911 53.1737 32.51C53.4747 29.931 53.1507 28.855 51.9297 28.387C49.6727 27.52 49.5117 27.799 47.9447 35.289C47.1157 39.25 45.4857 43.285 43.8477 45.433C42.3517 47.395 41.6577 49 42.3047 49C42.9527 49 43.1997 49.457 42.8547 50.016C42.5087 50.575 41.7877 50.762 41.2517 50.43C39.5437 49.374 37.3647 52.137 37.3547 55.372C37.3497 57.093 36.2927 60.75 35.0067 63.5C31.8637 70.221 22.1917 84.901 18.8647 88C17.3887 89.375 15.7737 91.255 15.2757 92.178C14.2147 94.147 16.3937 106.741 18.7887 112.471C20.2517 115.974 20.5977 116.203 23.5287 115.617C25.6827 115.186 27.2237 115.467 28.3637 116.499C29.8777 117.87 30.1457 117.775 31.1797 115.507C32.5467 112.506 35.3647 112.165 35.3647 115C35.3647 117.736 36.9837 117.511 38.9567 114.5C39.8577 113.125 41.1397 112 41.8067 112C42.5637 112 42.8647 110.954 42.6097 109.215C42.2997 107.105 43.0257 105.53 45.6037 102.715C47.4757 100.672 49.4817 99 50.0637 99C50.6447 99 51.6377 98.376 52.2707 97.613C52.9037 96.85 56.4427 95.905 60.1427 95.511C63.8397 95.116 67.6907 94.354 68.7007 93.816C71.8797 92.122 71.6437 93.683 68.1187 97.661C66.2487 99.772 61.8537 105.325 58.3537 110C54.8527 114.675 50.0607 120.784 47.7037 123.577C43.3657 128.715 41.3357 133.672 33.6037 158C30.3227 168.322 30.1707 174.74 33.2367 173.419C34.1327 173.034 37.1147 172.73 39.8647 172.743C42.6147 172.757 60.3897 172.296 79.3647 171.719C104.494 170.954 115.893 170.972 121.331 171.785C125.438 172.399 128.911 172.787 129.05 172.649C129.188 172.51 128.419 169.495 127.341 165.948C124.991 158.22 124.986 159.035 127.405 156.131L129.379 153.761L135.404 156.015C138.719 157.254 141.669 158.03 141.96 157.738C142.252 157.446 139.987 153.719 136.928 149.455C132.007 142.597 131.365 141.141 131.365 136.851C131.365 132.245 132.663 130.632 134.717 132.685C135.697 133.666 142.554 135.967 144.547 135.985C145.889 135.997 145.528 134.957 142.761 130.845C140.853 128.009 137.508 123.56 135.328 120.956C131.248 116.083 130.227 113.349 132.865 114.362C134.768 115.092 134.781 113.932 132.897 111.441C130.845 108.728 131.016 107.743 133.324 108.978C134.402 109.555 135.64 109.928 136.074 109.808C136.509 109.687 138.305 110.356 140.065 111.294C146.276 114.604 145.922 113.193 137.811 102.314C133.374 96.364 131.419 92.901 131.759 91.6C132.036 90.542 131.82 88.849 131.278 87.838C129.969 85.391 131.596 85.493 133.865 88C135.997 90.356 137.543 90.629 136.728 88.505C136.22 87.179 136.478 87.178 139.01 88.499C140.58 89.318 142.482 89.99 143.237 89.994C145.007 90.002 144.208 88.866 134.475 77.531C127.686 69.625 127.23 68.819 128.866 67.623C130.017 66.782 132.421 66.491 135.66 66.802L140.673 67.284L138.788 64.785C137.751 63.411 135.113 60.984 132.925 59.393C126.577 54.775 119.365 47.846 119.365 46.363C119.365 45.359 120.997 45 125.561 45H131.757L126.915 41.75C117.695 35.561 114.853 34.077 109.993 32.911C106.683 32.117 104.952 31.137 104.621 29.87C104.352 28.841 103.564 28 102.871 28C102.177 28 101.115 27.404 100.511 26.676C99.0637 24.933 100.933 23 104.065 23C105.33 23 106.365 22.55 106.365 22C106.365 21.001 104.829 20.786 96.3647 20.599C92.7277 20.519 91.9187 20.176 92.1447 18.811C92.3847 17.36 91.9637 17.255 89.1507 18.061C87.3507 18.578 85.5097 19 85.0607 19C84.6117 19 84.5537 15.85 84.9337 12C85.4207 7.059 85.2907 5 84.4937 5C83.8727 5 83.3647 5.494 83.3647 6.097C83.3647 7.553 70.3437 21.004 68.9507 20.987C68.3537 20.98 66.9647 19.685 65.8647 18.11C61.8847 12.41 55.8467 5.113 55.0657 5.057C54.6257 5.026 54.5247 10.489 54.8397 17.198ZM64.3297 25.095C64.3487 25.972 63.3887 27.547 62.1947 28.595C60.1457 30.395 60.0627 30.399 60.6947 28.668C61.0637 27.661 61.3807 24.961 61.3997 22.668C61.4347 18.551 61.4527 18.53 62.8647 21C63.6507 22.375 64.3097 24.218 64.3297 25.095ZM73.7027 27.319C70.9707 35.286 69.9827 36.471 69.0487 32.899C68.7457 31.743 68.0197 31.095 67.4317 31.458C66.8447 31.821 66.3647 31.872 66.3647 31.57C66.3647 30.656 75.5627 18.864 75.9637 19.265C76.1687 19.471 75.1517 23.095 73.7027 27.319ZM90.8407 26.25C91.5747 26.938 95.6127 29.968 99.8147 32.985C104.017 36.002 107.013 38.617 106.473 38.797C105.932 38.978 106.249 39.929 107.178 40.912C116.39 50.664 116.498 50.823 114.381 51.495C111.746 52.331 108.365 51.224 108.365 49.526C108.365 48.655 109.151 48.363 110.615 48.692C112.462 49.106 112.328 48.851 109.865 47.265C108.215 46.203 105.391 43.571 103.589 41.417C98.1627 34.929 97.0757 33.927 91.7247 30.478C88.8977 28.657 86.2837 26.679 85.9157 26.083C84.9737 24.559 89.1897 24.702 90.8407 26.25ZM64.6887 33.75C64.9307 34.163 64.7017 35.625 64.1787 37C63.2717 39.382 63.1617 39.412 61.8567 37.642C60.7927 36.2 60.7527 35.482 61.6757 34.43C63.0287 32.889 64.0457 32.659 64.6887 33.75ZM56.3647 40C56.3647 40.55 55.8877 41 55.3057 41C54.7237 41 54.5247 40.55 54.8647 40C55.2047 39.45 55.6807 39 55.9237 39C56.1667 39 56.3647 39.45 56.3647 40ZM70.3647 42.98C70.3647 43.518 68.5827 44.868 66.4057 45.979C61.5877 48.437 57.3647 52.816 57.3647 55.355C57.3647 57.118 57.5117 57.134 59.8297 55.615C62.8507 53.636 63.3647 53.607 63.3647 55.416C63.3647 56.984 56.2567 63 54.4037 63C53.7577 63 53.4587 62.212 53.7387 61.25C54.2387 59.531 54.6787 54.342 54.4707 52.628C54.2977 51.205 51.2297 54.224 50.2627 56.769C49.1217 59.77 47.0017 58.583 47.8027 55.391C48.5167 52.546 46.7177 52.167 44.7567 54.75C43.5777 56.303 43.4247 56.317 43.3967 54.872C43.3787 53.977 44.0127 52.707 44.8047 52.05C45.5967 51.393 46.3837 49.91 46.5547 48.756C46.9447 46.117 49.3597 45.186 49.3797 47.667C49.4037 50.503 50.9497 52.375 52.4857 51.425C53.2247 50.969 54.5847 50.539 55.5077 50.471C56.4307 50.403 58.2387 49.579 59.5247 48.641C67.4297 42.874 68.7437 42 69.5127 42C69.9817 42 70.3647 42.441 70.3647 42.98ZM88.3647 53C88.3647 53.55 87.9147 54 87.3647 54C86.8147 54 86.3647 53.55 86.3647 53C86.3647 52.45 86.8147 52 87.3647 52C87.9147 52 88.3647 52.45 88.3647 53ZM117.412 56.097C117.765 56.869 118.623 58.584 119.317 59.909C121.251 63.597 124.255 75.171 124.158 78.562C124.111 80.225 124.52 82.466 125.066 83.542C126.822 87 124.872 111.19 121.764 124.5C118.284 139.403 117.754 155.893 120.615 160.259C122.536 163.191 122.854 164.42 121.47 163.565C120.977 163.26 120.339 163.626 120.05 164.378C119.652 165.416 117.884 165.63 112.695 165.269C106.569 164.842 64.9237 168.138 57.3817 169.647C55.7227 169.978 54.3647 169.849 54.3647 169.358C54.3647 167.47 90.5897 162.821 103.865 163.005C108.815 163.073 113.765 162.91 114.865 162.641C115.965 162.373 117.16 162.119 117.521 162.077C118.572 161.954 117.281 158.176 115.757 156.91C114.173 155.596 113.841 153.558 115.365 154.5C116.669 155.306 116.645 153.391 115.319 150.914C114.603 149.576 114.58 145.739 115.248 138.73C116.144 129.325 116.067 128.282 114.294 125.79C111.817 122.312 111.841 120.793 114.326 123.771C116.808 126.748 117.887 124.91 115.906 121.079C114.06 117.51 113.92 116.155 115.565 117.8C117.245 119.48 118.133 119.303 119.342 117.044C120.148 115.537 119.938 114.346 118.429 111.864C115.756 107.47 116.979 106.089 119.962 110.132L122.365 113.389L122.35 108.944C122.34 106.006 122.037 104.969 121.457 105.885C120.747 107.007 120.408 106.912 119.674 105.385C118.508 102.959 118.91 95.666 120.505 90.294C121.576 86.688 121.53 85.832 120.182 84.294C118.07 81.886 117.259 76 119.038 76C120.961 76 120.687 74.753 117.845 70.566C115.401 66.964 115.39 66.873 117.47 67.533C119.911 68.308 119.494 67.083 115.992 63.197C114.426 61.459 114.225 60.705 115.171 60.12C116.124 59.531 115.938 58.727 114.395 56.765C113.278 55.346 112.365 53.933 112.365 53.624C112.365 52.546 116.775 54.707 117.412 56.097ZM44.3647 58.656C44.3647 59.566 43.3427 61.704 42.0947 63.406C40.8457 65.108 39.1667 67.85 38.3627 69.5C36.0407 74.269 32.1797 80.278 29.6157 83.114L27.2517 85.727L30.3087 88.299C33.8187 91.253 34.0647 92.365 31.6107 94.193C29.5477 95.73 24.6987 102.991 23.3277 106.598C21.9397 110.249 20.6987 108.804 20.0407 102.768C19.7247 99.871 19.1717 96.292 18.8117 94.815C18.2427 92.484 18.6937 91.757 22.2227 89.315C24.4587 87.767 26.3057 86.131 26.3267 85.679C26.3477 85.228 28.2767 82.078 30.6147 78.679C36.6187 69.95 37.0757 69.174 40.0047 62.75C42.5877 57.084 44.3647 55.415 44.3647 58.656ZM84.9137 62.661C83.9657 66.437 83.0427 64.729 83.9197 60.822C84.3297 58.995 84.8667 58.082 85.1127 58.793C85.3587 59.504 85.2687 61.245 84.9137 62.661ZM92.5147 61C93.0897 62.65 94.1467 64 94.8637 64C97.2697 64 96.2657 71.185 93.3277 75C91.8447 76.925 90.3477 79.4 90.0007 80.5C89.6537 81.6 88.1217 83.85 86.5967 85.5C82.3557 90.087 79.3647 94.154 79.3647 95.333C79.3647 96.723 91.8137 84.12 91.9077 82.635C92.0407 80.52 93.5127 78.157 95.0677 77.56C96.4287 77.038 96.4187 77.268 94.9907 79.448C94.0967 80.813 93.3647 82.611 93.3647 83.444C93.3647 84.277 91.3397 86.825 88.8647 89.107C86.3897 91.388 84.3647 93.842 84.3647 94.559C84.3647 95.277 82.9727 96.855 81.2727 98.066C79.1937 99.546 78.5687 100.508 79.3667 101.001C80.5217 101.715 78.3877 103.49 69.3797 109.309C67.4627 110.547 65.3777 112.596 64.7467 113.862C64.1157 115.127 62.1147 117.695 60.2997 119.567C55.5577 124.459 57.4477 124.964 63.8907 120.526C66.9307 118.433 69.6517 116.953 69.9367 117.239C70.3797 117.682 67.1267 120.46 57.9317 127.489C56.8687 128.302 56.3107 129.279 56.6917 129.661C57.0737 130.042 58.0417 129.487 58.8437 128.427C59.6447 127.367 60.3157 127.026 60.3327 127.669C60.3507 128.312 58.8477 130.268 56.9937 132.017C52.2167 136.523 50.1747 143.893 50.2947 156.196C50.3197 158.779 49.9467 161.929 49.4647 163.196C48.6517 165.339 48.5517 165.256 48.0317 162C46.5507 152.724 46.5377 151.101 47.9377 149.939C49.7577 148.429 49.7707 147 47.9647 147C46.2187 147 44.1387 155.214 44.3767 161.17C44.6277 167.449 44.5137 168 42.9587 168C42.0657 168 41.7347 167.301 42.0527 166.086C42.3867 164.807 41.8227 163.78 40.3527 162.993C38.6107 162.061 38.2707 161.219 38.7237 158.954C39.7167 153.989 49.4257 130.194 50.9867 128.899C51.8087 128.217 53.1437 126.071 53.9557 124.129C55.1807 121.197 60.5067 114.49 69.3137 104.792C74.4437 99.142 93.3477 70.207 93.3507 68C93.3517 67.175 92.6797 65.211 91.8587 63.636C90.3537 60.751 89.8947 58 90.9167 58C91.2207 58 91.9397 59.35 92.5147 61ZM50.3647 64.618C50.3647 64.958 48.9477 66.85 47.2157 68.822C45.4837 70.795 42.9297 74.892 41.5407 77.928C40.1507 80.963 38.8237 82.877 38.5917 82.182C38.2027 81.015 41.6537 73.184 44.6107 68.523C46.6667 65.282 50.3647 62.772 50.3647 64.618ZM92.3647 67.492C92.3647 67.763 91.4827 69.001 90.4047 70.242C89.3267 71.484 87.7507 73.4 86.9027 74.5L85.3597 76.5L86.0447 74.5C87.3897 70.572 92.3647 65.056 92.3647 67.492ZM78.4167 83.75C75.8957 88.082 74.0367 89.36 67.6887 91.12C63.9597 92.154 59.7737 92.994 58.3867 92.986C56.2037 92.974 56.4027 92.718 59.8647 91.083C62.0647 90.043 66.7897 87.969 70.3647 86.473C73.9397 84.976 77.2917 83.358 77.8147 82.876C79.2997 81.507 79.5287 81.84 78.4167 83.75ZM22.1887 91.75C20.5997 93.621 20.7967 103 22.4257 103C22.8977 103 23.8287 101.184 24.4937 98.964C25.2117 96.569 25.9957 95.403 26.4247 96.096C26.8987 96.863 27.3787 96.531 27.8237 95.129C28.2497 93.787 27.9457 92.438 27.0047 91.497C25.0607 89.553 24.0067 89.609 22.1887 91.75ZM29.0787 109.714C28.1627 110.631 27.1547 111.124 26.8407 110.81C26.5267 110.495 27.0197 109.488 27.9357 108.571C28.8527 107.655 29.8597 107.162 30.1747 107.476C30.4887 107.79 29.9957 108.798 29.0787 109.714ZM67.8647 114C67.5247 114.55 66.7107 114.993 66.0557 114.985C65.3397 114.975 65.4637 114.582 66.3647 114C68.2857 112.758 68.6317 112.758 67.8647 114ZM112.418 130.639C113.476 133.422 112.932 135.01 111.461 133.433C110.982 132.92 110.284 131.488 109.91 130.25C108.939 127.038 111.181 127.385 112.418 130.639ZM130.365 134.309C130.365 135.835 127.437 139.988 127.41 138.5C127.4 137.95 127.664 136.488 127.995 135.25C128.643 132.833 130.365 132.149 130.365 134.309ZM105.365 141.441C105.365 142.942 103.57 144.538 102.775 143.743C102.077 143.046 103.458 140 104.472 140C104.963 140 105.365 140.648 105.365 141.441ZM115.865 160C116.205 160.55 116.006 161 115.424 161C114.842 161 114.365 160.55 114.365 160C114.365 159.45 114.563 159 114.806 159C115.049 159 115.525 159.45 115.865 160Z" stroke="black" stroke-width="2" mask="url(#path-1-inside-1_39_29)"/>
</g>
<defs>
<filter id="filter0_d_39_29" x="0" y="0" width="160.301" height="198.591" filterUnits="userSpaceOnUse" color-interpolation-filters="sRGB">
<feFlood flood-opacity="0" result="BackgroundImageFix"/>
<feColorMatrix in="SourceAlpha" type="matrix" values="0 0 0 0 0 0 0 0 0 0 0 0 0 0 0 0 0 0 127 0" result="hardAlpha"/>
<feOffset dy="10"/>
<feGaussianBlur stdDeviation="7.5"/>
<feComposite in2="hardAlpha" operator="out"/>
<feColorMatrix type="matrix" values="0 0 0 0 0.0901961 0 0 0 0 0.560784 0 0 0 0 0.47451 0 0 0 0.25 0"/>
<feBlend mode="normal" in2="BackgroundImageFix" result="effect1_dropShadow_39_29"/>
<feBlend mode="normal" in="SourceGraphic" in2="effect1_dropShadow_39_29" result="shape"/>
</filter>
</defs>
</svg>
