<svg width="134" height="160" viewBox="0 0 134 160" fill="none" xmlns="http://www.w3.org/2000/svg">
<path d="M67.8821 0.47168L78.8821 12.9717L79.6135 13.8018H71.0833C71.4164 15.7622 72.3478 17.7423 73.6116 19.6592C74.9927 21.7539 76.7497 23.7437 78.4885 25.5137C80.2284 27.2846 81.9338 28.8199 83.2229 30.0225C83.8624 30.6191 84.4078 31.1414 84.7942 31.5654C84.9867 31.7767 85.1527 31.977 85.2727 32.1592C85.3789 32.3204 85.5071 32.5506 85.5071 32.8018C85.5071 32.9595 85.4656 33.1156 85.4172 33.25C85.3667 33.3903 85.2964 33.5408 85.2141 33.6953C85.0495 34.0043 84.8173 34.3652 84.5413 34.7588C83.9877 35.5481 83.2275 36.5079 82.3909 37.5098C80.8431 39.3632 79.0094 41.3873 77.6848 42.8057C82.7178 48.3846 86.5072 51.7186 89.1956 53.6182C90.5671 54.5873 91.642 55.176 92.4397 55.501C93.2636 55.8366 93.7154 55.859 93.886 55.8164L94.2639 56.7305C94.1178 56.8183 93.876 57.0726 93.551 57.5596C93.2389 58.0273 92.8878 58.6514 92.5081 59.4014C91.7493 60.8998 90.8959 62.8626 90.0334 65.001C88.752 68.1784 87.4577 71.7234 86.4338 74.666L93.5803 65.5352C93.9167 64.7857 94.3905 64.2809 94.9709 64.0049C95.5622 63.724 96.2028 63.7076 96.802 63.8232C97.9372 64.0424 99.047 64.7572 99.7522 65.3555L103.61 66.6416L104.38 62.0215C103.431 62.3206 102.443 62.6257 101.557 62.8779C100.441 63.1956 99.4464 63.4488 98.9153 63.5107C98.7906 63.5252 98.6334 63.537 98.4963 63.5117C98.4389 63.5011 98.2818 63.4676 98.1575 63.3311C98.0852 63.2516 98.0349 63.1469 98.0217 63.0283C98.0094 62.9171 98.033 62.8238 98.0588 62.7598C98.1061 62.6432 98.1837 62.5612 98.2278 62.5186C98.28 62.4681 98.3406 62.4207 98.4006 62.3779C98.5214 62.2919 98.682 62.1948 98.8782 62.0869C99.6622 61.6557 101.215 60.9399 103.813 59.8408C108.944 57.6698 114.815 53.4997 120.088 49.1416C125.354 44.7893 129.989 40.2783 132.643 37.459L133.379 38.1367C132.574 39.0314 131.884 40.8306 131.327 43.2793C130.778 45.6993 130.376 48.6595 130.092 51.7842C129.523 58.0318 129.424 64.888 129.507 69.292L129.511 69.5049L129.361 69.6553C118.24 80.7756 115.534 91.1934 115.5 95.3516C116.392 95.4611 117.053 95.6379 117.516 95.8789C118.069 96.167 118.415 96.5959 118.407 97.1465C118.401 97.6318 118.113 98.0596 117.823 98.376C117.522 98.7028 117.141 98.9919 116.786 99.2148L116.787 99.2158C113.423 101.492 111.438 103.579 110.41 105.434C109.392 107.272 109.308 108.889 109.758 110.286C110.214 111.702 111.235 112.946 112.518 113.979C113.798 115.011 115.308 115.808 116.686 116.335L116.386 117.287C114.449 116.803 113.065 116.891 112.086 117.288C111.12 117.681 110.486 118.4 110.091 119.312C109.282 121.18 109.501 123.798 109.99 125.676L110.045 125.882L109.933 126.063C109.194 127.264 109.032 128.382 109.227 129.41C109.425 130.452 109.999 131.445 110.807 132.358C112.429 134.192 114.903 135.605 116.697 136.339L117.781 136.782L116.71 137.259L112.362 139.191C111.897 140.054 111.74 141.237 111.845 142.655C111.955 144.138 112.346 145.815 112.896 147.523C113.995 150.939 115.702 154.407 116.94 156.552L117.316 157.203L116.57 157.298C78.5155 162.105 34.6387 159.301 17.4495 157.299L16.6643 157.207L17.0833 156.537C21.0606 150.173 22.6045 145.579 22.9475 142.447C23.2929 139.294 22.4191 137.72 21.7131 137.206L21.0833 136.748L21.762 136.366C24.8294 134.641 25.7021 132.589 25.6575 130.776C25.6114 128.908 24.5888 127.169 23.6399 126.141L23.2024 125.667L23.7698 125.361C26.316 123.99 26.9911 122.74 27.0198 121.86C27.048 120.993 26.4579 120.236 25.8069 119.774C23.2367 119.359 21.8574 118.498 21.3 117.419C20.728 116.312 21.1214 115.181 21.5999 114.511L21.6721 114.41L25.7834 112.354L25.9192 112.287L26.0696 112.306C27.0509 112.428 27.7962 112.456 28.3596 112.413C28.4171 112.409 28.4725 112.402 28.5256 112.396C28.7245 112.671 28.9625 112.918 29.2131 113.132C29.6849 113.535 30.2309 113.856 30.7229 114.08L30.9241 114.172L31.1272 114.084C44.0284 108.527 58.9007 107.36 72.2747 108.174C85.6451 108.988 97.4761 111.779 104.268 114.098L104.283 114.103L104.298 114.107C104.865 114.262 105.338 114.354 105.727 114.386C106.107 114.417 106.452 114.396 106.732 114.282C107.041 114.157 107.264 113.918 107.335 113.59C107.398 113.301 107.328 113.009 107.233 112.767C107.04 112.276 106.638 111.726 106.201 111.218C105.755 110.699 105.235 110.182 104.766 109.755L104.708 109.702L104.637 109.67C93.1354 104.424 78.421 103.007 64.7424 103.35C51.0543 103.692 38.3431 105.797 30.8108 107.639L30.7473 107.654L30.6907 107.686C29.5524 108.306 28.8042 108.95 28.3909 109.616C28.359 109.667 28.3317 109.72 28.304 109.771C27.4924 109.525 26.5857 109.369 25.9514 109.299L25.5071 109.249V108.802C25.5071 107.343 24.8984 106.029 24.1057 104.963C23.3123 103.896 22.36 103.112 21.7424 102.726C20.7193 102.086 20.1705 101.79 19.7766 101.548C19.6872 101.493 19.6045 101.44 19.5354 101.389C19.4726 101.342 19.3882 101.275 19.3215 101.186C19.2485 101.088 19.1569 100.905 19.217 100.68C19.2679 100.49 19.4008 100.381 19.4573 100.339C19.5237 100.289 19.5984 100.248 19.6536 100.22C19.7087 100.191 19.7864 100.153 19.8479 100.122C19.9835 100.053 20.1429 99.9679 20.3215 99.8477C20.6675 99.6147 21.1054 99.2348 21.5559 98.5723C21.6712 98.2394 21.6433 97.7601 21.426 97.1289C21.2038 96.4832 20.8129 95.7557 20.3264 95.0127C19.3548 93.5288 18.0538 92.0556 17.1536 91.1553L17.0647 91.0674L17.0286 90.9473C14.2393 81.7827 11.2643 76.3516 8.71021 73.2842C6.13143 70.1872 4.07527 69.5982 3.10474 69.792L2.42017 69.9287L2.51099 69.2363C4.27713 55.8133 2.25002 42.9555 0.615479 36.542C0.197186 35.7417 -0.0495739 34.963 0.0090332 34.2598L0.984619 34.1523C1.16502 34.7296 1.35746 35.4099 1.55591 36.1816C2.29145 37.5394 3.69911 39.2149 5.55298 41.0625C7.4213 42.9245 9.71234 44.9328 12.1526 46.9268C17.033 50.9147 22.486 54.8288 26.2864 57.3867C28.3198 58.6102 29.5417 59.8193 30.2356 60.8623C30.9218 61.8939 31.1161 62.8047 30.9973 63.3994L30.9915 63.4307L30.9817 63.46C30.5904 64.634 30.45 65.4656 30.4573 66.0391C30.4646 66.6111 30.6156 66.8664 30.7424 66.9814C30.8705 67.0974 31.0715 67.1592 31.3655 67.1348C31.6591 67.1102 31.9886 67.0019 32.2834 66.8545L32.2971 66.8477L32.3098 66.8418L35.6321 65.417C35.8787 64.9165 36.241 64.5737 36.6858 64.3818C37.1717 64.1723 37.7055 64.1638 38.2014 64.2461C39.062 64.389 39.9335 64.8243 40.55 65.2256L40.7981 65.3945L40.8625 65.4404L40.9094 65.5049C42.3215 67.4153 44.5383 70.2792 46.5979 72.6621C47.6289 73.8549 48.6117 74.9175 49.4299 75.6777C49.8397 76.0585 50.1975 76.3527 50.4905 76.5488C50.5482 76.5874 50.6021 76.6195 50.6497 76.6475C50.6335 76.5784 50.6135 76.5 50.5881 76.4121C50.4103 75.7957 50.0467 74.8914 49.5442 73.7812C48.5432 71.5698 47.0333 68.6287 45.5022 65.7227C43.9811 62.8356 42.418 59.9445 41.3538 57.917C40.8194 56.899 40.3972 56.0734 40.1555 55.5469C40.0431 55.3021 39.9437 55.0684 39.9104 54.9102C39.9027 54.8737 39.8853 54.7841 39.9006 54.6807C39.9087 54.6262 39.9322 54.5234 40.012 54.4248C40.1047 54.3106 40.2366 54.2472 40.3704 54.2363C40.4847 54.2272 40.5748 54.2573 40.6204 54.2764C40.67 54.2972 40.7093 54.3221 40.7346 54.3398C40.766 54.3618 40.7927 54.3884 40.8176 54.4111C40.8251 54.412 40.8359 54.414 40.8499 54.4141C40.9288 54.4146 41.0606 54.3956 41.2542 54.3369C41.6394 54.22 42.1656 53.9802 42.8127 53.627C44.1008 52.9239 45.779 51.8218 47.6057 50.5312C51.0153 48.1224 54.8962 45.0887 57.6301 42.8691C55.6047 41.6281 53.7485 39.8522 52.2297 38.1045C50.5498 36.1713 49.2553 34.2446 48.5725 33.0498L48.2981 32.5693L48.804 32.3447C49.6078 31.9873 50.801 30.9987 52.2415 29.5479C53.6637 28.1153 55.2754 26.2867 56.9104 24.3193C59.8957 20.7271 62.9405 16.6909 65.0295 13.8018H57.5305L58.1008 13.0098L67.1008 0.509766L67.468 0L67.8821 0.47168ZM104.637 129.67C93.1354 124.424 78.421 123.007 64.7424 123.35C51.0543 123.692 38.3431 125.797 30.8108 127.639L30.7473 127.654L30.6907 127.686C29.5524 128.306 28.8042 128.95 28.3909 129.616C27.9646 130.303 27.9099 130.991 28.1174 131.619C28.3172 132.223 28.7455 132.732 29.2131 133.132C29.6849 133.535 30.2309 133.856 30.7229 134.08L30.9241 134.172L31.1272 134.084C44.0284 128.527 58.9007 127.36 72.2747 128.174C85.6451 128.988 97.4761 131.779 104.268 134.098L104.283 134.103L104.298 134.107C104.865 134.262 105.338 134.354 105.727 134.386C106.107 134.417 106.452 134.396 106.732 134.282C107.041 134.157 107.264 133.918 107.335 133.59C107.398 133.301 107.328 133.009 107.233 132.767C107.04 132.276 106.638 131.726 106.201 131.218C105.755 130.699 105.235 130.182 104.766 129.755L104.708 129.702L104.637 129.67ZM104.637 119.67C93.1354 114.424 78.421 113.007 64.7424 113.35C51.0543 113.692 38.3431 115.797 30.8108 117.639L30.7473 117.654L30.6907 117.686C29.5524 118.306 28.8042 118.95 28.3909 119.616C27.9646 120.303 27.9099 120.991 28.1174 121.619C28.3172 122.223 28.7455 122.732 29.2131 123.132C29.6849 123.535 30.2309 123.856 30.7229 124.08L30.9241 124.172L31.1272 124.084C44.0284 118.527 58.9007 117.36 72.2747 118.174C85.6451 118.988 97.4761 121.779 104.268 124.098L104.283 124.103L104.298 124.107C104.865 124.262 105.338 124.354 105.727 124.386C106.107 124.417 106.452 124.396 106.732 124.282C107.041 124.157 107.264 123.918 107.335 123.59C107.398 123.301 107.328 123.009 107.233 122.767C107.04 122.276 106.638 121.726 106.201 121.218C105.755 120.699 105.235 120.182 104.766 119.755L104.708 119.702L104.637 119.67ZM104.637 99.6699C93.1354 94.4237 78.4209 93.0073 64.7424 93.3496C51.0544 93.6922 38.3431 95.7975 30.8108 97.6387L30.7473 97.6543L30.6907 97.6855C29.5524 98.3064 28.8042 98.9505 28.3909 99.6162C27.9647 100.303 27.9099 100.991 28.1174 101.619C28.3172 102.223 28.7455 102.732 29.2131 103.132C29.6848 103.535 30.2309 103.856 30.7229 104.08L30.9241 104.172L31.1272 104.084C44.0284 98.5266 58.9007 97.3598 72.2747 98.1738C85.6451 98.9878 97.4761 101.779 104.268 104.098L104.283 104.103L104.298 104.107C104.865 104.262 105.338 104.354 105.727 104.386C106.107 104.417 106.452 104.396 106.732 104.282C107.041 104.157 107.264 103.918 107.335 103.59C107.398 103.301 107.328 103.009 107.233 102.767C107.04 102.277 106.638 101.726 106.201 101.218C105.755 100.699 105.235 100.182 104.766 99.7549L104.708 99.7021L104.637 99.6699ZM69.5374 30.5273C69.2005 30.4546 68.8509 30.5347 68.5432 30.6562C67.9238 30.9011 67.2204 31.419 66.5608 31.9941C65.9053 32.5657 65.2524 33.2298 64.7092 33.8359C64.1195 34.2639 63.7251 35.093 63.4387 36.0762C63.1337 37.1236 62.9162 38.4737 62.7678 40.0371C62.4707 43.1673 62.4431 47.231 62.5784 51.6152C62.8487 60.3762 63.7731 70.4804 64.5452 77.123C64.5533 78.4227 65.085 79.2899 65.7864 79.8184C66.469 80.3325 67.2758 80.5 67.8235 80.5H68.3762L68.3215 79.9502C66.4707 61.3565 66.3967 49.8859 67.0481 43.1074C67.3742 39.7136 67.8793 37.5273 68.4163 36.2197C68.6853 35.5645 68.9495 35.1617 69.176 34.9365C69.3972 34.7167 69.5453 34.6986 69.6204 34.707L70.053 34.7559L70.1604 34.334C70.35 33.59 70.4573 32.9743 70.4895 32.4736C70.5212 31.9815 70.4838 31.5563 70.342 31.2217C70.1885 30.8596 69.912 30.6084 69.5374 30.5273Z" fill="black"/>
</svg>
