<svg width="113" height="197" viewBox="0 0 113 197" fill="none" xmlns="http://www.w3.org/2000/svg">
<g filter="url(#filter0_d_40_22)">
<mask id="path-1-inside-1_40_22" fill="white">
<path fill-rule="evenodd" clip-rule="evenodd" d="M55.753 7.75082C54.955 9.66082 53.67 12.9728 52.899 15.1098C52.127 17.2468 49.809 20.9128 47.746 23.2568C45.684 25.6008 43.996 27.7138 43.996 27.9528C43.996 29.1778 52.133 36.7118 53.456 36.7118C55.672 36.7118 55.498 37.1418 50.287 44.5328C42.787 55.1698 31.382 68.2688 26.021 72.4028C23.304 74.4978 21.062 76.4868 21.039 76.8218C21.015 77.1578 22.652 79.1828 24.676 81.3218C28.663 85.5358 37.998 104.179 37.992 107.914C37.99 109.178 37.09 111.685 35.992 113.486C34.894 115.287 33.996 117.886 33.996 119.261C33.996 121.008 33.243 122.048 31.496 122.712C28.93 123.688 28.272 125.147 29.936 126.175C32.156 127.547 28.716 132.868 23.889 135.53C18.687 138.398 17.775 140.19 20.996 141.212C23.989 142.162 23.489 145.447 19 154.317C16.803 158.659 15.003 162.957 15 163.868C14.995 165.751 17.936 166.246 35.153 167.263C44.079 167.79 45.883 168.172 46.261 169.617C46.657 171.132 48.015 171.318 57.366 171.14C63.378 171.025 68.602 170.454 69.355 169.829C70.089 169.22 75.371 168.27 81.093 167.717C96.873 166.193 97.996 165.922 97.996 163.633C97.996 162.54 96.862 159.408 95.476 156.673C92.07 149.951 91.184 143.267 93.377 140.843C94.944 139.112 94.82 138.862 91.149 136.318C89.012 134.837 86.26 132.558 85.035 131.254L82.808 128.883L84.902 127.762C87.454 126.396 87.594 124.869 85.246 124.005C82.253 122.904 78.877 118.661 79.481 116.761C79.789 115.789 79.356 114.426 78.519 113.731C73.566 109.62 81.78 88.3038 91.742 79.4158C93.733 77.6398 93.675 77.5378 86.599 70.4158C82.662 66.4538 78.104 61.6448 76.469 59.7288C73.274 55.9848 61.996 39.8308 61.996 38.9978C61.996 38.4358 65.244 34.7098 68.877 31.1028C71.14 28.8568 71.176 28.6268 69.599 26.4758C64.765 19.8818 61.846 14.8698 60.992 11.6958C60.467 9.74582 59.4 7.27882 58.621 6.21382C57.271 4.36682 57.137 4.43882 55.753 7.75082ZM59.423 25.8658C61.469 29.9668 61.407 30.7118 59.021 30.7118C57.36 30.7118 57.141 31.1888 57.646 33.7118C58.422 37.5938 57.473 37.5358 55.426 33.5758C54.227 31.2578 54.066 29.8878 54.809 28.3258C55.362 27.1628 56.066 25.4238 56.374 24.4618C57.151 22.0308 57.617 22.2448 59.423 25.8658ZM58.374 51.3328C58.307 57.7258 57.929 71.2068 57.533 81.2918L56.813 99.6278L59.232 100.235C60.562 100.569 62.74 100.743 64.073 100.621C69.288 100.147 71.996 100.714 71.996 102.279C71.996 103.333 71.407 103.66 70.197 103.276C67.302 102.357 51.874 102.237 47.246 103.098C43.768 103.744 42.996 103.613 42.996 102.372C42.996 101.283 44.557 100.661 48.541 100.163L54.085 99.4698L54.102 76.8408C54.111 64.3948 54.339 51.9618 54.609 49.2118C55.083 44.3908 56.711 39.7118 57.915 39.7118C58.235 39.7118 58.441 44.9408 58.374 51.3328ZM35.044 80.9618C37.482 83.5418 40.579 89.2778 42.55 94.8648C44.772 101.162 42.461 99.2428 38.453 91.4618C36.399 87.4748 34.106 83.3238 33.357 82.2388C30.71 78.4038 31.828 77.5578 35.044 80.9618ZM81.488 85.3188C78.217 90.1388 77.703 90.6528 78.626 88.1818C79.546 85.7158 83.227 80.6088 83.724 81.1068C83.928 81.3108 82.922 83.2058 81.488 85.3188ZM71.391 108.492C71.999 108.888 65.746 109.46 57.496 109.762C49.246 110.065 42.309 110.177 42.079 110.012C41.116 109.318 43.31 108.292 47.265 107.587C52.053 106.733 69.705 107.395 71.391 108.492ZM72.727 115.014C74.029 116.317 72.568 116.475 60.35 116.352C52.73 116.275 44.696 116.582 42.496 117.035L38.496 117.857L40.996 115.834C44.017 113.391 48.374 112.834 61.373 113.234C68.425 113.45 71.672 113.96 72.727 115.014ZM77.759 124.712C78.01 126.012 75.475 126.173 58.791 125.919C41.523 125.656 39.403 125.803 38.275 127.346C36.695 129.505 35.188 128.217 36.626 125.937C38.313 123.263 41.42 122.879 59.983 123.05C74.645 123.186 77.517 123.454 77.759 124.712ZM77.917 135.561C82.548 135.919 86.496 136.694 86.69 137.283C86.936 138.028 78.084 138.332 57.521 138.283C29.803 138.216 22.912 137.653 31.746 136.175C33.809 135.83 35.946 135.396 36.496 135.209C38.234 134.62 69.132 134.882 77.917 135.561ZM41.996 143.604C41.996 144.094 40.845 144.784 39.439 145.137C37.549 145.611 37.031 146.248 37.454 147.578C37.841 148.8 37.298 149.748 35.76 150.531C34.515 151.165 32.266 152.672 30.762 153.881C29.259 155.089 27.801 155.851 27.524 155.573C27.246 155.295 27.801 152.625 28.757 149.64C30.346 144.681 30.798 144.159 33.996 143.594C39.451 142.63 41.996 142.633 41.996 143.604ZM87.496 158.712L89.496 159.571L87.496 159.766C86.396 159.873 72.221 159.895 55.996 159.814C39.771 159.733 26.132 159.677 25.687 159.69C25.242 159.702 25.156 159.262 25.496 158.712C26.264 157.469 84.604 157.469 87.496 158.712Z"/>
</mask>
<path fill-rule="evenodd" clip-rule="evenodd" d="M55.753 7.75082C54.955 9.66082 53.67 12.9728 52.899 15.1098C52.127 17.2468 49.809 20.9128 47.746 23.2568C45.684 25.6008 43.996 27.7138 43.996 27.9528C43.996 29.1778 52.133 36.7118 53.456 36.7118C55.672 36.7118 55.498 37.1418 50.287 44.5328C42.787 55.1698 31.382 68.2688 26.021 72.4028C23.304 74.4978 21.062 76.4868 21.039 76.8218C21.015 77.1578 22.652 79.1828 24.676 81.3218C28.663 85.5358 37.998 104.179 37.992 107.914C37.99 109.178 37.09 111.685 35.992 113.486C34.894 115.287 33.996 117.886 33.996 119.261C33.996 121.008 33.243 122.048 31.496 122.712C28.93 123.688 28.272 125.147 29.936 126.175C32.156 127.547 28.716 132.868 23.889 135.53C18.687 138.398 17.775 140.19 20.996 141.212C23.989 142.162 23.489 145.447 19 154.317C16.803 158.659 15.003 162.957 15 163.868C14.995 165.751 17.936 166.246 35.153 167.263C44.079 167.79 45.883 168.172 46.261 169.617C46.657 171.132 48.015 171.318 57.366 171.14C63.378 171.025 68.602 170.454 69.355 169.829C70.089 169.22 75.371 168.27 81.093 167.717C96.873 166.193 97.996 165.922 97.996 163.633C97.996 162.54 96.862 159.408 95.476 156.673C92.07 149.951 91.184 143.267 93.377 140.843C94.944 139.112 94.82 138.862 91.149 136.318C89.012 134.837 86.26 132.558 85.035 131.254L82.808 128.883L84.902 127.762C87.454 126.396 87.594 124.869 85.246 124.005C82.253 122.904 78.877 118.661 79.481 116.761C79.789 115.789 79.356 114.426 78.519 113.731C73.566 109.62 81.78 88.3038 91.742 79.4158C93.733 77.6398 93.675 77.5378 86.599 70.4158C82.662 66.4538 78.104 61.6448 76.469 59.7288C73.274 55.9848 61.996 39.8308 61.996 38.9978C61.996 38.4358 65.244 34.7098 68.877 31.1028C71.14 28.8568 71.176 28.6268 69.599 26.4758C64.765 19.8818 61.846 14.8698 60.992 11.6958C60.467 9.74582 59.4 7.27882 58.621 6.21382C57.271 4.36682 57.137 4.43882 55.753 7.75082ZM59.423 25.8658C61.469 29.9668 61.407 30.7118 59.021 30.7118C57.36 30.7118 57.141 31.1888 57.646 33.7118C58.422 37.5938 57.473 37.5358 55.426 33.5758C54.227 31.2578 54.066 29.8878 54.809 28.3258C55.362 27.1628 56.066 25.4238 56.374 24.4618C57.151 22.0308 57.617 22.2448 59.423 25.8658ZM58.374 51.3328C58.307 57.7258 57.929 71.2068 57.533 81.2918L56.813 99.6278L59.232 100.235C60.562 100.569 62.74 100.743 64.073 100.621C69.288 100.147 71.996 100.714 71.996 102.279C71.996 103.333 71.407 103.66 70.197 103.276C67.302 102.357 51.874 102.237 47.246 103.098C43.768 103.744 42.996 103.613 42.996 102.372C42.996 101.283 44.557 100.661 48.541 100.163L54.085 99.4698L54.102 76.8408C54.111 64.3948 54.339 51.9618 54.609 49.2118C55.083 44.3908 56.711 39.7118 57.915 39.7118C58.235 39.7118 58.441 44.9408 58.374 51.3328ZM35.044 80.9618C37.482 83.5418 40.579 89.2778 42.55 94.8648C44.772 101.162 42.461 99.2428 38.453 91.4618C36.399 87.4748 34.106 83.3238 33.357 82.2388C30.71 78.4038 31.828 77.5578 35.044 80.9618ZM81.488 85.3188C78.217 90.1388 77.703 90.6528 78.626 88.1818C79.546 85.7158 83.227 80.6088 83.724 81.1068C83.928 81.3108 82.922 83.2058 81.488 85.3188ZM71.391 108.492C71.999 108.888 65.746 109.46 57.496 109.762C49.246 110.065 42.309 110.177 42.079 110.012C41.116 109.318 43.31 108.292 47.265 107.587C52.053 106.733 69.705 107.395 71.391 108.492ZM72.727 115.014C74.029 116.317 72.568 116.475 60.35 116.352C52.73 116.275 44.696 116.582 42.496 117.035L38.496 117.857L40.996 115.834C44.017 113.391 48.374 112.834 61.373 113.234C68.425 113.45 71.672 113.96 72.727 115.014ZM77.759 124.712C78.01 126.012 75.475 126.173 58.791 125.919C41.523 125.656 39.403 125.803 38.275 127.346C36.695 129.505 35.188 128.217 36.626 125.937C38.313 123.263 41.42 122.879 59.983 123.05C74.645 123.186 77.517 123.454 77.759 124.712ZM77.917 135.561C82.548 135.919 86.496 136.694 86.69 137.283C86.936 138.028 78.084 138.332 57.521 138.283C29.803 138.216 22.912 137.653 31.746 136.175C33.809 135.83 35.946 135.396 36.496 135.209C38.234 134.62 69.132 134.882 77.917 135.561ZM41.996 143.604C41.996 144.094 40.845 144.784 39.439 145.137C37.549 145.611 37.031 146.248 37.454 147.578C37.841 148.8 37.298 149.748 35.76 150.531C34.515 151.165 32.266 152.672 30.762 153.881C29.259 155.089 27.801 155.851 27.524 155.573C27.246 155.295 27.801 152.625 28.757 149.64C30.346 144.681 30.798 144.159 33.996 143.594C39.451 142.63 41.996 142.633 41.996 143.604ZM87.496 158.712L89.496 159.571L87.496 159.766C86.396 159.873 72.221 159.895 55.996 159.814C39.771 159.733 26.132 159.677 25.687 159.69C25.242 159.702 25.156 159.262 25.496 158.712C26.264 157.469 84.604 157.469 87.496 158.712Z" fill="white"/>
<path fill-rule="evenodd" clip-rule="evenodd" d="M55.753 7.75082C54.955 9.66082 53.67 12.9728 52.899 15.1098C52.127 17.2468 49.809 20.9128 47.746 23.2568C45.684 25.6008 43.996 27.7138 43.996 27.9528C43.996 29.1778 52.133 36.7118 53.456 36.7118C55.672 36.7118 55.498 37.1418 50.287 44.5328C42.787 55.1698 31.382 68.2688 26.021 72.4028C23.304 74.4978 21.062 76.4868 21.039 76.8218C21.015 77.1578 22.652 79.1828 24.676 81.3218C28.663 85.5358 37.998 104.179 37.992 107.914C37.99 109.178 37.09 111.685 35.992 113.486C34.894 115.287 33.996 117.886 33.996 119.261C33.996 121.008 33.243 122.048 31.496 122.712C28.93 123.688 28.272 125.147 29.936 126.175C32.156 127.547 28.716 132.868 23.889 135.53C18.687 138.398 17.775 140.19 20.996 141.212C23.989 142.162 23.489 145.447 19 154.317C16.803 158.659 15.003 162.957 15 163.868C14.995 165.751 17.936 166.246 35.153 167.263C44.079 167.79 45.883 168.172 46.261 169.617C46.657 171.132 48.015 171.318 57.366 171.14C63.378 171.025 68.602 170.454 69.355 169.829C70.089 169.22 75.371 168.27 81.093 167.717C96.873 166.193 97.996 165.922 97.996 163.633C97.996 162.54 96.862 159.408 95.476 156.673C92.07 149.951 91.184 143.267 93.377 140.843C94.944 139.112 94.82 138.862 91.149 136.318C89.012 134.837 86.26 132.558 85.035 131.254L82.808 128.883L84.902 127.762C87.454 126.396 87.594 124.869 85.246 124.005C82.253 122.904 78.877 118.661 79.481 116.761C79.789 115.789 79.356 114.426 78.519 113.731C73.566 109.62 81.78 88.3038 91.742 79.4158C93.733 77.6398 93.675 77.5378 86.599 70.4158C82.662 66.4538 78.104 61.6448 76.469 59.7288C73.274 55.9848 61.996 39.8308 61.996 38.9978C61.996 38.4358 65.244 34.7098 68.877 31.1028C71.14 28.8568 71.176 28.6268 69.599 26.4758C64.765 19.8818 61.846 14.8698 60.992 11.6958C60.467 9.74582 59.4 7.27882 58.621 6.21382C57.271 4.36682 57.137 4.43882 55.753 7.75082ZM59.423 25.8658C61.469 29.9668 61.407 30.7118 59.021 30.7118C57.36 30.7118 57.141 31.1888 57.646 33.7118C58.422 37.5938 57.473 37.5358 55.426 33.5758C54.227 31.2578 54.066 29.8878 54.809 28.3258C55.362 27.1628 56.066 25.4238 56.374 24.4618C57.151 22.0308 57.617 22.2448 59.423 25.8658ZM58.374 51.3328C58.307 57.7258 57.929 71.2068 57.533 81.2918L56.813 99.6278L59.232 100.235C60.562 100.569 62.74 100.743 64.073 100.621C69.288 100.147 71.996 100.714 71.996 102.279C71.996 103.333 71.407 103.66 70.197 103.276C67.302 102.357 51.874 102.237 47.246 103.098C43.768 103.744 42.996 103.613 42.996 102.372C42.996 101.283 44.557 100.661 48.541 100.163L54.085 99.4698L54.102 76.8408C54.111 64.3948 54.339 51.9618 54.609 49.2118C55.083 44.3908 56.711 39.7118 57.915 39.7118C58.235 39.7118 58.441 44.9408 58.374 51.3328ZM35.044 80.9618C37.482 83.5418 40.579 89.2778 42.55 94.8648C44.772 101.162 42.461 99.2428 38.453 91.4618C36.399 87.4748 34.106 83.3238 33.357 82.2388C30.71 78.4038 31.828 77.5578 35.044 80.9618ZM81.488 85.3188C78.217 90.1388 77.703 90.6528 78.626 88.1818C79.546 85.7158 83.227 80.6088 83.724 81.1068C83.928 81.3108 82.922 83.2058 81.488 85.3188ZM71.391 108.492C71.999 108.888 65.746 109.46 57.496 109.762C49.246 110.065 42.309 110.177 42.079 110.012C41.116 109.318 43.31 108.292 47.265 107.587C52.053 106.733 69.705 107.395 71.391 108.492ZM72.727 115.014C74.029 116.317 72.568 116.475 60.35 116.352C52.73 116.275 44.696 116.582 42.496 117.035L38.496 117.857L40.996 115.834C44.017 113.391 48.374 112.834 61.373 113.234C68.425 113.45 71.672 113.96 72.727 115.014ZM77.759 124.712C78.01 126.012 75.475 126.173 58.791 125.919C41.523 125.656 39.403 125.803 38.275 127.346C36.695 129.505 35.188 128.217 36.626 125.937C38.313 123.263 41.42 122.879 59.983 123.05C74.645 123.186 77.517 123.454 77.759 124.712ZM77.917 135.561C82.548 135.919 86.496 136.694 86.69 137.283C86.936 138.028 78.084 138.332 57.521 138.283C29.803 138.216 22.912 137.653 31.746 136.175C33.809 135.83 35.946 135.396 36.496 135.209C38.234 134.62 69.132 134.882 77.917 135.561ZM41.996 143.604C41.996 144.094 40.845 144.784 39.439 145.137C37.549 145.611 37.031 146.248 37.454 147.578C37.841 148.8 37.298 149.748 35.76 150.531C34.515 151.165 32.266 152.672 30.762 153.881C29.259 155.089 27.801 155.851 27.524 155.573C27.246 155.295 27.801 152.625 28.757 149.64C30.346 144.681 30.798 144.159 33.996 143.594C39.451 142.63 41.996 142.633 41.996 143.604ZM87.496 158.712L89.496 159.571L87.496 159.766C86.396 159.873 72.221 159.895 55.996 159.814C39.771 159.733 26.132 159.677 25.687 159.69C25.242 159.702 25.156 159.262 25.496 158.712C26.264 157.469 84.604 157.469 87.496 158.712Z" stroke="black" stroke-width="8" mask="url(#path-1-inside-1_40_22)"/>
</g>
<defs>
<filter id="filter0_d_40_22" x="0" y="0" width="112.996" height="196.195" filterUnits="userSpaceOnUse" color-interpolation-filters="sRGB">
<feFlood flood-opacity="0" result="BackgroundImageFix"/>
<feColorMatrix in="SourceAlpha" type="matrix" values="0 0 0 0 0 0 0 0 0 0 0 0 0 0 0 0 0 0 127 0" result="hardAlpha"/>
<feOffset dy="10"/>
<feGaussianBlur stdDeviation="7.5"/>
<feComposite in2="hardAlpha" operator="out"/>
<feColorMatrix type="matrix" values="0 0 0 0 0.0901961 0 0 0 0 0.560784 0 0 0 0 0.47451 0 0 0 0.25 0"/>
<feBlend mode="normal" in2="BackgroundImageFix" result="effect1_dropShadow_40_22"/>
<feBlend mode="normal" in="SourceGraphic" in2="effect1_dropShadow_40_22" result="shape"/>
</filter>
</defs>
</svg>
