<svg width="219" height="290" viewBox="0 0 219 290" fill="none" xmlns="http://www.w3.org/2000/svg">
<path d="M96 3H122.5C120.833 5.66667 118 11.3 120 12.5C122.5 14 111.5 16.5 120 22.5C119.167 28.6667 119.5 38.9 127.5 30.5C128 29.8333 130.9 28.4 138.5 28C138.208 36.024 138.197 50.8419 140.077 53.6066C140.398 53.7413 140.706 53.8728 141 54C140.651 54.1496 140.345 54.0003 140.077 53.6066C133.685 50.9183 122.5 46.9527 122.5 50L120 62.5L114 59C112 59.1667 109.2 60.1 114 62.5L147 98L134 118V123L120 137C118.333 137.333 115.5 138.7 117.5 141.5L130 165C132.5 164.833 136 162.8 130 156C127.167 146.5 124.5 127.3 136.5 126.5C137 131.5 139.3 138.5 144.5 126.5L150 133.5C149 138.667 149.1 145.9 157.5 133.5L178 104L186 133.5L180 141.5C179.333 143 179.6 145.1 186 141.5L194.5 133.5L186 104L215.5 69.5L212.5 133.5C206 137 191 151.3 183 180.5C178.167 182.833 170.8 187.6 180 188C177.167 193.833 173.8 206.3 183 209.5C176.667 212 167.8 221.2 183 238C178.167 243 172 253.6 186 256C182.333 257 177.9 263.4 189.5 281C161.833 285.167 90.3 291 25.5 281C30.1667 270.833 39.6 250.7 40 251.5C40.4 252.3 35.8333 242.833 33.5 238C41.5 233 52.7 220.3 33.5 209.5C40.1667 203.833 48.9 190.1 30.5 180.5C27.3333 164.833 18 133.5 6 133.5C6 114.06 5.25662 75.2304 2.33669 69.9489L2 69.5C2.11532 69.6009 2.22753 69.7515 2.33669 69.9489L30.5 107.5L25.5 133.5C34.5 140.667 53.5 159.3 57.5 176.5C58.8333 175.667 60.7 172.2 57.5 165C52.3333 155.167 39.7 135.1 30.5 133.5L40 104C41.6667 109.333 45.9 120.1 49.5 120.5C51.1667 127.167 55.1 139.8 57.5 137V129.5L62 133.5V137C62.5 137.167 64.1 136.7 66.5 133.5L81 126.5C80.3333 134.333 80.1 151.2 84.5 156C90 162 74 156.5 88.5 168.5C90.1667 167.167 93 162.2 91 153C88.6667 146.333 84.9 131 88.5 123L69 98L103 59H97.5C97.5 54 96.2 45.2 91 50L76 54C77 52.6667 79.2 45.3 80 26.5C83.6667 26.8333 92 28.8 96 34C97.6667 33.5 100.3 30.5 97.5 22.5C99.5 20.3333 102 15.3 96 12.5V3Z" fill="white"/>
<path d="M96 3H122.5C120.833 5.66667 118 11.3 120 12.5C122.5 14 111.5 16.5 120 22.5C119.167 28.6667 119.5 38.9 127.5 30.5C128 29.8333 130.9 28.4 138.5 28C138.167 37.1667 138.2 55.2 141 54C134.833 51.3333 122.5 46.8 122.5 50L120 62.5L114 59C112 59.1667 109.2 60.1 114 62.5L147 98L134 118V123L120 137C118.333 137.333 115.5 138.7 117.5 141.5L130 165C132.5 164.833 136 162.8 130 156C127.167 146.5 124.5 127.3 136.5 126.5C137 131.5 139.3 138.5 144.5 126.5L150 133.5C149 138.667 149.1 145.9 157.5 133.5L178 104L186 133.5L180 141.5C179.333 143 179.6 145.1 186 141.5L194.5 133.5L186 104L215.5 69.5L212.5 133.5C206 137 191 151.3 183 180.5C178.167 182.833 170.8 187.6 180 188C177.167 193.833 173.8 206.3 183 209.5C176.667 212 167.8 221.2 183 238C178.167 243 172 253.6 186 256C182.333 257 177.9 263.4 189.5 281C161.833 285.167 90.3 291 25.5 281C30.1667 270.833 39.6 250.7 40 251.5C40.4 252.3 35.8333 242.833 33.5 238C41.5 233 52.7 220.3 33.5 209.5C40.1667 203.833 48.9 190.1 30.5 180.5C27.3333 164.833 18 133.5 6 133.5C6 113.333 5.2 72.3 2 69.5L30.5 107.5L25.5 133.5C34.5 140.667 53.5 159.3 57.5 176.5C58.8333 175.667 60.7 172.2 57.5 165C52.3333 155.167 39.7 135.1 30.5 133.5L40 104C41.6667 109.333 45.9 120.1 49.5 120.5C51.1667 127.167 55.1 139.8 57.5 137V129.5L62 133.5V137C62.5 137.167 64.1 136.7 66.5 133.5L81 126.5C80.3333 134.333 80.1 151.2 84.5 156C90 162 74 156.5 88.5 168.5C90.1667 167.167 93 162.2 91 153C88.6667 146.333 84.9 131 88.5 123L69 98L103 59H97.5C97.5 54 96.2 45.2 91 50L76 54C77 52.6667 79.2 45.3 80 26.5C83.6667 26.8333 92 28.8 96 34C97.6667 33.5 100.3 30.5 97.5 22.5C99.5 20.3333 102 15.3 96 12.5V3Z" stroke="black" stroke-width="5"/>
<path d="M46.4146 182.868C39.2146 179.668 42.4146 176.868 44.9146 175.868C48.1146 174.668 48.5812 176.368 48.4146 177.368C47.2146 180.568 54.9146 180.035 58.9146 179.368C105.715 164.968 148.415 172.368 163.915 177.868C176.715 170.268 176.915 172.701 175.415 174.868C169.415 178.068 169.581 180.868 170.415 181.868C176.015 187.468 172.415 187.868 169.915 187.368C133.115 170.168 74.5812 180.201 49.9146 187.368C42.3146 190.968 44.4146 185.868 46.4146 182.868Z" fill="black" stroke="black"/>
<path d="M50.5882 202.734C35.7882 205.534 43.4216 200.234 49.0882 197.234C105.488 181.634 152.255 191.734 168.588 198.734C174.988 203.534 169.255 203.4 165.588 202.734C125.588 187.934 72.2549 196.567 50.5882 202.734Z" fill="black" stroke="black"/>
<path d="M52.5882 217.734C37.7882 220.534 45.4216 215.234 51.0882 212.234C107.488 196.634 154.255 206.734 170.588 213.734C176.988 218.534 171.255 218.4 167.588 217.734C127.588 202.934 74.2549 211.567 52.5882 217.734Z" fill="black" stroke="black"/>
<path d="M52.5882 232.734C37.7882 235.534 45.4216 230.234 51.0882 227.234C107.488 211.634 154.255 221.734 170.588 228.734C176.988 233.534 171.255 233.4 167.588 232.734C127.588 217.934 74.2549 226.567 52.5882 232.734Z" fill="black" stroke="black"/>
<path d="M51.0279 255.272C36.2818 259.706 43.8873 251.313 49.5334 246.563C105.728 221.861 152.325 237.854 168.599 248.938C174.975 256.539 169.263 256.328 165.61 255.272C125.755 231.837 72.6158 245.507 51.0279 255.272Z" fill="black" stroke="black"/>
<path d="M60.9295 259.5C58.1295 255.9 53.7628 259.333 51.9295 261.5C49.4295 261.5 49.9294 267 50.4294 268.5C50.8294 269.7 47.9295 273.333 46.4295 275C42.0295 277.8 44.5961 279.167 46.4295 279.5C55.2295 273.1 101.429 271.5 123.429 271.5C129.429 270.3 125.929 268 123.429 267C120.629 267 86.5961 268.667 69.9295 269.5C65.9295 269.5 57.4295 269 58.4295 267C59.2295 265.4 64.0961 262.667 66.4295 261.5C70.8295 261.5 70.5961 258.5 69.9295 257C63.5295 261.4 61.2628 260.5 60.9295 259.5Z" fill="black" stroke="black"/>
</svg>
