<svg width="136" height="165" viewBox="0 0 136 165" fill="none" xmlns="http://www.w3.org/2000/svg">
<path d="M60.0068 16.5L69.0068 4L80.0068 16.5H72.0068C73.0068 25.5 86.5068 34.5 86.5068 36C86.5068 37.2 81.1735 43.1667 78.5068 46C88.9068 57.6 94.1735 59.8333 95.5068 59.5C93.5068 60.7 88.6735 74 86.5068 80.5L95.5068 69C96.7068 66.2 99.6735 67.8333 101.007 69L105.507 70.5L106.507 64.5C101.84 66 95.1068 67.9 105.507 63.5C115.907 59.1 129.174 46.6667 134.507 41C130.907 45 130.34 63.6667 130.507 72.5C118.907 84.1 116.34 95 116.507 99C120.907 99.4 119.34 101.167 118.007 102C104.407 111.2 112.34 117.833 118.007 120C110.007 118 110.007 125.167 111.007 129C107.807 134.2 114.34 138.5 118.007 140L113.507 142C111.107 146 115.507 155.667 118.007 160C80.0068 164.8 36.1735 162 19.0068 160C27.0068 147.2 25.3402 141.333 23.5068 140C29.9068 136.4 27.5068 131.167 25.5068 129C30.7068 126.2 29.0068 123.5 27.5068 122.5C22.3068 121.7 22.6735 119.167 23.5068 118L27.5068 116C31.5069 116.5 32.0069 115.5 32.0069 114C32.0069 112.8 29.0068 112.167 27.5068 112C27.5068 108.8 24.8402 106.333 23.5068 105.5C19.5068 103 21.5068 105 23.5068 102C24.3068 100 20.8402 95.8333 19.0068 94C13.4068 75.6 7.00684 72 4.50684 72.5C6.28818 58.9617 4.23524 46.0052 2.58745 39.5657C2.16745 38.7772 1.95853 38.0797 2.00684 37.5C2.18905 38.0831 2.3852 38.7753 2.58745 39.5657C5.64478 45.3055 19.8869 55.8712 27.5068 61C31.5068 63.4 32.1735 65.6667 32.0069 66.5C30.4069 71.3 32.6735 71.1667 34.0069 70.5L37.5069 69C38.3069 67 40.8402 68.1667 42.0068 69C44.8401 72.8333 50.9068 80.5 52.5068 80.5C54.5068 80.5 40.5068 56.5 42.0068 58C43.2068 59.2 54.5068 50.5 60.0068 46C55.6068 43.6 51.8401 38.3333 50.5068 36C54.1068 34.4 63.3401 22.3333 67.5068 16.5H60.0068Z" fill="white"/>
<path d="M69.0068 4L60.0068 16.5H67.5068C63.3401 22.3333 54.1068 34.4 50.5068 36C51.8401 38.3333 55.6068 43.6 60.0068 46C54.5068 50.5 43.2068 59.2 42.0068 58C40.5068 56.5 54.5068 80.5 52.5068 80.5C50.9068 80.5 44.8401 72.8333 42.0068 69C40.8402 68.1667 38.3069 67 37.5069 69L34.0069 70.5C32.6735 71.1667 30.4069 71.3 32.0069 66.5C32.1735 65.6667 31.5068 63.4 27.5068 61C18.8402 55.1667 1.60684 42.3 2.00684 37.5C3.67351 42.8333 6.50683 57.3 4.50684 72.5C7.00684 72 13.4068 75.6 19.0068 94C20.8402 95.8333 24.3068 100 23.5068 102C21.5068 105 19.5068 103 23.5068 105.5C24.8402 106.333 27.5068 108.8 27.5068 112C29.0068 112.167 32.0069 112.8 32.0069 114C32.0069 115.5 31.5069 116.5 27.5068 116L23.5068 118C22.6735 119.167 22.3068 121.7 27.5068 122.5C29.0068 123.5 30.7068 126.2 25.5068 129C27.5068 131.167 29.9068 136.4 23.5068 140C25.3402 141.333 27.0068 147.2 19.0068 160C36.1735 162 80.0068 164.8 118.007 160C115.507 155.667 111.107 146 113.507 142L118.007 140C114.34 138.5 107.807 134.2 111.007 129C110.007 125.167 110.007 118 118.007 120C112.34 117.833 104.407 111.2 118.007 102C119.34 101.167 120.907 99.4 116.507 99C116.34 95 118.907 84.1 130.507 72.5C130.34 63.6667 130.907 45 134.507 41C129.174 46.6667 115.907 59.1 105.507 63.5C95.1068 67.9 101.84 66 106.507 64.5L105.507 70.5L101.007 69C99.6735 67.8333 96.7068 66.2 95.5068 69L86.5068 80.5C88.6735 74 93.5068 60.7 95.5068 59.5C94.1735 59.8333 88.9068 57.6 78.5068 46C81.1735 43.1667 86.5068 37.2 86.5068 36C86.5068 34.5 73.0068 25.5 72.0068 16.5H80.0068L69.0068 4Z" stroke="black" stroke-width="4"/>
<path d="M105.929 113.323C83.1295 102.923 47.4295 107.656 32.4295 111.323C28.0295 113.723 30.5961 115.99 32.4295 116.823C58.4295 105.623 92.2628 112.156 105.929 116.823C110.329 118.023 107.763 114.99 105.929 113.323Z" fill="white"/>
<path d="M105.929 113.323C83.1295 102.923 47.4295 107.656 32.4295 111.323C28.0295 113.723 30.5961 115.99 32.4295 116.823C58.4295 105.623 92.2628 112.156 105.929 116.823C110.329 118.023 107.763 114.99 105.929 113.323Z" fill="white"/>
<path d="M105.929 113.323C83.1295 102.923 47.4295 107.656 32.4295 111.323C28.0295 113.723 30.5961 115.99 32.4295 116.823C58.4295 105.623 92.2628 112.156 105.929 116.823C110.329 118.023 107.763 114.99 105.929 113.323Z" fill="white"/>
<path d="M105.929 113.323C83.1295 102.923 47.4295 107.656 32.4295 111.323C28.0295 113.723 30.5961 115.99 32.4295 116.823C58.4295 105.623 92.2628 112.156 105.929 116.823C110.329 118.023 107.763 114.99 105.929 113.323Z" fill="black"/>
<path d="M105.929 113.323C83.1295 102.923 47.4295 107.656 32.4295 111.323C28.0295 113.723 30.5961 115.99 32.4295 116.823C58.4295 105.623 92.2628 112.156 105.929 116.823C110.329 118.023 107.763 114.99 105.929 113.323Z" stroke="black" stroke-width="4"/>
<path d="M105.929 123.323C83.1295 112.923 47.4295 117.656 32.4295 121.323C28.0295 123.723 30.5961 125.99 32.4295 126.823C58.4295 115.623 92.2628 122.156 105.929 126.823C110.329 128.023 107.763 124.99 105.929 123.323Z" fill="white"/>
<path d="M105.929 123.323C83.1295 112.923 47.4295 117.656 32.4295 121.323C28.0295 123.723 30.5961 125.99 32.4295 126.823C58.4295 115.623 92.2628 122.156 105.929 126.823C110.329 128.023 107.763 124.99 105.929 123.323Z" fill="white"/>
<path d="M105.929 123.323C83.1295 112.923 47.4295 117.656 32.4295 121.323C28.0295 123.723 30.5961 125.99 32.4295 126.823C58.4295 115.623 92.2628 122.156 105.929 126.823C110.329 128.023 107.763 124.99 105.929 123.323Z" fill="white"/>
<path d="M105.929 123.323C83.1295 112.923 47.4295 117.656 32.4295 121.323C28.0295 123.723 30.5961 125.99 32.4295 126.823C58.4295 115.623 92.2628 122.156 105.929 126.823C110.329 128.023 107.763 124.99 105.929 123.323Z" fill="black"/>
<path d="M105.929 123.323C83.1295 112.923 47.4295 117.656 32.4295 121.323C28.0295 123.723 30.5961 125.99 32.4295 126.823C58.4295 115.623 92.2628 122.156 105.929 126.823C110.329 128.023 107.763 124.99 105.929 123.323Z" stroke="black" stroke-width="4"/>
<path d="M105.929 133.323C83.1295 122.923 47.4295 127.656 32.4295 131.323C28.0295 133.723 30.5961 135.99 32.4295 136.823C58.4295 125.623 92.2628 132.156 105.929 136.823C110.329 138.023 107.763 134.99 105.929 133.323Z" fill="white"/>
<path d="M105.929 133.323C83.1295 122.923 47.4295 127.656 32.4295 131.323C28.0295 133.723 30.5961 135.99 32.4295 136.823C58.4295 125.623 92.2628 132.156 105.929 136.823C110.329 138.023 107.763 134.99 105.929 133.323Z" fill="white"/>
<path d="M105.929 133.323C83.1295 122.923 47.4295 127.656 32.4295 131.323C28.0295 133.723 30.5961 135.99 32.4295 136.823C58.4295 125.623 92.2628 132.156 105.929 136.823C110.329 138.023 107.763 134.99 105.929 133.323Z" fill="white"/>
<path d="M105.929 133.323C83.1295 122.923 47.4295 127.656 32.4295 131.323C28.0295 133.723 30.5961 135.99 32.4295 136.823C58.4295 125.623 92.2628 132.156 105.929 136.823C110.329 138.023 107.763 134.99 105.929 133.323Z" fill="black"/>
<path d="M105.929 133.323C83.1295 122.923 47.4295 127.656 32.4295 131.323C28.0295 133.723 30.5961 135.99 32.4295 136.823C58.4295 125.623 92.2628 132.156 105.929 136.823C110.329 138.023 107.763 134.99 105.929 133.323Z" stroke="black" stroke-width="4"/>
<path d="M66.2422 96.5479C79.9208 96.2055 94.6351 97.6219 106.137 102.868L106.208 102.9L106.266 102.953C106.735 103.38 107.255 103.897 107.701 104.416C108.138 104.924 108.54 105.475 108.732 105.965C108.828 106.207 108.897 106.499 108.835 106.788C108.764 107.117 108.54 107.355 108.231 107.48C107.951 107.594 107.606 107.615 107.227 107.584C106.838 107.552 106.365 107.46 105.798 107.306L105.783 107.301L105.768 107.296C98.9758 104.977 87.145 102.186 73.7744 101.372C60.4004 100.558 45.5282 101.725 32.627 107.282L32.4238 107.37L32.2227 107.278C31.7306 107.055 31.1847 106.733 30.7129 106.33C30.2452 105.93 29.8169 105.422 29.6172 104.817C29.4097 104.189 29.4644 103.501 29.8906 102.814C30.3039 102.149 31.0522 101.505 32.1904 100.884L32.2471 100.853L32.3105 100.837C39.8428 98.9957 52.554 96.8905 66.2422 96.5479Z" fill="white"/>
<path d="M66.2422 96.5479C79.9208 96.2055 94.6351 97.6219 106.137 102.868L106.208 102.9L106.266 102.953C106.735 103.38 107.255 103.897 107.701 104.416C108.138 104.924 108.54 105.475 108.732 105.965C108.828 106.207 108.897 106.499 108.835 106.788C108.764 107.117 108.54 107.355 108.231 107.48C107.951 107.594 107.606 107.615 107.227 107.584C106.838 107.552 106.365 107.46 105.798 107.306L105.783 107.301L105.768 107.296C98.9758 104.977 87.145 102.186 73.7744 101.372C60.4004 100.558 45.5282 101.725 32.627 107.282L32.4238 107.37L32.2227 107.278C31.7306 107.055 31.1847 106.733 30.7129 106.33C30.2452 105.93 29.8169 105.422 29.6172 104.817C29.4097 104.189 29.4644 103.501 29.8906 102.814C30.3039 102.149 31.0522 101.505 32.1904 100.884L32.2471 100.853L32.3105 100.837C39.8428 98.9957 52.554 96.8905 66.2422 96.5479Z" fill="white"/>
<path d="M66.2422 96.5479C79.9208 96.2055 94.6351 97.6219 106.137 102.868L106.208 102.9L106.266 102.953C106.735 103.38 107.255 103.897 107.701 104.416C108.138 104.924 108.54 105.475 108.732 105.965C108.828 106.207 108.897 106.499 108.835 106.788C108.764 107.117 108.54 107.355 108.231 107.48C107.951 107.594 107.606 107.615 107.227 107.584C106.838 107.552 106.365 107.46 105.798 107.306L105.783 107.301L105.768 107.296C98.9758 104.977 87.145 102.186 73.7744 101.372C60.4004 100.558 45.5282 101.725 32.627 107.282L32.4238 107.37L32.2227 107.278C31.7306 107.055 31.1847 106.733 30.7129 106.33C30.2452 105.93 29.8169 105.422 29.6172 104.817C29.4097 104.189 29.4644 103.501 29.8906 102.814C30.3039 102.149 31.0522 101.505 32.1904 100.884L32.2471 100.853L32.3105 100.837C39.8428 98.9957 52.554 96.8905 66.2422 96.5479Z" fill="white"/>
<path d="M66.2422 96.5479C79.9208 96.2055 94.6351 97.6219 106.137 102.868L106.208 102.9L106.266 102.953C106.735 103.38 107.255 103.897 107.701 104.416C108.138 104.924 108.54 105.475 108.732 105.965C108.828 106.207 108.897 106.499 108.835 106.788C108.764 107.117 108.54 107.355 108.231 107.48C107.951 107.594 107.606 107.615 107.227 107.584C106.838 107.552 106.365 107.46 105.798 107.306L105.783 107.301L105.768 107.296C98.9758 104.977 87.145 102.186 73.7744 101.372C60.4004 100.558 45.5282 101.725 32.627 107.282L32.4238 107.37L32.2227 107.278C31.7306 107.055 31.1847 106.733 30.7129 106.33C30.2452 105.93 29.8169 105.422 29.6172 104.817C29.4097 104.189 29.4644 103.501 29.8906 102.814C30.3039 102.149 31.0522 101.505 32.1904 100.884L32.2471 100.853L32.3105 100.837C39.8428 98.9957 52.554 96.8905 66.2422 96.5479Z" fill="black"/>
<path d="M72.5828 37.2105C74.4879 31.396 69.4078 34.7878 66.6297 37.2105C61.8671 39.6741 64.6453 66.8251 66.6297 80.0927C66.6297 82.4185 69.0109 83 70.2016 83C65.439 45.7868 69.8047 36.9682 72.5828 37.2105Z" fill="black" stroke="black" stroke-width="4"/>
</svg>
