<svg width="114" height="175" viewBox="0 0 114 175" fill="none" xmlns="http://www.w3.org/2000/svg">
<g filter="url(#filter0_d_43_48)">
<mask id="path-1-inside-1_43_48" fill="white">
<path fill-rule="evenodd" clip-rule="evenodd" d="M56.4671 6.73461C55.9081 8.10961 54.6531 11.2596 53.6781 13.7346C51.2361 19.9386 49.0561 22.9506 40.1051 32.4866C33.5351 39.4866 32.2581 41.4156 31.6911 45.2016C30.8211 51.0046 32.6361 58.3936 36.3841 64.3036L39.3611 68.9976L36.7991 71.6706C33.3961 75.2236 33.5651 76.4466 37.7381 78.4356C40.3561 79.6846 41.2381 80.7336 41.2381 82.5986C41.2381 87.9996 35.0071 103.228 31.5511 106.273C30.2791 107.393 29.2161 109.193 29.1881 110.273C29.1441 112.014 26.7331 114.307 17.2471 121.623C14.8631 123.461 14.8301 123.627 16.4971 125.468C18.6591 127.858 18.6191 130.353 16.2751 139.235C15.2591 143.085 14.7431 146.57 15.1271 146.979C16.6161 148.564 60.5471 149.825 79.5991 148.831C89.9731 148.289 98.6731 147.633 98.9341 147.373C99.1941 147.112 98.2441 143.436 96.8231 139.203C93.7131 129.945 93.6701 128.969 96.2421 126.231L98.2461 124.097L91.7421 118.352C87.6721 114.756 85.2381 111.829 85.2381 110.531C85.2381 109.389 84.5851 107.956 83.7861 107.345C80.2151 104.614 73.2381 86.9896 73.2381 80.7006C73.2381 80.4066 74.5881 79.3686 76.2381 78.3936C79.9721 76.1886 80.0661 73.5046 76.5021 70.9076C73.9221 69.0286 73.8611 68.8086 75.4331 67.0716C79.1521 62.9626 82.2181 54.3836 82.2281 48.0616C82.2371 42.4936 81.8791 41.4136 78.5801 37.0616C76.5681 34.4066 72.7831 29.8796 70.1691 27.0016C67.5551 24.1236 64.4481 19.6236 63.2661 17.0016C56.8721 2.82961 57.6051 3.93561 56.4671 6.73461ZM58.2381 19.6136C58.2381 20.0976 60.0381 22.3476 62.2371 24.6136C64.4361 26.8806 65.8071 28.7346 65.2841 28.7346C64.7611 28.7346 62.8961 26.9476 61.1421 24.7646C59.3871 22.5806 57.5661 21.0326 57.0941 21.3236C56.6231 21.6146 56.2381 21.1506 56.2381 20.2936C56.2381 19.4366 56.6881 18.7346 57.2381 18.7346C57.7881 18.7346 58.2381 19.1306 58.2381 19.6136ZM50.7721 28.5196C48.0941 31.1126 46.9911 31.8786 48.3211 30.2216C51.8881 25.7746 54.6781 23.0186 55.1901 23.4366C55.4381 23.6386 53.4501 25.9266 50.7721 28.5196ZM44.4831 34.9846C43.9331 35.6726 43.1721 37.2476 42.7931 38.4846C42.2841 40.1466 42.5081 40.7346 43.6511 40.7346C44.8921 40.7346 45.0911 41.5796 44.6531 44.9846C44.3271 47.5166 44.7251 51.2366 45.6361 54.1876C47.4121 59.9426 46.8891 61.2426 44.2141 57.7196C43.0341 56.1656 42.0721 52.6806 41.6471 48.4206C41.2251 44.1886 40.6121 41.9606 40.0311 42.5416C38.7671 43.8056 38.8431 53.5686 40.1421 56.9846C41.5261 60.6216 40.6851 60.4996 38.7641 56.7846C37.9251 55.1616 37.2381 51.3176 37.2381 48.2426C37.2381 43.5066 37.7361 41.9736 40.4881 38.2316C42.2761 35.8016 44.1311 33.7946 44.6101 33.7736C45.0901 33.7526 45.0331 34.2976 44.4831 34.9846ZM77.7681 51.3826C77.4161 53.7286 76.2661 56.6806 75.2121 57.9416C73.3471 60.1726 73.3481 60.0806 75.2661 54.5096C76.3511 51.3606 77.3051 47.0856 77.3881 45.0096C77.5201 41.6906 77.5901 41.5896 77.9731 44.1756C78.2121 45.7936 78.1201 49.0366 77.7681 51.3826ZM51.0221 64.8736C56.1851 67.1076 56.4791 67.1246 63.8691 65.6196C71.1401 64.1386 71.3421 64.1476 69.0891 65.8466C66.3131 67.9406 58.6541 69.1726 54.0281 68.2686C49.0431 67.2936 43.2621 64.4026 43.2491 62.8776C43.2431 62.1316 43.8011 61.7606 44.4881 62.0536C45.1761 62.3466 48.1161 63.6156 51.0221 64.8736ZM71.2381 74.6866C73.5691 75.3876 73.4731 75.4916 69.8181 76.2296C64.8551 77.2316 44.1991 76.0956 42.8511 74.7476C41.6531 73.5496 67.2791 73.4946 71.2381 74.6866ZM49.2381 81.3006C49.2381 81.6116 48.7311 82.8136 48.1111 83.9716C47.1881 85.6966 47.3211 86.3216 48.8461 87.4376C50.6371 88.7466 50.6251 88.8206 48.5441 89.3646C46.9311 89.7866 46.2051 90.9866 45.6891 94.0826C45.3091 96.3666 43.9061 100.201 42.5711 102.605C41.2361 105.008 40.3341 107.164 40.5661 107.397C40.7991 107.629 49.5951 107.913 60.1131 108.027C70.6321 108.141 79.2381 108.585 79.2381 109.014C79.2381 110.049 39.0051 109.827 37.3151 108.782C36.2471 108.122 36.2741 107.805 37.4591 107.102C39.1821 106.08 44.0701 93.6316 44.9221 88.0966C45.6171 83.5826 46.9131 80.7346 48.2731 80.7346C48.8041 80.7346 49.2381 80.9896 49.2381 81.3006ZM68.7481 85.4846C69.0791 87.5476 70.0601 90.8096 70.9281 92.7346C73.0721 97.4856 74.2291 102.735 73.1331 102.735C72.6411 102.735 72.2351 101.948 72.2321 100.985C72.2281 100.022 71.5491 97.9376 70.7221 96.3526C69.8961 94.7666 68.9371 91.6166 68.5921 89.3526C68.2461 87.0876 67.5601 84.4476 67.0661 83.4846C66.5051 82.3916 66.5391 81.7346 67.1581 81.7346C67.7021 81.7346 68.4181 83.4226 68.7481 85.4846ZM33.7311 117.95C30.6561 120.403 27.2381 122.047 27.2381 121.074C27.2381 120.746 28.7001 118.803 30.4881 116.755C33.2221 113.622 33.9651 113.24 35.1671 114.348C36.3911 115.476 36.1851 115.994 33.7311 117.95ZM66.1411 125.109C83.7251 125.015 89.0711 125.26 87.6411 126.095C85.3531 127.43 42.6791 127.66 30.9881 126.4C19.3381 125.144 21.1111 123.364 32.9881 124.392C38.3501 124.856 53.2701 125.178 66.1411 125.109ZM25.9301 134.983L24.4901 140.499L39.0931 141.766C48.3841 142.572 60.7051 142.818 72.9671 142.442C83.5661 142.117 92.2381 142.211 92.2381 142.65C92.2381 144.878 57.4381 145.473 35.1311 143.627C21.5871 142.506 20.0091 142.187 21.7721 140.931C23.1841 139.925 25.2381 133.573 25.2381 130.214C25.2381 128.176 25.5491 127.646 26.3041 128.401C27.0591 129.156 26.9501 131.078 25.9301 134.983Z"/>
</mask>
<path fill-rule="evenodd" clip-rule="evenodd" d="M56.4671 6.73461C55.9081 8.10961 54.6531 11.2596 53.6781 13.7346C51.2361 19.9386 49.0561 22.9506 40.1051 32.4866C33.5351 39.4866 32.2581 41.4156 31.6911 45.2016C30.8211 51.0046 32.6361 58.3936 36.3841 64.3036L39.3611 68.9976L36.7991 71.6706C33.3961 75.2236 33.5651 76.4466 37.7381 78.4356C40.3561 79.6846 41.2381 80.7336 41.2381 82.5986C41.2381 87.9996 35.0071 103.228 31.5511 106.273C30.2791 107.393 29.2161 109.193 29.1881 110.273C29.1441 112.014 26.7331 114.307 17.2471 121.623C14.8631 123.461 14.8301 123.627 16.4971 125.468C18.6591 127.858 18.6191 130.353 16.2751 139.235C15.2591 143.085 14.7431 146.57 15.1271 146.979C16.6161 148.564 60.5471 149.825 79.5991 148.831C89.9731 148.289 98.6731 147.633 98.9341 147.373C99.1941 147.112 98.2441 143.436 96.8231 139.203C93.7131 129.945 93.6701 128.969 96.2421 126.231L98.2461 124.097L91.7421 118.352C87.6721 114.756 85.2381 111.829 85.2381 110.531C85.2381 109.389 84.5851 107.956 83.7861 107.345C80.2151 104.614 73.2381 86.9896 73.2381 80.7006C73.2381 80.4066 74.5881 79.3686 76.2381 78.3936C79.9721 76.1886 80.0661 73.5046 76.5021 70.9076C73.9221 69.0286 73.8611 68.8086 75.4331 67.0716C79.1521 62.9626 82.2181 54.3836 82.2281 48.0616C82.2371 42.4936 81.8791 41.4136 78.5801 37.0616C76.5681 34.4066 72.7831 29.8796 70.1691 27.0016C67.5551 24.1236 64.4481 19.6236 63.2661 17.0016C56.8721 2.82961 57.6051 3.93561 56.4671 6.73461ZM58.2381 19.6136C58.2381 20.0976 60.0381 22.3476 62.2371 24.6136C64.4361 26.8806 65.8071 28.7346 65.2841 28.7346C64.7611 28.7346 62.8961 26.9476 61.1421 24.7646C59.3871 22.5806 57.5661 21.0326 57.0941 21.3236C56.6231 21.6146 56.2381 21.1506 56.2381 20.2936C56.2381 19.4366 56.6881 18.7346 57.2381 18.7346C57.7881 18.7346 58.2381 19.1306 58.2381 19.6136ZM50.7721 28.5196C48.0941 31.1126 46.9911 31.8786 48.3211 30.2216C51.8881 25.7746 54.6781 23.0186 55.1901 23.4366C55.4381 23.6386 53.4501 25.9266 50.7721 28.5196ZM44.4831 34.9846C43.9331 35.6726 43.1721 37.2476 42.7931 38.4846C42.2841 40.1466 42.5081 40.7346 43.6511 40.7346C44.8921 40.7346 45.0911 41.5796 44.6531 44.9846C44.3271 47.5166 44.7251 51.2366 45.6361 54.1876C47.4121 59.9426 46.8891 61.2426 44.2141 57.7196C43.0341 56.1656 42.0721 52.6806 41.6471 48.4206C41.2251 44.1886 40.6121 41.9606 40.0311 42.5416C38.7671 43.8056 38.8431 53.5686 40.1421 56.9846C41.5261 60.6216 40.6851 60.4996 38.7641 56.7846C37.9251 55.1616 37.2381 51.3176 37.2381 48.2426C37.2381 43.5066 37.7361 41.9736 40.4881 38.2316C42.2761 35.8016 44.1311 33.7946 44.6101 33.7736C45.0901 33.7526 45.0331 34.2976 44.4831 34.9846ZM77.7681 51.3826C77.4161 53.7286 76.2661 56.6806 75.2121 57.9416C73.3471 60.1726 73.3481 60.0806 75.2661 54.5096C76.3511 51.3606 77.3051 47.0856 77.3881 45.0096C77.5201 41.6906 77.5901 41.5896 77.9731 44.1756C78.2121 45.7936 78.1201 49.0366 77.7681 51.3826ZM51.0221 64.8736C56.1851 67.1076 56.4791 67.1246 63.8691 65.6196C71.1401 64.1386 71.3421 64.1476 69.0891 65.8466C66.3131 67.9406 58.6541 69.1726 54.0281 68.2686C49.0431 67.2936 43.2621 64.4026 43.2491 62.8776C43.2431 62.1316 43.8011 61.7606 44.4881 62.0536C45.1761 62.3466 48.1161 63.6156 51.0221 64.8736ZM71.2381 74.6866C73.5691 75.3876 73.4731 75.4916 69.8181 76.2296C64.8551 77.2316 44.1991 76.0956 42.8511 74.7476C41.6531 73.5496 67.2791 73.4946 71.2381 74.6866ZM49.2381 81.3006C49.2381 81.6116 48.7311 82.8136 48.1111 83.9716C47.1881 85.6966 47.3211 86.3216 48.8461 87.4376C50.6371 88.7466 50.6251 88.8206 48.5441 89.3646C46.9311 89.7866 46.2051 90.9866 45.6891 94.0826C45.3091 96.3666 43.9061 100.201 42.5711 102.605C41.2361 105.008 40.3341 107.164 40.5661 107.397C40.7991 107.629 49.5951 107.913 60.1131 108.027C70.6321 108.141 79.2381 108.585 79.2381 109.014C79.2381 110.049 39.0051 109.827 37.3151 108.782C36.2471 108.122 36.2741 107.805 37.4591 107.102C39.1821 106.08 44.0701 93.6316 44.9221 88.0966C45.6171 83.5826 46.9131 80.7346 48.2731 80.7346C48.8041 80.7346 49.2381 80.9896 49.2381 81.3006ZM68.7481 85.4846C69.0791 87.5476 70.0601 90.8096 70.9281 92.7346C73.0721 97.4856 74.2291 102.735 73.1331 102.735C72.6411 102.735 72.2351 101.948 72.2321 100.985C72.2281 100.022 71.5491 97.9376 70.7221 96.3526C69.8961 94.7666 68.9371 91.6166 68.5921 89.3526C68.2461 87.0876 67.5601 84.4476 67.0661 83.4846C66.5051 82.3916 66.5391 81.7346 67.1581 81.7346C67.7021 81.7346 68.4181 83.4226 68.7481 85.4846ZM33.7311 117.95C30.6561 120.403 27.2381 122.047 27.2381 121.074C27.2381 120.746 28.7001 118.803 30.4881 116.755C33.2221 113.622 33.9651 113.24 35.1671 114.348C36.3911 115.476 36.1851 115.994 33.7311 117.95ZM66.1411 125.109C83.7251 125.015 89.0711 125.26 87.6411 126.095C85.3531 127.43 42.6791 127.66 30.9881 126.4C19.3381 125.144 21.1111 123.364 32.9881 124.392C38.3501 124.856 53.2701 125.178 66.1411 125.109ZM25.9301 134.983L24.4901 140.499L39.0931 141.766C48.3841 142.572 60.7051 142.818 72.9671 142.442C83.5661 142.117 92.2381 142.211 92.2381 142.65C92.2381 144.878 57.4381 145.473 35.1311 143.627C21.5871 142.506 20.0091 142.187 21.7721 140.931C23.1841 139.925 25.2381 133.573 25.2381 130.214C25.2381 128.176 25.5491 127.646 26.3041 128.401C27.0591 129.156 26.9501 131.078 25.9301 134.983Z" fill="#FFFBFB"/>
<path fill-rule="evenodd" clip-rule="evenodd" d="M56.4671 6.73461C55.9081 8.10961 54.6531 11.2596 53.6781 13.7346C51.2361 19.9386 49.0561 22.9506 40.1051 32.4866C33.5351 39.4866 32.2581 41.4156 31.6911 45.2016C30.8211 51.0046 32.6361 58.3936 36.3841 64.3036L39.3611 68.9976L36.7991 71.6706C33.3961 75.2236 33.5651 76.4466 37.7381 78.4356C40.3561 79.6846 41.2381 80.7336 41.2381 82.5986C41.2381 87.9996 35.0071 103.228 31.5511 106.273C30.2791 107.393 29.2161 109.193 29.1881 110.273C29.1441 112.014 26.7331 114.307 17.2471 121.623C14.8631 123.461 14.8301 123.627 16.4971 125.468C18.6591 127.858 18.6191 130.353 16.2751 139.235C15.2591 143.085 14.7431 146.57 15.1271 146.979C16.6161 148.564 60.5471 149.825 79.5991 148.831C89.9731 148.289 98.6731 147.633 98.9341 147.373C99.1941 147.112 98.2441 143.436 96.8231 139.203C93.7131 129.945 93.6701 128.969 96.2421 126.231L98.2461 124.097L91.7421 118.352C87.6721 114.756 85.2381 111.829 85.2381 110.531C85.2381 109.389 84.5851 107.956 83.7861 107.345C80.2151 104.614 73.2381 86.9896 73.2381 80.7006C73.2381 80.4066 74.5881 79.3686 76.2381 78.3936C79.9721 76.1886 80.0661 73.5046 76.5021 70.9076C73.9221 69.0286 73.8611 68.8086 75.4331 67.0716C79.1521 62.9626 82.2181 54.3836 82.2281 48.0616C82.2371 42.4936 81.8791 41.4136 78.5801 37.0616C76.5681 34.4066 72.7831 29.8796 70.1691 27.0016C67.5551 24.1236 64.4481 19.6236 63.2661 17.0016C56.8721 2.82961 57.6051 3.93561 56.4671 6.73461ZM58.2381 19.6136C58.2381 20.0976 60.0381 22.3476 62.2371 24.6136C64.4361 26.8806 65.8071 28.7346 65.2841 28.7346C64.7611 28.7346 62.8961 26.9476 61.1421 24.7646C59.3871 22.5806 57.5661 21.0326 57.0941 21.3236C56.6231 21.6146 56.2381 21.1506 56.2381 20.2936C56.2381 19.4366 56.6881 18.7346 57.2381 18.7346C57.7881 18.7346 58.2381 19.1306 58.2381 19.6136ZM50.7721 28.5196C48.0941 31.1126 46.9911 31.8786 48.3211 30.2216C51.8881 25.7746 54.6781 23.0186 55.1901 23.4366C55.4381 23.6386 53.4501 25.9266 50.7721 28.5196ZM44.4831 34.9846C43.9331 35.6726 43.1721 37.2476 42.7931 38.4846C42.2841 40.1466 42.5081 40.7346 43.6511 40.7346C44.8921 40.7346 45.0911 41.5796 44.6531 44.9846C44.3271 47.5166 44.7251 51.2366 45.6361 54.1876C47.4121 59.9426 46.8891 61.2426 44.2141 57.7196C43.0341 56.1656 42.0721 52.6806 41.6471 48.4206C41.2251 44.1886 40.6121 41.9606 40.0311 42.5416C38.7671 43.8056 38.8431 53.5686 40.1421 56.9846C41.5261 60.6216 40.6851 60.4996 38.7641 56.7846C37.9251 55.1616 37.2381 51.3176 37.2381 48.2426C37.2381 43.5066 37.7361 41.9736 40.4881 38.2316C42.2761 35.8016 44.1311 33.7946 44.6101 33.7736C45.0901 33.7526 45.0331 34.2976 44.4831 34.9846ZM77.7681 51.3826C77.4161 53.7286 76.2661 56.6806 75.2121 57.9416C73.3471 60.1726 73.3481 60.0806 75.2661 54.5096C76.3511 51.3606 77.3051 47.0856 77.3881 45.0096C77.5201 41.6906 77.5901 41.5896 77.9731 44.1756C78.2121 45.7936 78.1201 49.0366 77.7681 51.3826ZM51.0221 64.8736C56.1851 67.1076 56.4791 67.1246 63.8691 65.6196C71.1401 64.1386 71.3421 64.1476 69.0891 65.8466C66.3131 67.9406 58.6541 69.1726 54.0281 68.2686C49.0431 67.2936 43.2621 64.4026 43.2491 62.8776C43.2431 62.1316 43.8011 61.7606 44.4881 62.0536C45.1761 62.3466 48.1161 63.6156 51.0221 64.8736ZM71.2381 74.6866C73.5691 75.3876 73.4731 75.4916 69.8181 76.2296C64.8551 77.2316 44.1991 76.0956 42.8511 74.7476C41.6531 73.5496 67.2791 73.4946 71.2381 74.6866ZM49.2381 81.3006C49.2381 81.6116 48.7311 82.8136 48.1111 83.9716C47.1881 85.6966 47.3211 86.3216 48.8461 87.4376C50.6371 88.7466 50.6251 88.8206 48.5441 89.3646C46.9311 89.7866 46.2051 90.9866 45.6891 94.0826C45.3091 96.3666 43.9061 100.201 42.5711 102.605C41.2361 105.008 40.3341 107.164 40.5661 107.397C40.7991 107.629 49.5951 107.913 60.1131 108.027C70.6321 108.141 79.2381 108.585 79.2381 109.014C79.2381 110.049 39.0051 109.827 37.3151 108.782C36.2471 108.122 36.2741 107.805 37.4591 107.102C39.1821 106.08 44.0701 93.6316 44.9221 88.0966C45.6171 83.5826 46.9131 80.7346 48.2731 80.7346C48.8041 80.7346 49.2381 80.9896 49.2381 81.3006ZM68.7481 85.4846C69.0791 87.5476 70.0601 90.8096 70.9281 92.7346C73.0721 97.4856 74.2291 102.735 73.1331 102.735C72.6411 102.735 72.2351 101.948 72.2321 100.985C72.2281 100.022 71.5491 97.9376 70.7221 96.3526C69.8961 94.7666 68.9371 91.6166 68.5921 89.3526C68.2461 87.0876 67.5601 84.4476 67.0661 83.4846C66.5051 82.3916 66.5391 81.7346 67.1581 81.7346C67.7021 81.7346 68.4181 83.4226 68.7481 85.4846ZM33.7311 117.95C30.6561 120.403 27.2381 122.047 27.2381 121.074C27.2381 120.746 28.7001 118.803 30.4881 116.755C33.2221 113.622 33.9651 113.24 35.1671 114.348C36.3911 115.476 36.1851 115.994 33.7311 117.95ZM66.1411 125.109C83.7251 125.015 89.0711 125.26 87.6411 126.095C85.3531 127.43 42.6791 127.66 30.9881 126.4C19.3381 125.144 21.1111 123.364 32.9881 124.392C38.3501 124.856 53.2701 125.178 66.1411 125.109ZM25.9301 134.983L24.4901 140.499L39.0931 141.766C48.3841 142.572 60.7051 142.818 72.9671 142.442C83.5661 142.117 92.2381 142.211 92.2381 142.65C92.2381 144.878 57.4381 145.473 35.1311 143.627C21.5871 142.506 20.0091 142.187 21.7721 140.931C23.1841 139.925 25.2381 133.573 25.2381 130.214C25.2381 128.176 25.5491 127.646 26.3041 128.401C27.0591 129.156 26.9501 131.078 25.9301 134.983Z" stroke="black" stroke-width="10" mask="url(#path-1-inside-1_43_48)"/>
</g>
<defs>
<filter id="filter0_d_43_48" x="0" y="0" width="113.977" height="174.183" filterUnits="userSpaceOnUse" color-interpolation-filters="sRGB">
<feFlood flood-opacity="0" result="BackgroundImageFix"/>
<feColorMatrix in="SourceAlpha" type="matrix" values="0 0 0 0 0 0 0 0 0 0 0 0 0 0 0 0 0 0 127 0" result="hardAlpha"/>
<feOffset dy="10"/>
<feGaussianBlur stdDeviation="7.5"/>
<feComposite in2="hardAlpha" operator="out"/>
<feColorMatrix type="matrix" values="0 0 0 0 0.0901961 0 0 0 0 0.560784 0 0 0 0 0.47451 0 0 0 0.25 0"/>
<feBlend mode="normal" in2="BackgroundImageFix" result="effect1_dropShadow_43_48"/>
<feBlend mode="normal" in="SourceGraphic" in2="effect1_dropShadow_43_48" result="shape"/>
</filter>
</defs>
</svg>
